<?xml version="1.0" encoding="utf-8"?>
<!-- Generator: Adobe Illustrator 26.3.1, SVG Export Plug-In . SVG Version: 6.00 Build 0)  -->
<svg version="1.1" id="Layer_1" xmlns="http://www.w3.org/2000/svg" xmlns:xlink="http://www.w3.org/1999/xlink" x="0px" y="0px"
	 viewBox="0 0 900 900" style="enable-background:new 0 0 900 900;" xml:space="preserve">
<style type="text/css">
	.st0{opacity:0.6;fill:none;}
	.st1{fill-rule:evenodd;clip-rule:evenodd;fill:#FFFFFF;}
	.st2{fill-rule:evenodd;clip-rule:evenodd;fill:#45A9D7;}
	.st3{fill-rule:evenodd;clip-rule:evenodd;fill:#CA7830;}
	.st4{fill-rule:evenodd;clip-rule:evenodd;fill:#439888;}
	.st5{fill-rule:evenodd;clip-rule:evenodd;fill:#C84F56;}
	.st6{fill-rule:evenodd;clip-rule:evenodd;fill:#3DA366;}
	.st7{fill-rule:evenodd;clip-rule:evenodd;fill:#B8386D;}
	.st8{fill-rule:evenodd;clip-rule:evenodd;fill:#9DB844;}
	.st9{fill-rule:evenodd;clip-rule:evenodd;fill:#8F4D8E;}
	.st10{fill-rule:evenodd;clip-rule:evenodd;fill:#DFC724;}
	.st11{fill-rule:evenodd;clip-rule:evenodd;fill:#3E579B;}
	.st12{fill-rule:evenodd;clip-rule:evenodd;fill:#E1A428;}
	.st13{fill-rule:evenodd;clip-rule:evenodd;fill:#3A84C3;}
	.st14{fill:none;}
	.st15{fill-rule:evenodd;clip-rule:evenodd;fill:none;stroke:#FFFFFF;stroke-width:4;stroke-miterlimit:10;}
	.st16{fill:none;stroke:#FFFFFF;stroke-width:4;stroke-miterlimit:10;}
	.st17{opacity:0.83;fill-rule:evenodd;clip-rule:evenodd;fill:none;stroke:#FFFFFF;stroke-width:16;stroke-miterlimit:10;}
	.st18{opacity:0.9;fill-rule:evenodd;clip-rule:evenodd;fill:none;stroke:#FFFFFF;stroke-width:20;stroke-miterlimit:10;}
	.st19{fill-rule:evenodd;clip-rule:evenodd;fill:none;}
	.st20{opacity:0.1;fill-rule:evenodd;clip-rule:evenodd;fill:none;stroke:#F7941D;stroke-width:100;stroke-miterlimit:10;}
</style>
<g>
	
		<rect x="228.54" y="227.58" transform="matrix(0.9627 -0.2704 0.2704 0.9627 -104.5483 138.2817)" class="st0" width="442" height="441.91"/>
	<g>
		<g id="id3">
			<path class="st1" d="M641.93,556.51c-19.88,35.41-44.82,60.99-79.74,81.71s-69.35,30.39-109.94,30.88
				c-40.6,0.49-75.21-8.36-110.62-28.24c-35.41-19.88-60.99-44.82-81.71-79.74c-20.72-34.92-30.39-69.35-30.88-109.94
				s8.36-75.21,28.24-110.62s44.82-60.99,79.74-81.71s69.35-30.39,109.94-30.88s75.21,8.36,110.62,28.24
				c35.41,19.88,60.99,44.82,81.71,79.74c20.72,34.92,30.39,69.35,30.88,109.94C670.66,486.49,661.81,521.1,641.93,556.51
				L641.93,556.51z"/>
		</g>
	</g>
	<g>
		<g>
			<g id="id4">
				<path class="st2" d="M449.6,448.54L337.01,258.86c34.92-20.72,69.35-30.39,109.94-30.88L449.6,448.54z"/>
			</g>
		</g>
		<g>
			<g id="id5">
				<path class="st3" d="M449.6,448.54l112.59,189.68c-34.92,20.72-69.35,30.39-109.94,30.88L449.6,448.54z"/>
			</g>
		</g>
		<g>
			<g id="id6">
				<path class="st4" d="M449.6,448.54l-2.65-220.56c40.6-0.49,75.21,8.36,110.62,28.24l0,0L449.6,448.54z"/>
			</g>
		</g>
		<g>
			<g id="id7">
				<path class="st5" d="M449.6,448.54l2.65,220.56c-40.6,0.49-75.21-8.36-110.62-28.24L449.6,448.54z"/>
			</g>
		</g>
		<g>
			<g id="id8">
				<path class="st6" d="M449.6,448.54l107.97-192.33c35.41,19.88,60.99,44.82,81.71,79.74L449.6,448.54z"/>
			</g>
		</g>
		<g>
			<g id="id9">
				<path class="st7" d="M449.6,448.54L341.63,640.86l0,0c-35.41-19.88-60.99-44.82-81.71-79.74L449.6,448.54z"/>
			</g>
		</g>
		<g>
			<g id="id10">
				<path class="st8" d="M449.6,448.54l189.68-112.59c20.72,34.92,30.39,69.35,30.88,109.94L449.6,448.54z"/>
			</g>
		</g>
		<g>
			<g id="id11">
				<path class="st9" d="M449.6,448.54L259.92,561.13c-20.72-34.92-30.39-69.35-30.88-109.94L449.6,448.54z"/>
			</g>
		</g>
		<g>
			<g id="id12">
				<path class="st10" d="M449.6,448.54l220.56-2.65c0.49,40.6-8.36,75.21-28.24,110.62L449.6,448.54z"/>
			</g>
		</g>
		<g>
			<g id="id13">
				<path class="st11" d="M449.6,448.54l-220.56,2.65c-0.49-40.6,8.36-75.21,28.24-110.62L449.6,448.54z"/>
			</g>
		</g>
		<g>
			<g id="id14">
				<path class="st12" d="M449.6,448.54l192.33,107.97l0,0c-19.88,35.41-44.82,60.99-79.74,81.71L449.6,448.54z"/>
			</g>
		</g>
		<g>
			<g id="id15">
				<path class="st13" d="M449.6,448.54L257.27,340.57c19.88-35.41,44.82-60.99,79.74-81.71L449.6,448.54z"/>
			</g>
		</g>
	</g>
	<g>
		<g id="id16">
			<path class="st1" d="M536.84,497.5c-9.04,16.02-20.32,27.61-36.16,37.01s-31.45,13.78-49.81,14
				c-18.42,0.23-34.14-3.77-50.14-12.76c-16.07-9.03-27.67-20.37-37.05-36.16c-9.39-15.85-13.78-31.46-14.01-49.88
				c-0.21-18.37,3.79-34.1,12.81-50.17c8.98-16.01,20.32-27.61,36.16-37.01c15.79-9.38,31.39-13.77,49.81-14s34.08,3.79,50.14,12.76
				c16.07,9.03,27.67,20.37,37.05,36.16c9.39,15.85,13.78,31.46,14.01,49.88C549.87,465.7,545.87,481.43,536.84,497.5L536.84,497.5z
				"/>
		</g>
	</g>
	<path id="SVGID_x5F_1_x5F_" class="st14" d="M683.91,572.56C615.8,703.55,454.17,754.4,322.91,686.14S140.45,456.36,208.57,325.37
		s229.74-181.85,361.01-113.59S752.03,441.57,683.91,572.56z"/>
	<text>	<textPath  xlink:href="#SVGID_x5F_1_x5F_" startOffset="89.8437%">
<tspan  style="font-family:'MyriadPro-Regular'; font-size:20.0498px;">  YKSILÖLLISYYS   SOSIAALISUUS    YHTEISÖLLISYYS       TAVOITTEET          HAAVEET       MAHDOLLISUUDET     TÄRKEYS</tspan><tspan  style="font-family:'MyriadPro-Regular'; font-size:20px;">                JÄRJESTYS               AJOITUS </tspan><tspan  style="font-family:'MyriadPro-Regular'; font-size:20.0498px;">        ARVOSTUKSET        USKOMUKSET     KOKEMUKSET</tspan>	</textPath>
</text>
	<circle class="st15" cx="449.67" cy="446.69" r="124.75"/>
	<line class="st16" x1="450.06" y1="229.43" x2="452.05" y2="665.43"/>
	<line class="st16" x1="662.16" y1="445.89" x2="232.47" y2="447.96"/>
	<line class="st16" x1="510.3" y1="336.95" x2="556.57" y2="257.21"/>
	<line class="st16" x1="343.63" y1="638.86" x2="389.86" y2="555.05"/>
	<line class="st16" x1="261.92" y1="559.13" x2="344.26" y2="512.13"/>
	<line class="st16" x1="554.13" y1="381.74" x2="637.28" y2="335.95"/>
	<line class="st16" x1="508.82" y1="549.87" x2="560.19" y2="635.22"/>
	<line class="st16" x1="339.01" y1="260.86" x2="385.89" y2="341.77"/>
	<line class="st16" x1="259.27" y1="342.57" x2="343.92" y2="389.31"/>
	<line class="st16" x1="557.47" y1="506.79" x2="639.93" y2="553.51"/>
	<circle class="st17" cx="450.06" cy="447.96" r="209.59"/>
	<circle class="st18" cx="449.03" cy="448.92" r="115"/>
	<path id="SVGID_x5F_00000153698464615753288570000014831483499761769889_x5F_" class="st19" d="M560.11,447.68
		c0,60.75-49.25,110-110,110s-110-49.25-110-110s49.25-110,110-110S560.11,386.93,560.11,447.68z"/>
	<text>	<textPath  xlink:href="#SVGID_x5F_00000153698464615753288570000014831483499761769889_x5F_" startOffset="105.0633%">
<tspan  style="font-family:'MyriadPro-Regular'; font-size:16.5px;">   OLOSUHTEET                          VOIMAVARAT                          YMPÄRISTÖ                         LÄHTÖKOHDAT</tspan>	</textPath>
</text>
	<path id="SVGID_x5F_00000037685138645542180000000013210537125850511287_x5F_" class="st14" d="M624.92,554.31
		c-58.61,95.77-183.85,125.74-279.73,66.95S219.11,437.17,277.72,341.4s183.85-125.74,279.73-66.95S683.54,458.54,624.92,554.31z"/>
	<text>	<textPath  xlink:href="#SVGID_x5F_00000037685138645542180000000013210537125850511287_x5F_" startOffset="89.8437%">
<tspan  style="font-family:'MyriadPro-Regular'; font-size:17.4881px;">TERVEYS         HYVINVOINTI  TOIMINTAKYKY        TAIDOT             TIEDOT                 KYVYT                  TYÖ                     KOTI             VAPAA-AIKA      KULTTUURI            SUKU                 PERHE</tspan>	</textPath>
</text>
	<path id="SVGID_x5F_00000020367909029456552250000004638806089864709562_x5F_" class="st19" d="M531.13,448.61
		c0,44.18-35.82,80-80,80s-80-35.82-80-80s35.82-80,80-80S531.13,404.43,531.13,448.61z"/>
	<text>	<textPath  xlink:href="#SVGID_x5F_00000020367909029456552250000004638806089864709562_x5F_" startOffset="105.0633%">
<tspan  style="font-family:'MyriadPro-Regular'; font-size:12px;">     NYKYISYYS                            TULEVAISUUS                       AJANHALLINTA                      MENNEISYYS</tspan>	</textPath>
</text>
</g>
<circle class="st20" cx="450" cy="450" r="400"/>
</svg>
