<?xml version="1.0" encoding="UTF-8"?><svg id="Layer_1" xmlns="http://www.w3.org/2000/svg" viewBox="0 0 900 900"><defs><style>.cls-1{fill:#dfc724;}.cls-1,.cls-2,.cls-3,.cls-4,.cls-5,.cls-6,.cls-7,.cls-8,.cls-9,.cls-10,.cls-11,.cls-12,.cls-13{fill-rule:evenodd;}.cls-2{fill:#fff;}.cls-3{fill:#ca7830;}.cls-14{font-size:20px;}.cls-14,.cls-15,.cls-16,.cls-17,.cls-18{fill:#231f20;font-family:MyriadPro-Regular, 'Myriad Pro';}.cls-19{opacity:.1;stroke:#f7941d;stroke-width:100px;}.cls-19,.cls-20,.cls-21,.cls-22,.cls-23{fill:none;}.cls-19,.cls-20,.cls-22,.cls-23{stroke-miterlimit:10;}.cls-4{fill:#439888;}.cls-15{font-size:12px;}.cls-16{font-size:20.05px;}.cls-5{fill:#3a84c3;}.cls-20{opacity:.9;stroke-width:20px;}.cls-20,.cls-22,.cls-23{stroke:#fff;}.cls-6{fill:#c84f56;}.cls-7{fill:#45a9d7;}.cls-8{fill:#8f4d8e;}.cls-21{opacity:.6;}.cls-17{font-size:17.49px;}.cls-9{fill:#3da366;}.cls-18{font-size:16.5px;}.cls-10{fill:#b8386d;}.cls-11{fill:#3e579b;}.cls-12{fill:#9db844;}.cls-22{stroke-width:4px;}.cls-23{opacity:.83;stroke-width:16px;}.cls-13{fill:#e1a428;}</style></defs><g><rect class="cls-21" x="228.54" y="227.58" width="442" height="441.91" transform="translate(-104.55 138.28) rotate(-15.69)"/><g id="id3"><path class="cls-2" d="M641.93,556.51c-19.88,35.41-44.82,60.99-79.74,81.71-34.92,20.72-69.35,30.39-109.94,30.88-40.6,.49-75.21-8.36-110.62-28.24-35.41-19.88-60.99-44.82-81.71-79.74-20.72-34.92-30.39-69.35-30.88-109.94-.49-40.6,8.36-75.21,28.24-110.62,19.88-35.41,44.82-60.99,79.74-81.71,34.92-20.72,69.35-30.39,109.94-30.88,40.6-.49,75.21,8.36,110.62,28.24,35.41,19.88,60.99,44.82,81.71,79.74,20.72,34.92,30.39,69.35,30.88,109.94s-8.36,75.21-28.24,110.62h0Z"/></g><g><g id="id4"><path class="cls-7" d="M449.6,448.54l-112.59-189.68c34.92-20.72,69.35-30.39,109.94-30.88l2.65,220.56Z"/></g><g id="id5"><path class="cls-3" d="M449.6,448.54l112.59,189.68c-34.92,20.72-69.35,30.39-109.94,30.88l-2.65-220.56Z"/></g><g id="id6"><path class="cls-4" d="M449.6,448.54l-2.65-220.56c40.6-.49,75.21,8.36,110.62,28.24h0l-107.97,192.33Z"/></g><g id="id7"><path class="cls-6" d="M449.6,448.54l2.65,220.56c-40.6,.49-75.21-8.36-110.62-28.24l107.97-192.33Z"/></g><g id="id8"><path class="cls-9" d="M449.6,448.54l107.97-192.33c35.41,19.88,60.99,44.82,81.71,79.74l-189.68,112.59Z"/></g><g id="id9"><path class="cls-10" d="M449.6,448.54l-107.97,192.33h0c-35.41-19.88-60.99-44.82-81.71-79.74l189.68-112.59Z"/></g><g id="id10"><path class="cls-12" d="M449.6,448.54l189.68-112.59c20.72,34.92,30.39,69.35,30.88,109.94l-220.56,2.65Z"/></g><g id="id11"><path class="cls-8" d="M449.6,448.54l-189.68,112.59c-20.72-34.92-30.39-69.35-30.88-109.94l220.56-2.65Z"/></g><g id="id12"><path class="cls-1" d="M449.6,448.54l220.56-2.65c.49,40.6-8.36,75.21-28.24,110.62l-192.33-107.97Z"/></g><g id="id13"><path class="cls-11" d="M449.6,448.54l-220.56,2.65c-.49-40.6,8.36-75.21,28.24-110.62l192.33,107.97Z"/></g><g id="id14"><path class="cls-13" d="M449.6,448.54l192.33,107.97h0c-19.88,35.41-44.82,60.99-79.74,81.71l-112.59-189.68Z"/></g><g id="id15"><path class="cls-5" d="M449.6,448.54l-192.33-107.97c19.88-35.41,44.82-60.99,79.74-81.71l112.59,189.68Z"/></g></g><g id="id16"><path class="cls-2" d="M536.84,497.5c-9.04,16.02-20.32,27.61-36.16,37.01-15.84,9.4-31.45,13.78-49.81,14-18.42,.23-34.14-3.77-50.14-12.76-16.07-9.03-27.67-20.37-37.05-36.16-9.39-15.85-13.78-31.46-14.01-49.88-.21-18.37,3.79-34.1,12.81-50.17,8.98-16.01,20.32-27.61,36.16-37.01,15.79-9.38,31.39-13.77,49.81-14,18.42-.23,34.08,3.79,50.14,12.76,16.07,9.03,27.67,20.37,37.05,36.16,9.39,15.85,13.78,31.46,14.01,49.88,.21,18.37-3.79,34.1-12.81,50.17h0Z"/></g><text class="cls-16" transform="translate(444.65 181.47) rotate(.16)"><tspan x="0" y="0"> </tspan></text><text class="cls-16" transform="translate(448.83 181.49) rotate(1.05)"><tspan x="0" y="0"> </tspan></text><text class="cls-16" transform="translate(453.04 181.56) rotate(1.96)"><tspan x="0" y="0"> </tspan></text><text class="cls-16" transform="translate(457.23 181.71) rotate(2.86)"><tspan x="0" y="0"> </tspan></text><text class="cls-16" transform="translate(461.42 181.91) rotate(3.76)"><tspan x="0" y="0"> </tspan></text><text class="cls-16" transform="translate(465.56 182.07) rotate(5.92)"><tspan x="0" y="0">M</tspan></text><text class="cls-16" transform="translate(481.44 183.83) rotate(8.14)"><tspan x="0" y="0">I</tspan></text><text class="cls-16" transform="translate(486.08 184.42) rotate(10.05)"><tspan x="0" y="0">N</tspan></text><text class="cls-16" transform="translate(498.93 186.7) rotate(12.76)"><tspan x="0" y="0">Ä</tspan></text><text class="cls-16" transform="translate(510.75 189.39) rotate(15.22)"><tspan x="0" y="0">K</tspan></text><text class="cls-16" transform="translate(521.08 192.18) rotate(17.74)"><tspan x="0" y="0">U</tspan></text><text class="cls-16" transform="translate(533.3 196.1) rotate(20.29)"><tspan x="0" y="0">V</tspan></text><text class="cls-16" transform="translate(542.6 199.5) rotate(22.51)"><tspan x="0" y="0">A</tspan></text><text class="cls-16" transform="translate(553.82 204.22) rotate(24.24)"><tspan x="0" y="0"> </tspan></text><text class="cls-16" transform="translate(557.66 205.94) rotate(25.13)"><tspan x="0" y="0"> </tspan></text><text class="cls-16" transform="translate(561.45 207.72) rotate(26.01)"><tspan x="0" y="0"> </tspan></text><text class="cls-16" transform="translate(565.25 209.59) rotate(26.55)"><tspan x="0" y="0"> </tspan></text><text class="cls-16" transform="translate(568.94 211.42) rotate(28.4)"><tspan x="0" y="0"> </tspan></text><text class="cls-16" transform="translate(572.71 213.43) rotate(28.65)"><tspan x="0" y="0"> </tspan></text><text class="cls-16" transform="translate(576.39 215.44) rotate(29.53)"><tspan x="0" y="0"> </tspan></text><text class="cls-16" transform="translate(580.03 217.5) rotate(30.42)"><tspan x="0" y="0"> </tspan></text><text class="cls-16" transform="translate(583.65 219.63) rotate(31.3)"><tspan x="0" y="0"> </tspan></text><text class="cls-16" transform="translate(587.22 221.72) rotate(33.11)"><tspan x="0" y="0">H</tspan></text><text class="cls-16" transform="translate(597.93 228.72) rotate(35.6)"><tspan x="0" y="0">Y</tspan></text><text class="cls-16" transform="translate(607.09 235.29) rotate(38.05)"><tspan x="0" y="0">V</tspan></text><text class="cls-16" transform="translate(615.8 242.16) rotate(39.75)"><tspan x="0" y="0">I</tspan></text><text class="cls-16" transform="translate(619.44 245.1) rotate(41.66)"><tspan x="0" y="0">N</tspan></text><text class="cls-16" transform="translate(629.17 253.78) rotate(44.25)"><tspan x="0" y="0">V</tspan></text><text class="cls-16" transform="translate(637.11 261.47) rotate(46.91)"><tspan x="0" y="0">O</tspan></text><text class="cls-16" transform="translate(646.39 271.5) rotate(48.88)"><tspan x="0" y="0">I</tspan></text><text class="cls-16" transform="translate(649.54 274.99) rotate(50.79)"><tspan x="0" y="0">N</tspan></text><text class="cls-16" transform="translate(657.75 285.11) rotate(53.24)"><tspan x="0" y="0">T</tspan></text><text class="cls-16" transform="translate(663.64 293.05) rotate(54.81)"><tspan x="0" y="0">I</tspan></text><text class="cls-16" transform="translate(666.36 296.91) rotate(55.76)"><tspan x="0" y="0"> </tspan></text><text class="cls-16" transform="translate(668.73 300.39) rotate(56.66)"><tspan x="0" y="0"> </tspan></text><text class="cls-16" transform="translate(671.03 303.89) rotate(57.56)"><tspan x="0" y="0"> </tspan></text><text class="cls-16" transform="translate(673.28 307.43) rotate(58.46)"><tspan x="0" y="0"> </tspan></text><text class="cls-16" transform="translate(675.49 311.02) rotate(59.36)"><tspan x="0" y="0"> </tspan></text><text class="cls-16" transform="translate(677.63 314.64) rotate(60.26)"><tspan x="0" y="0"> </tspan></text><text class="cls-16" transform="translate(679.72 318.22) rotate(61.74)"><tspan x="0" y="0">E</tspan></text><text class="cls-16" transform="translate(684.34 326.81) rotate(63.82)"><tspan x="0" y="0">S</tspan></text><text class="cls-16" transform="translate(688.65 335.57) rotate(65.91)"><tspan x="0" y="0">T</tspan></text><text class="cls-16" transform="translate(692.67 344.55) rotate(68)"><tspan x="0" y="0">E</tspan></text><text class="cls-16" transform="translate(696.32 353.58) rotate(70.07)"><tspan x="0" y="0">E</tspan></text><text class="cls-16" transform="translate(699.74 363.04) rotate(72.22)"><tspan x="0" y="0">T</tspan></text><text class="cls-16" transform="translate(702.97 373.12) rotate(74.47)"><tspan x="0" y="0">T</tspan></text><text class="cls-16" transform="translate(705.51 382.06) rotate(76.86)"><tspan x="0" y="0">Ö</tspan></text><text class="cls-16" transform="translate(708.64 395.33) rotate(80.01)"><tspan x="0" y="0">M</tspan></text><text class="cls-16" transform="translate(711.35 411.03) rotate(82.85)"><tspan x="0" y="0">Y</tspan></text><text class="cls-16" transform="translate(712.69 421.72) rotate(85.16)"><tspan x="0" y="0">Y</tspan></text><text class="cls-16" transform="translate(713.57 432.15) rotate(87.3)"><tspan x="0" y="0">S</tspan></text><text class="cls-16" transform="translate(714 441.92) rotate(88.79)"><tspan x="0" y="0"> </tspan></text><text class="cls-16" transform="translate(714.09 446.14) rotate(89.7)"><tspan x="0" y="0"> </tspan></text><text class="cls-16" transform="translate(714.11 450.32) rotate(90.6)"><tspan x="0" y="0"> </tspan></text><text class="cls-16" transform="translate(714.07 454.52) rotate(91.5)"><tspan x="0" y="0"> </tspan></text><text class="cls-16" transform="translate(713.96 458.73) rotate(92.41)"><tspan x="0" y="0"> </tspan></text><text class="cls-16" transform="translate(713.78 462.92) rotate(93.32)"><tspan x="0" y="0"> </tspan></text><text class="cls-16" transform="translate(713.54 467.1) rotate(94.22)"><tspan x="0" y="0"> </tspan></text><text class="cls-16" transform="translate(713.28 471.27) rotate(95.84)"><tspan x="0" y="0">K</tspan></text><text class="cls-16" transform="translate(712.27 481.58) rotate(98.39)"><tspan x="0" y="0">O</tspan></text><text class="cls-16" transform="translate(710.27 495.08) rotate(101.25)"><tspan x="0" y="0">U</tspan></text><text class="cls-16" transform="translate(707.73 507.65) rotate(103.65)"><tspan x="0" y="0">L</tspan></text><text class="cls-16" transform="translate(705.75 516.03) rotate(105.89)"><tspan x="0" y="0">U</tspan></text><text class="cls-16" transform="translate(702.21 528.36) rotate(108.33)"><tspan x="0" y="0">T</tspan></text><text class="cls-16" transform="translate(699.15 537.71) rotate(110.76)"><tspan x="0" y="0">U</tspan></text><text class="cls-16" transform="translate(694.58 549.69) rotate(113.18)"><tspan x="0" y="0">S</tspan></text><text class="cls-16" transform="translate(690.68 558.69) rotate(114.66)"><tspan x="0" y="0"> </tspan></text><text class="cls-16" transform="translate(688.93 562.51) rotate(115.55)"><tspan x="0" y="0"> </tspan></text><text class="cls-16" transform="translate(687.12 566.3) rotate(116.44)"><tspan x="0" y="0"> </tspan></text><text class="cls-16" transform="translate(685.25 570) rotate(116.54)"><tspan x="0" y="0"> </tspan></text><text class="cls-16" transform="translate(683.35 573.76) rotate(118.41)"><tspan x="0" y="0"> </tspan></text><text class="cls-16" transform="translate(681.34 577.48) rotate(119.09)"><tspan x="0" y="0"> </tspan></text><text class="cls-16" transform="translate(679.31 581.14) rotate(119.98)"><tspan x="0" y="0"> </tspan></text><text class="cls-16" transform="translate(677.21 584.77) rotate(120.87)"><tspan x="0" y="0"> </tspan></text><text class="cls-16" transform="translate(675.05 588.39) rotate(121.77)"><tspan x="0" y="0"> </tspan></text><text class="cls-16" transform="translate(672.85 591.95) rotate(122.66)"><tspan x="0" y="0"> </tspan></text><text class="cls-16" transform="translate(671.04 594.88) rotate(124.14)"><tspan x="0" y="0">V</tspan></text><text class="cls-16" transform="translate(664.83 604.02) rotate(126.37)"><tspan x="0" y="0">E</tspan></text><text class="cls-16" transform="translate(659.06 611.86) rotate(128.57)"><tspan x="0" y="0">R</tspan></text><text class="cls-16" transform="translate(652.42 620.2) rotate(130.88)"><tspan x="0" y="0">K</tspan></text><text class="cls-16" transform="translate(645.67 628.07) rotate(133.44)"><tspan x="0" y="0">O</tspan></text><text class="cls-16" transform="translate(636.23 637.97) rotate(135.97)"><tspan x="0" y="0">S</tspan></text><text class="cls-16" transform="translate(629.22 644.76) rotate(138.09)"><tspan x="0" y="0">T</tspan></text><text class="cls-16" transform="translate(622.36 650.99) rotate(140.51)"><tspan x="0" y="0">O</tspan></text><text class="cls-16" transform="translate(612.17 659.35) rotate(142.94)"><tspan x="0" y="0">T</tspan></text><text class="cls-16" transform="translate(604.27 665.27) rotate(144.45)"><tspan x="0" y="0"> </tspan></text><text class="cls-16" transform="translate(600.85 667.71) rotate(145.35)"><tspan x="0" y="0"> </tspan></text><text class="cls-16" transform="translate(597.4 670.1) rotate(146.25)"><tspan x="0" y="0"> </tspan></text><text class="cls-16" transform="translate(593.92 672.42) rotate(147.15)"><tspan x="0" y="0"> </tspan></text><text class="cls-16" transform="translate(590.4 674.7) rotate(148.05)"><tspan x="0" y="0"> </tspan></text><text class="cls-16" transform="translate(586.83 676.93) rotate(148.96)"><tspan x="0" y="0"> </tspan></text><text class="cls-16" transform="translate(583.22 679.1) rotate(149.86)"><tspan x="0" y="0"> </tspan></text><text class="cls-16" transform="translate(579.61 681.19) rotate(150.75)"><tspan x="0" y="0"> </tspan></text><text class="cls-16" transform="translate(575.94 683.25) rotate(151.65)"><tspan x="0" y="0"> </tspan></text><text class="cls-16" transform="translate(572.24 685.24) rotate(152.55)"><tspan x="0" y="0"> </tspan></text><text class="cls-16" transform="translate(568.52 687.18) rotate(153.45)"><tspan x="0" y="0"> </tspan></text><text class="cls-16" transform="translate(564.76 689.05) rotate(154.34)"><tspan x="0" y="0"> </tspan></text><text class="cls-16" transform="translate(560.98 690.87) rotate(155.24)"><tspan x="0" y="0"> </tspan></text><text class="cls-16" transform="translate(557.18 692.63) rotate(156.13)"><tspan x="0" y="0"> </tspan></text><text class="cls-16" transform="translate(553.32 694.33) rotate(157.03)"><tspan x="0" y="0"> </tspan></text><text class="cls-16" transform="translate(549.52 696) rotate(158.62)"><tspan x="0" y="0">K</tspan></text><text class="cls-16" transform="translate(539.36 699.99) rotate(161.09)"><tspan x="0" y="0">A</tspan></text><text class="cls-16" transform="translate(527.88 703.9) rotate(163.42)"><tspan x="0" y="0">S</tspan></text><text class="cls-16" transform="translate(518.51 706.7) rotate(165.64)"><tspan x="0" y="0">V</tspan></text><text class="cls-16" transform="translate(507.85 709.46) rotate(168.17)"><tspan x="0" y="0">U</tspan></text><text class="cls-16" transform="translate(495.23 712.03) rotate(169.99)"><tspan x="0" y="0"> </tspan></text><text class="cls-16" transform="translate(491.1 712.76) rotate(170.88)"><tspan x="0" y="0"> </tspan></text><text class="cls-16" transform="translate(486.95 713.43) rotate(171.78)"><tspan x="0" y="0"> </tspan></text><text class="cls-16" transform="translate(482.8 714.03) rotate(172.67)"><tspan x="0" y="0"> </tspan></text><text class="cls-16" transform="translate(478.65 714.56) rotate(173.56)"><tspan x="0" y="0"> </tspan></text><text class="cls-16" transform="translate(474.45 715.04) rotate(174.47)"><tspan x="0" y="0"> </tspan></text><text class="cls-16" transform="translate(470.28 715.44) rotate(175.36)"><tspan x="0" y="0"> </tspan></text><text class="cls-16" transform="translate(466.11 715.78) rotate(176.26)"><tspan x="0" y="0"> </tspan></text><text class="cls-16" transform="translate(461.93 716.05) rotate(177.15)"><tspan x="0" y="0"> </tspan></text><text class="cls-16" transform="translate(457.74 716.26) rotate(178.05)"><tspan x="0" y="0"> </tspan></text><text class="cls-16" transform="translate(453.52 716.41) rotate(178.95)"><tspan x="0" y="0"> </tspan></text><text class="cls-16" transform="translate(449.34 716.48) rotate(179.85)"><tspan x="0" y="0"> </tspan></text><text class="cls-14" transform="translate(445.17 716.53) rotate(-178.65)"><tspan x="0" y="0">T</tspan></text><text class="cls-14" transform="translate(435.91 716.37) rotate(-176.25)"><tspan x="0" y="0">O</tspan></text><text class="cls-14" transform="translate(422.29 715.4) rotate(-174.28)"><tspan x="0" y="0">I</tspan></text><text class="cls-14" transform="translate(417.65 715.05) rotate(-172.06)"><tspan x="0" y="0">M</tspan></text><text class="cls-14" transform="translate(401.87 712.77) rotate(-169.3)"><tspan x="0" y="0">E</tspan></text><text class="cls-14" transform="translate(392.33 710.97) rotate(-167.21)"><tspan x="0" y="0">E</tspan></text><text class="cls-14" transform="translate(382.86 708.86) rotate(-164.77)"><tspan x="0" y="0">N</tspan></text><text class="cls-14" transform="translate(370.33 705.42) rotate(-162.33)"><tspan x="0" y="0">T</tspan></text><text class="cls-14" transform="translate(360.97 702.48) rotate(-159.91)"><tspan x="0" y="0">U</tspan></text><text class="cls-14" transform="translate(348.97 698.05) rotate(-157.56)"><tspan x="0" y="0">L</tspan></text><text class="cls-14" transform="translate(341.06 694.85) rotate(-155.3)"><tspan x="0" y="0">O</tspan></text><text class="cls-14" transform="translate(328.67 689.07) rotate(-153.45)"><tspan x="0" y="0"> </tspan><tspan x="4.22" y=".03"> </tspan></text><text class="cls-14" transform="translate(321.22 685.27) rotate(-151.6)"><tspan x="0" y="0"> </tspan></text><text class="cls-14" transform="translate(317.52 683.28) rotate(-150.79)"><tspan x="0" y="0"> </tspan></text><text class="cls-14" transform="translate(313.86 681.23) rotate(-149.91)"><tspan x="0" y="0"> </tspan></text><text class="cls-14" transform="translate(310.25 679.14) rotate(-149.03)"><tspan x="0" y="0"> </tspan></text><text class="cls-14" transform="translate(306.65 677.02) rotate(-147.55)"><tspan x="0" y="0">S</tspan></text><text class="cls-14" transform="translate(298.44 671.86) rotate(-145.07)"><tspan x="0" y="0">O</tspan></text><text class="cls-14" transform="translate(287.29 664.02) rotate(-142.58)"><tspan x="0" y="0">S</tspan></text><text class="cls-14" transform="translate(279.55 658.06) rotate(-141.02)"><tspan x="0" y="0">I</tspan></text><text class="cls-14" transform="translate(275.87 655.16) rotate(-139.22)"><tspan x="0" y="0">A</tspan></text><text class="cls-14" transform="translate(266.72 647.27) rotate(-136.62)"><tspan x="0" y="0">A</tspan></text><text class="cls-14" transform="translate(257.94 638.93) rotate(-134.31)"><tspan x="0" y="0">L</tspan></text><text class="cls-14" transform="translate(251.44 632.24) rotate(-132.81)"><tspan x="0" y="0">I</tspan></text><text class="cls-14" transform="translate(248.2 628.85) rotate(-130.9)"><tspan x="0" y="0">N</tspan></text><text class="cls-14" transform="translate(239.71 619) rotate(-128.46)"><tspan x="0" y="0">E</tspan></text><text class="cls-14" transform="translate(233.64 611.41) rotate(-126.02)"><tspan x="0" y="0">N</tspan></text><text class="cls-14" transform="translate(226.03 600.82) rotate(-124.18)"><tspan x="0" y="0"> </tspan></text><text class="cls-14" transform="translate(223.68 597.37) rotate(-123.28)"><tspan x="0" y="0"> </tspan></text><text class="cls-14" transform="translate(221.38 593.86) rotate(-122.39)"><tspan x="0" y="0"> </tspan></text><text class="cls-14" transform="translate(219.13 590.32) rotate(-121.49)"><tspan x="0" y="0"> </tspan></text><text class="cls-14" transform="translate(216.95 586.75) rotate(-120.59)"><tspan x="0" y="0"> </tspan></text><text class="cls-14" transform="translate(214.82 583.15) rotate(-119.7)"><tspan x="0" y="0"> </tspan></text><text class="cls-14" transform="translate(213.17 580.37) rotate(-118.31)"><tspan x="0" y="0">Y</tspan></text><text class="cls-14" transform="translate(208.15 571.1) rotate(-115.82)"><tspan x="0" y="0">H</tspan></text><text class="cls-14" transform="translate(202.55 559.47) rotate(-113.4)"><tspan x="0" y="0">T</tspan></text><text class="cls-14" transform="translate(198.66 550.49) rotate(-111.33)"><tspan x="0" y="0">E</tspan></text><text class="cls-14" transform="translate(195.14 541.39) rotate(-109.79)"><tspan x="0" y="0">I</tspan></text><text class="cls-14" transform="translate(193.52 536.99) rotate(-108.26)"><tspan x="0" y="0">S</tspan></text><text class="cls-14" transform="translate(190.43 527.77) rotate(-105.77)"><tspan x="0" y="0">Ö</tspan></text><text class="cls-14" transform="translate(186.77 514.63) rotate(-103.33)"><tspan x="0" y="0">L</tspan></text><text class="cls-14" transform="translate(184.62 505.57) rotate(-101.35)"><tspan x="0" y="0">L</tspan></text><text class="cls-14" transform="translate(182.8 496.39) rotate(-99.85)"><tspan x="0" y="0">I</tspan></text><text class="cls-14" transform="translate(181.94 491.81) rotate(-97.96)"><tspan x="0" y="0">N</tspan></text><text class="cls-14" transform="translate(180.17 478.9) rotate(-95.52)"><tspan x="0" y="0">E</tspan></text><text class="cls-14" transform="translate(179.2 469.27) rotate(-93.09)"><tspan x="0" y="0">N</tspan></text><text class="cls-14" transform="translate(178.56 456.21) rotate(-91.24)"><tspan x="0" y="0"> </tspan></text><text class="cls-16" transform="translate(178.47 452.03) rotate(-90.34)"><tspan x="0" y="0"> </tspan></text><text class="cls-16" transform="translate(178.44 447.85) rotate(-89.44)"><tspan x="0" y="0"> </tspan></text><text class="cls-16" transform="translate(178.48 443.65) rotate(-88.54)"><tspan x="0" y="0"> </tspan></text><text class="cls-16" transform="translate(178.59 439.44) rotate(-87.63)"><tspan x="0" y="0"> </tspan></text><text class="cls-16" transform="translate(178.76 435.25) rotate(-86.73)"><tspan x="0" y="0"> </tspan></text><text class="cls-16" transform="translate(179 431.07) rotate(-85.82)"><tspan x="0" y="0"> </tspan></text><text class="cls-16" transform="translate(179.31 426.88) rotate(-84.92)"><tspan x="0" y="0"> </tspan></text><text class="cls-16" transform="translate(179.63 422.73) rotate(-83.3)"><tspan x="0" y="0">K</tspan></text><text class="cls-16" transform="translate(180.85 412.08) rotate(-80.76)"><tspan x="0" y="0">U</tspan></text><text class="cls-16" transform="translate(182.95 399.42) rotate(-78.36)"><tspan x="0" y="0">L</tspan></text><text class="cls-16" transform="translate(184.45 391.97) rotate(-76.66)"><tspan x="0" y="0">T</tspan></text><text class="cls-16" transform="translate(186.9 381.68) rotate(-74.38)"><tspan x="0" y="0">T</tspan></text><text class="cls-16" transform="translate(189.51 372.21) rotate(-71.94)"><tspan x="0" y="0">U</tspan></text><text class="cls-16" transform="translate(193.48 360.04) rotate(-69.18)"><tspan x="0" y="0">U</tspan></text><text class="cls-16" transform="translate(198.06 348.05) rotate(-66.68)"><tspan x="0" y="0">R</tspan></text><text class="cls-16" transform="translate(202.34 338.23) rotate(-65.04)"><tspan x="0" y="0">I</tspan></text><text class="cls-16" transform="translate(204.33 333.95) rotate(-64.09)"><tspan x="0" y="0"> </tspan></text><text class="cls-16" transform="translate(206.17 330.18) rotate(-63.46)"><tspan x="0" y="0"> </tspan></text><text class="cls-16" transform="translate(208.02 326.45) rotate(-61.59)"><tspan x="0" y="0"> </tspan></text><text class="cls-16" transform="translate(210.01 322.71) rotate(-61.44)"><tspan x="0" y="0"> </tspan></text><text class="cls-16" transform="translate(212.01 319.03) rotate(-60.55)"><tspan x="0" y="0"> </tspan></text><text class="cls-16" transform="translate(214.08 315.37) rotate(-59.66)"><tspan x="0" y="0"> </tspan></text><text class="cls-16" transform="translate(216.19 311.75) rotate(-58.77)"><tspan x="0" y="0"> </tspan></text><text class="cls-16" transform="translate(218.37 308.15) rotate(-57.88)"><tspan x="0" y="0"> </tspan></text><text class="cls-16" transform="translate(220.52 304.61) rotate(-56.06)"><tspan x="0" y="0">U</tspan></text><text class="cls-16" transform="translate(227.7 293.98) rotate(-53.63)"><tspan x="0" y="0">S</tspan></text><text class="cls-16" transform="translate(233.48 286.12) rotate(-51.43)"><tspan x="0" y="0">K</tspan></text><text class="cls-16" transform="translate(239.91 277.98) rotate(-48.87)"><tspan x="0" y="0">O</tspan></text><text class="cls-16" transform="translate(248.85 267.69) rotate(-45.67)"><tspan x="0" y="0">M</tspan></text><text class="cls-16" transform="translate(260.01 256.32) rotate(-42.56)"><tspan x="0" y="0">U</tspan></text><text class="cls-16" transform="translate(269.48 247.65) rotate(-40.02)"><tspan x="0" y="0">K</tspan></text><text class="cls-16" transform="translate(277.69 240.76) rotate(-37.81)"><tspan x="0" y="0">S</tspan></text><text class="cls-16" transform="translate(285.41 234.77) rotate(-35.71)"><tspan x="0" y="0">E</tspan></text><text class="cls-16" transform="translate(293.58 228.9) rotate(-33.53)"><tspan x="0" y="0">T</tspan></text><text class="cls-16" transform="translate(301.83 223.47) rotate(-32.03)"><tspan x="0" y="0"> </tspan></text><text class="cls-16" transform="translate(305.38 221.25) rotate(-31.13)"><tspan x="0" y="0"> </tspan></text><text class="cls-16" transform="translate(308.98 219.08) rotate(-30.23)"><tspan x="0" y="0"> </tspan></text><text class="cls-16" transform="translate(312.6 216.97) rotate(-29.33)"><tspan x="0" y="0"> </tspan></text><text class="cls-16" transform="translate(316.26 214.91) rotate(-28.43)"><tspan x="0" y="0"> </tspan></text><text class="cls-16" transform="translate(319.95 212.91) rotate(-27.53)"><tspan x="0" y="0"> </tspan></text><text class="cls-16" transform="translate(323.62 210.95) rotate(-25.94)"><tspan x="0" y="0">K</tspan></text><text class="cls-16" transform="translate(332.93 206.37) rotate(-23.41)"><tspan x="0" y="0">O</tspan></text><text class="cls-16" transform="translate(345.47 200.98) rotate(-20.82)"><tspan x="0" y="0">K</tspan></text><text class="cls-16" transform="translate(355.53 197.16) rotate(-18.63)"><tspan x="0" y="0">E</tspan></text><text class="cls-16" transform="translate(364.69 193.99) rotate(-15.91)"><tspan x="0" y="0">M</tspan></text><text class="cls-16" transform="translate(380.04 189.65) rotate(-12.85)"><tspan x="0" y="0">U</tspan></text><text class="cls-16" transform="translate(392.56 186.82) rotate(-10.34)"><tspan x="0" y="0">K</tspan></text><text class="cls-16" transform="translate(403.11 184.9) rotate(-8.16)"><tspan x="0" y="0">S</tspan></text><text class="cls-16" transform="translate(412.76 183.51) rotate(-6.08)"><tspan x="0" y="0">E</tspan></text><text class="cls-16" transform="translate(422.79 182.45) rotate(-3.92)"><tspan x="0" y="0">T</tspan></text><circle class="cls-22" cx="449.67" cy="446.69" r="124.75"/><line class="cls-22" x1="448.06" y1="219.44" x2="450.16" y2="695.31"/><line class="cls-22" x1="687.05" y1="449.58" x2="211.17" y2="449.58"/><line class="cls-22" x1="511.3" y1="335.95" x2="566.09" y2="238.84"/><line class="cls-22" x1="333.08" y1="654.16" x2="387.86" y2="557.05"/><line class="cls-22" x1="248.7" y1="568.88" x2="345.26" y2="513.13"/><line class="cls-22" x1="556.13" y1="381.74" x2="652.69" y2="326"/><line class="cls-22" x1="510.82" y1="552.87" x2="566.56" y2="649.43"/><line class="cls-22" x1="328.14" y1="243.22" x2="383.89" y2="339.77"/><line class="cls-22" x1="245.36" y1="331.57" x2="341.92" y2="387.31"/><line class="cls-22" x1="559.47" y1="509.79" x2="656.03" y2="565.53"/><circle class="cls-23" cx="450.06" cy="447.96" r="209.59"/><circle class="cls-20" cx="449.03" cy="448.92" r="115"/><text class="cls-18" transform="translate(476.81 340.93) rotate(14.92)"><tspan x="0" y="0"> </tspan></text><text class="cls-18" transform="translate(480.13 341.82) rotate(16.72)"><tspan x="0" y="0"> </tspan></text><text class="cls-18" transform="translate(483.39 342.79) rotate(18.51)"><tspan x="0" y="0"> </tspan></text><text class="cls-18" transform="translate(486.58 343.72) rotate(22.31)"><tspan x="0" y="0">O</tspan></text><text class="cls-18" transform="translate(496.85 348) rotate(27.2)"><tspan x="0" y="0">L</tspan></text><text class="cls-18" transform="translate(503.05 351.07) rotate(31.74)"><tspan x="0" y="0">O</tspan></text><text class="cls-18" transform="translate(512.49 356.98) rotate(36.68)"><tspan x="0" y="0">S</tspan></text><text class="cls-18" transform="translate(518.87 361.65) rotate(41.43)"><tspan x="0" y="0">U</tspan></text><text class="cls-18" transform="translate(526.71 368.55) rotate(46.86)"><tspan x="0" y="0">H</tspan></text><text class="cls-18" transform="translate(533.87 376.26) rotate(51.64)"><tspan x="0" y="0">T</tspan></text><text class="cls-18" transform="translate(538.83 382.52) rotate(55.76)"><tspan x="0" y="0">E</tspan></text><text class="cls-18" transform="translate(543.29 389.06) rotate(59.88)"><tspan x="0" y="0">E</tspan></text><text class="cls-18" transform="translate(547.4 396.15) rotate(64.19)"><tspan x="0" y="0">T</tspan></text><text class="cls-18" transform="translate(550.85 403.41) rotate(67.16)"><tspan x="0" y="0"> </tspan></text><text class="cls-18" transform="translate(552.18 406.58) rotate(68.96)"><tspan x="0" y="0"> </tspan></text><text class="cls-18" transform="translate(553.41 409.76) rotate(70.75)"><tspan x="0" y="0"> </tspan></text><text class="cls-18" transform="translate(554.53 412.96) rotate(72.53)"><tspan x="0" y="0"> </tspan></text><text class="cls-18" transform="translate(555.55 416.21) rotate(74.32)"><tspan x="0" y="0"> </tspan></text><text class="cls-18" transform="translate(556.48 419.51) rotate(76.12)"><tspan x="0" y="0"> </tspan></text><text class="cls-18" transform="translate(557.3 422.8) rotate(77.9)"><tspan x="0" y="0"> </tspan></text><text class="cls-18" transform="translate(558.02 426.15) rotate(79.69)"><tspan x="0" y="0"> </tspan></text><text class="cls-18" transform="translate(558.63 429.5) rotate(81.47)"><tspan x="0" y="0"> </tspan></text><text class="cls-18" transform="translate(559.13 432.88) rotate(83.25)"><tspan x="0" y="0"> </tspan></text><text class="cls-18" transform="translate(559.53 436.26) rotate(85.02)"><tspan x="0" y="0"> </tspan></text><text class="cls-18" transform="translate(559.83 439.66) rotate(86.78)"><tspan x="0" y="0"> </tspan></text><text class="cls-18" transform="translate(560.02 443.07) rotate(88.54)"><tspan x="0" y="0"> </tspan></text><text class="cls-18" transform="translate(560.13 446.45) rotate(90.93)"><tspan x="0" y="0"> </tspan></text><text class="cls-18" transform="translate(560.1 449.88) rotate(92.02)"><tspan x="0" y="0"> </tspan></text><text class="cls-18" transform="translate(559.98 453.31) rotate(93.79)"><tspan x="0" y="0"> </tspan></text><text class="cls-18" transform="translate(559.76 456.71) rotate(95.55)"><tspan x="0" y="0"> </tspan></text><text class="cls-18" transform="translate(559.43 460.11) rotate(97.32)"><tspan x="0" y="0"> </tspan></text><text class="cls-18" transform="translate(559 463.47) rotate(99.09)"><tspan x="0" y="0"> </tspan></text><text class="cls-18" transform="translate(558.46 466.85) rotate(100.88)"><tspan x="0" y="0"> </tspan></text><text class="cls-18" transform="translate(557.81 470.19) rotate(102.66)"><tspan x="0" y="0"> </tspan></text><text class="cls-18" transform="translate(557.07 473.52) rotate(104.45)"><tspan x="0" y="0"> </tspan></text><text class="cls-18" transform="translate(556.21 476.85) rotate(106.26)"><tspan x="0" y="0"> </tspan></text><text class="cls-18" transform="translate(555.27 480.1) rotate(108.03)"><tspan x="0" y="0"> </tspan></text><text class="cls-18" transform="translate(554.21 483.35) rotate(109.82)"><tspan x="0" y="0"> </tspan></text><text class="cls-18" transform="translate(553.05 486.57) rotate(111.62)"><tspan x="0" y="0"> </tspan></text><text class="cls-18" transform="translate(552.12 489.16) rotate(114.56)"><tspan x="0" y="0">V</tspan></text><text class="cls-18" transform="translate(548.45 497.34) rotate(119.8)"><tspan x="0" y="0">O</tspan></text><text class="cls-18" transform="translate(542.8 506.98) rotate(123.69)"><tspan x="0" y="0">I</tspan></text><text class="cls-18" transform="translate(540.87 510.19) rotate(128.04)"><tspan x="0" y="0">M</tspan></text><text class="cls-18" transform="translate(532.92 520.26) rotate(133.87)"><tspan x="0" y="0">A</tspan></text><text class="cls-18" transform="translate(526.69 526.78) rotate(138.3)"><tspan x="0" y="0">V</tspan></text><text class="cls-18" transform="translate(520.73 532.17) rotate(142.69)"><tspan x="0" y="0">A</tspan></text><text class="cls-18" transform="translate(512.86 538.15) rotate(147.51)"><tspan x="0" y="0">R</tspan></text><text class="cls-18" transform="translate(505.51 542.87) rotate(152.38)"><tspan x="0" y="0">A</tspan></text><text class="cls-18" transform="translate(497.87 546.88) rotate(156.39)"><tspan x="0" y="0">T</tspan></text><text class="cls-18" transform="translate(490.47 550.06) rotate(159.38)"><tspan x="0" y="0"> </tspan></text><text class="cls-18" transform="translate(487.28 551.26) rotate(161.17)"><tspan x="0" y="0"> </tspan></text><text class="cls-18" transform="translate(484.04 552.36) rotate(162.97)"><tspan x="0" y="0"> </tspan></text><text class="cls-18" transform="translate(480.8 553.36) rotate(164.75)"><tspan x="0" y="0"> </tspan></text><text class="cls-18" transform="translate(477.5 554.26) rotate(166.54)"><tspan x="0" y="0"> </tspan></text><text class="cls-18" transform="translate(474.2 555.05) rotate(168.32)"><tspan x="0" y="0"> </tspan></text><text class="cls-18" transform="translate(470.84 555.75) rotate(170.12)"><tspan x="0" y="0"> </tspan></text><text class="cls-18" transform="translate(467.48 556.33) rotate(171.9)"><tspan x="0" y="0"> </tspan></text><text class="cls-18" transform="translate(464.11 556.81) rotate(173.67)"><tspan x="0" y="0"> </tspan></text><text class="cls-18" transform="translate(460.71 557.19) rotate(175.44)"><tspan x="0" y="0"> </tspan></text><text class="cls-18" transform="translate(457.32 557.46) rotate(177.2)"><tspan x="0" y="0"> </tspan></text><text class="cls-18" transform="translate(453.9 557.63) rotate(178.96)"><tspan x="0" y="0"> </tspan></text><text class="cls-18" transform="translate(450.52 557.7) rotate(-179.07)"><tspan x="0" y="0"> </tspan></text><text class="cls-18" transform="translate(447.07 557.66) rotate(-177.55)"><tspan x="0" y="0"> </tspan></text><text class="cls-18" transform="translate(443.67 557.51) rotate(-175.8)"><tspan x="0" y="0"> </tspan></text><text class="cls-18" transform="translate(440.27 557.26) rotate(-174.03)"><tspan x="0" y="0"> </tspan></text><text class="cls-18" transform="translate(436.89 556.91) rotate(-172.26)"><tspan x="0" y="0"> </tspan></text><text class="cls-18" transform="translate(433.5 556.45) rotate(-170.48)"><tspan x="0" y="0"> </tspan></text><text class="cls-18" transform="translate(430.14 555.89) rotate(-168.69)"><tspan x="0" y="0"> </tspan></text><text class="cls-18" transform="translate(426.8 555.22) rotate(-166.91)"><tspan x="0" y="0"> </tspan></text><text class="cls-18" transform="translate(423.46 554.45) rotate(-165.11)"><tspan x="0" y="0"> </tspan></text><text class="cls-18" transform="translate(420.16 553.57) rotate(-163.32)"><tspan x="0" y="0"> </tspan></text><text class="cls-18" transform="translate(416.91 552.6) rotate(-161.54)"><tspan x="0" y="0"> </tspan></text><text class="cls-18" transform="translate(413.67 551.52) rotate(-159.75)"><tspan x="0" y="0"> </tspan></text><text class="cls-18" transform="translate(410.46 550.34) rotate(-157.95)"><tspan x="0" y="0"> </tspan></text><text class="cls-18" transform="translate(407.31 549.06) rotate(-156.17)"><tspan x="0" y="0"> </tspan></text><text class="cls-18" transform="translate(404.87 548.08) rotate(-153.38)"><tspan x="0" y="0">Y</tspan></text><text class="cls-18" transform="translate(397.24 544.4) rotate(-147.83)"><tspan x="0" y="0">M</tspan></text><text class="cls-18" transform="translate(386.28 537.39) rotate(-142.24)"><tspan x="0" y="0">P</tspan></text><text class="cls-18" transform="translate(380.53 533.04) rotate(-138.17)"><tspan x="0" y="0">Ä</tspan></text><text class="cls-18" transform="translate(373.19 526.44) rotate(-133.38)"><tspan x="0" y="0">R</tspan></text><text class="cls-18" transform="translate(367.25 520.06) rotate(-130.14)"><tspan x="0" y="0">I</tspan></text><text class="cls-18" transform="translate(364.76 517.2) rotate(-127.09)"><tspan x="0" y="0">S</tspan></text><text class="cls-18" transform="translate(359.96 510.87) rotate(-122.94)"><tspan x="0" y="0">T</tspan></text><text class="cls-18" transform="translate(355.79 504.61) rotate(-118.21)"><tspan x="0" y="0">Ö</tspan></text><text class="cls-18" transform="translate(350.62 494.7) rotate(-114.42)"><tspan x="0" y="0"> </tspan></text><text class="cls-18" transform="translate(349.21 491.59) rotate(-112.63)"><tspan x="0" y="0"> </tspan></text><text class="cls-18" transform="translate(347.89 488.44) rotate(-110.84)"><tspan x="0" y="0"> </tspan></text><text class="cls-18" transform="translate(346.67 485.25) rotate(-109.05)"><tspan x="0" y="0"> </tspan></text><text class="cls-18" transform="translate(345.56 482.02) rotate(-107.26)"><tspan x="0" y="0"> </tspan></text><text class="cls-18" transform="translate(344.55 478.79) rotate(-105.48)"><tspan x="0" y="0"> </tspan></text><text class="cls-18" transform="translate(343.64 475.49) rotate(-103.68)"><tspan x="0" y="0"> </tspan></text><text class="cls-18" transform="translate(342.83 472.17) rotate(-101.89)"><tspan x="0" y="0"> </tspan></text><text class="cls-18" transform="translate(342.12 468.83) rotate(-100.11)"><tspan x="0" y="0"> </tspan></text><text class="cls-18" transform="translate(341.52 465.48) rotate(-98.33)"><tspan x="0" y="0"> </tspan></text><text class="cls-18" transform="translate(341.03 462.09) rotate(-96.54)"><tspan x="0" y="0"> </tspan></text><text class="cls-18" transform="translate(340.64 458.72) rotate(-94.78)"><tspan x="0" y="0"> </tspan></text><text class="cls-18" transform="translate(340.35 455.31) rotate(-93.02)"><tspan x="0" y="0"> </tspan></text><text class="cls-18" transform="translate(340.17 451.92) rotate(-91.27)"><tspan x="0" y="0"> </tspan></text><text class="cls-18" transform="translate(340.08 448.52) rotate(-89.07)"><tspan x="0" y="0"> </tspan></text><text class="cls-18" transform="translate(340.12 445.09) rotate(-87.78)"><tspan x="0" y="0"> </tspan></text><text class="cls-18" transform="translate(340.25 441.66) rotate(-86.01)"><tspan x="0" y="0"> </tspan></text><text class="cls-18" transform="translate(340.49 438.26) rotate(-84.25)"><tspan x="0" y="0"> </tspan></text><text class="cls-18" transform="translate(340.83 434.89) rotate(-82.49)"><tspan x="0" y="0"> </tspan></text><text class="cls-18" transform="translate(341.27 431.51) rotate(-80.7)"><tspan x="0" y="0"> </tspan></text><text class="cls-18" transform="translate(341.83 428.11) rotate(-78.91)"><tspan x="0" y="0"> </tspan></text><text class="cls-18" transform="translate(342.48 424.8) rotate(-77.14)"><tspan x="0" y="0"> </tspan></text><text class="cls-18" transform="translate(343.24 421.45) rotate(-75.34)"><tspan x="0" y="0"> </tspan></text><text class="cls-18" transform="translate(344.1 418.15) rotate(-73.54)"><tspan x="0" y="0"> </tspan></text><text class="cls-18" transform="translate(345.06 414.88) rotate(-71.76)"><tspan x="0" y="0"> </tspan></text><text class="cls-18" transform="translate(346.06 411.69) rotate(-68.88)"><tspan x="0" y="0">L</tspan></text><text class="cls-18" transform="translate(348.75 404.58) rotate(-64.29)"><tspan x="0" y="0">Ä</tspan></text><text class="cls-18" transform="translate(352.98 395.72) rotate(-59)"><tspan x="0" y="0">H</tspan></text><text class="cls-18" transform="translate(358.45 386.71) rotate(-54.18)"><tspan x="0" y="0">T</tspan></text><text class="cls-18" transform="translate(362.78 380.55) rotate(-49.46)"><tspan x="0" y="0">Ö</tspan></text><text class="cls-18" transform="translate(370.04 372.13) rotate(-44.34)"><tspan x="0" y="0">K</tspan></text><text class="cls-18" transform="translate(376.03 366.17) rotate(-39.34)"><tspan x="0" y="0">O</tspan></text><text class="cls-18" transform="translate(384.61 359.13) rotate(-33.74)"><tspan x="0" y="0">H</tspan></text><text class="cls-18" transform="translate(393.31 353.3) rotate(-28.23)"><tspan x="0" y="0">D</tspan></text><text class="cls-18" transform="translate(402.58 348.32) rotate(-22.96)"><tspan x="0" y="0">A</tspan></text><text class="cls-18" transform="translate(410.51 344.94) rotate(-18.94)"><tspan x="0" y="0">T</tspan></text><text class="cls-17" transform="translate(464.34 244.8) rotate(4.24) skewX(.03)"><tspan x="0" y="0"> </tspan></text><text class="cls-17" transform="translate(467.99 245.07) rotate(5.27) skewX(.03)"><tspan x="0" y="0"> </tspan></text><text class="cls-17" transform="translate(471.64 245.4) rotate(6.31) skewX(.03)"><tspan x="0" y="0"> </tspan></text><text class="cls-17" transform="translate(475.25 245.8) rotate(7.34) skewX(.03)"><tspan x="0" y="0"> </tspan></text><text class="cls-17" transform="translate(478.9 246.27) rotate(8.38) skewX(.03)"><tspan x="0" y="0"> </tspan></text><text class="cls-17" transform="translate(482.5 246.8) rotate(9.41) skewX(.03)"><tspan x="0" y="0"> </tspan></text><text class="cls-17" transform="translate(486.1 247.39) rotate(10.51) skewX(.04)"><tspan x="0" y="0">I</tspan></text><text class="cls-17" transform="translate(490.12 248.09) rotate(12.41) skewX(.04)"><tspan x="0" y="0">K</tspan></text><text class="cls-17" transform="translate(499.39 250.12) rotate(15.28) skewX(.04)"><tspan x="0" y="0">Ä</tspan></text><text class="cls-17" transform="translate(509.59 252.97) rotate(17.29) skewX(.04)"><tspan x="0" y="0"> </tspan></text><text class="cls-17" transform="translate(513.09 254.06) rotate(18.32) skewX(.04)"><tspan x="0" y="0"> </tspan></text><text class="cls-17" transform="translate(516.54 255.2) rotate(19.35) skewX(.04)"><tspan x="0" y="0"> </tspan></text><text class="cls-17" transform="translate(519.98 256.41) rotate(20.38) skewX(.04)"><tspan x="0" y="0"> </tspan></text><text class="cls-17" transform="translate(523.41 257.68) rotate(21.42) skewX(.05)"><tspan x="0" y="0"> </tspan></text><text class="cls-17" transform="translate(526.82 259.02) rotate(22.45) skewX(.05)"><tspan x="0" y="0"> </tspan></text><text class="cls-17" transform="translate(530.18 260.41) rotate(23.47) skewX(.05)"><tspan x="0" y="0"> </tspan></text><text class="cls-17" transform="translate(533.53 261.86) rotate(24.5) skewX(.05)"><tspan x="0" y="0"> </tspan></text><text class="cls-17" transform="translate(536.86 263.38) rotate(25.52) skewX(.05)"><tspan x="0" y="0"> </tspan></text><text class="cls-17" transform="translate(540.14 264.94) rotate(26.54) skewX(.05)"><tspan x="0" y="0"> </tspan></text><text class="cls-17" transform="translate(543.44 266.59) rotate(27.57) skewX(.05)"><tspan x="0" y="0"> </tspan></text><text class="cls-17" transform="translate(546.66 268.27) rotate(28.58) skewX(.05)"><tspan x="0" y="0"> </tspan></text><text class="cls-17" transform="translate(549.87 270.02) rotate(29.59) skewX(.05)"><tspan x="0" y="0"> </tspan></text><text class="cls-17" transform="translate(553.04 271.82) rotate(30.59) skewX(.05)"><tspan x="0" y="0"> </tspan></text><text class="cls-17" transform="translate(556.17 273.63) rotate(32.44) skewX(.05)"><tspan x="0" y="0"> </tspan></text><text class="cls-17" transform="translate(559.3 275.59) rotate(32.61) skewX(.05)"><tspan x="0" y="0"> </tspan></text><text class="cls-17" transform="translate(562.37 277.56) rotate(33.62) skewX(.05)"><tspan x="0" y="0"> </tspan></text><text class="cls-17" transform="translate(565.43 279.59) rotate(34.64) skewX(.05)"><tspan x="0" y="0"> </tspan></text><text class="cls-17" transform="translate(567.84 281.21) rotate(36.14) skewX(.05)"><tspan x="0" y="0">T</tspan></text><text class="cls-17" transform="translate(574.75 286.25) rotate(38.52) skewX(.05)"><tspan x="0" y="0">E</tspan></text><text class="cls-17" transform="translate(581.39 291.52) rotate(41.02) skewX(.05)"><tspan x="0" y="0">R</tspan></text><text class="cls-17" transform="translate(588.61 297.79) rotate(43.77) skewX(.04)"><tspan x="0" y="0">V</tspan></text><text class="cls-17" transform="translate(595.54 304.45) rotate(46.32) skewX(.04)"><tspan x="0" y="0">E</tspan></text><text class="cls-17" transform="translate(601.43 310.6) rotate(48.85) skewX(.04)"><tspan x="0" y="0">Y</tspan></text><text class="cls-17" transform="translate(607.42 317.46) rotate(51.31) skewX(.04)"><tspan x="0" y="0">S</tspan></text><text class="cls-17" transform="translate(612.73 324.15) rotate(53.03) skewX(.04)"><tspan x="0" y="0"> </tspan></text><text class="cls-17" transform="translate(614.93 327.06) rotate(54.06) skewX(.03)"><tspan x="0" y="0"> </tspan></text><text class="cls-17" transform="translate(617.06 330.01) rotate(55.09) skewX(.03)"><tspan x="0" y="0"> </tspan></text><text class="cls-17" transform="translate(619.16 333.01) rotate(56.12) skewX(.03)"><tspan x="0" y="0"> </tspan></text><text class="cls-17" transform="translate(621.19 336.04) rotate(57.15) skewX(.03)"><tspan x="0" y="0"> </tspan></text><text class="cls-17" transform="translate(623.18 339.12) rotate(58.19) skewX(.03)"><tspan x="0" y="0"> </tspan></text><text class="cls-17" transform="translate(625.11 342.23) rotate(59.22) skewX(.03)"><tspan x="0" y="0"> </tspan></text><text class="cls-17" transform="translate(626.63 344.7) rotate(60.74) skewX(.03)"><tspan x="0" y="0">T</tspan></text><text class="cls-17" transform="translate(630.63 351.72) rotate(63.48) skewX(.02)"><tspan x="0" y="0">O</tspan></text><text class="cls-17" transform="translate(635.89 362.44) rotate(65.73) skewX(.02)"><tspan x="0" y="0">I</tspan></text><text class="cls-17" transform="translate(637.65 366.07) rotate(68.24) skewX(.01)"><tspan x="0" y="0">M</tspan></text><text class="cls-17" transform="translate(642.72 379.06) rotate(70.76)"><tspan x="0" y="0">I</tspan></text><text class="cls-17" transform="translate(644.13 382.86) rotate(72.92)"><tspan x="0" y="0">N</tspan></text><text class="cls-17" transform="translate(647.44 393.74) rotate(75.7)"><tspan x="0" y="0">T</tspan></text><text class="cls-17" transform="translate(649.28 400.77) rotate(78.01)"><tspan x="0" y="0">A</tspan></text><text class="cls-17" transform="translate(651.46 411.08) rotate(80.79)"><tspan x="0" y="0">K</tspan></text><text class="cls-17" transform="translate(652.94 420.18) rotate(83.36) skewX(-.01)"><tspan x="0" y="0">Y</tspan></text><text class="cls-17" transform="translate(654.01 429.32) rotate(85.95) skewX(-.02)"><tspan x="0" y="0">K</tspan></text><text class="cls-17" transform="translate(654.67 438.53) rotate(88.54) skewX(-.02)"><tspan x="0" y="0">Y</tspan></text><text class="cls-17" transform="translate(654.86 447.88) rotate(90.36) skewX(-.02)"><tspan x="0" y="0"> </tspan></text><text class="cls-17" transform="translate(654.84 451.56) rotate(91.4) skewX(-.02)"><tspan x="0" y="0"> </tspan></text><text class="cls-17" transform="translate(654.75 455.21) rotate(92.43) skewX(-.03)"><tspan x="0" y="0"> </tspan></text><text class="cls-17" transform="translate(654.6 458.86) rotate(93.46) skewX(-.03)"><tspan x="0" y="0"> </tspan></text><text class="cls-17" transform="translate(654.38 462.51) rotate(94.49) skewX(-.03)"><tspan x="0" y="0"> </tspan></text><text class="cls-17" transform="translate(654.09 466.12) rotate(95.52) skewX(-.03)"><tspan x="0" y="0"> </tspan></text><text class="cls-17" transform="translate(653.74 469.77) rotate(96.55) skewX(-.03)"><tspan x="0" y="0"> </tspan></text><text class="cls-17" transform="translate(653.32 473.42) rotate(97.59) skewX(-.03)"><tspan x="0" y="0"> </tspan></text><text class="cls-17" transform="translate(652.98 476.28) rotate(99.12) skewX(-.03)"><tspan x="0" y="0">T</tspan></text><text class="cls-17" transform="translate(651.88 483.46) rotate(101.47) skewX(-.04)"><tspan x="0" y="0">A</tspan></text><text class="cls-17" transform="translate(649.72 493.83) rotate(103.55) skewX(-.04)"><tspan x="0" y="0">I</tspan></text><text class="cls-17" transform="translate(648.84 497.8) rotate(105.76) skewX(-.04)"><tspan x="0" y="0">D</tspan></text><text class="cls-17" transform="translate(645.73 508.85) rotate(109.08) skewX(-.04)"><tspan x="0" y="0">O</tspan></text><text class="cls-17" transform="translate(641.96 519.68) rotate(111.85) skewX(-.05)"><tspan x="0" y="0">T</tspan></text><text class="cls-17" transform="translate(638.73 527.64) rotate(113.58) skewX(-.05)"><tspan x="0" y="0"> </tspan></text><text class="cls-17" transform="translate(637.27 530.99) rotate(114.61) skewX(-.05)"><tspan x="0" y="0"> </tspan></text><text class="cls-17" transform="translate(635.74 534.31) rotate(115.64) skewX(-.05)"><tspan x="0" y="0"> </tspan></text><text class="cls-17" transform="translate(634.16 537.62) rotate(116.67) skewX(-.05)"><tspan x="0" y="0"> </tspan></text><text class="cls-17" transform="translate(632.52 540.87) rotate(117.69) skewX(-.05)"><tspan x="0" y="0"> </tspan></text><text class="cls-17" transform="translate(630.83 544.11) rotate(118.71) skewX(-.05)"><tspan x="0" y="0"> </tspan></text><text class="cls-17" transform="translate(629.07 547.31) rotate(119.73) skewX(-.05)"><tspan x="0" y="0"> </tspan></text><text class="cls-17" transform="translate(627.25 550.49) rotate(120.54) skewX(-.05)"><tspan x="0" y="0"> </tspan></text><text class="cls-17" transform="translate(625.43 553.61) rotate(122.4) skewX(-.05)"><tspan x="0" y="0"> </tspan></text><text class="cls-17" transform="translate(623.47 556.73) rotate(122.76) skewX(-.05)"><tspan x="0" y="0"> </tspan></text><text class="cls-17" transform="translate(621.51 559.79) rotate(123.77) skewX(-.05)"><tspan x="0" y="0"> </tspan></text><text class="cls-17" transform="translate(619.47 562.83) rotate(124.8) skewX(-.05)"><tspan x="0" y="0"> </tspan></text><text class="cls-17" transform="translate(617.39 565.83) rotate(125.82) skewX(-.05)"><tspan x="0" y="0"> </tspan></text><text class="cls-17" transform="translate(615.72 568.22) rotate(127.33) skewX(-.05)"><tspan x="0" y="0">T</tspan></text><text class="cls-17" transform="translate(610.48 575.03) rotate(129.12) skewX(-.05)"><tspan x="0" y="0">I</tspan></text><text class="cls-17" transform="translate(607.92 578.23) rotate(130.9) skewX(-.05)"><tspan x="0" y="0">E</tspan></text><text class="cls-17" transform="translate(602.43 584.63) rotate(133.73) skewX(-.04)"><tspan x="0" y="0">D</tspan></text><text class="cls-17" transform="translate(594.5 592.94) rotate(137.05) skewX(-.04)"><tspan x="0" y="0">O</tspan></text><text class="cls-17" transform="translate(586.1 600.73) rotate(139.83) skewX(-.04)"><tspan x="0" y="0">T</tspan></text><text class="cls-17" transform="translate(579.5 606.25) rotate(141.57) skewX(-.04)"><tspan x="0" y="0"> </tspan></text><text class="cls-17" transform="translate(576.64 608.52) rotate(142.61) skewX(-.04)"><tspan x="0" y="0"> </tspan></text><text class="cls-17" transform="translate(573.75 610.73) rotate(143.64) skewX(-.03)"><tspan x="0" y="0"> </tspan></text><text class="cls-17" transform="translate(570.82 612.89) rotate(144.68) skewX(-.03)"><tspan x="0" y="0"> </tspan></text><text class="cls-17" transform="translate(567.82 615.01) rotate(145.72) skewX(-.03)"><tspan x="0" y="0"> </tspan></text><text class="cls-17" transform="translate(564.83 617.05) rotate(146.75) skewX(-.03)"><tspan x="0" y="0"> </tspan></text><text class="cls-17" transform="translate(561.76 619.06) rotate(147.79) skewX(-.03)"><tspan x="0" y="0"> </tspan></text><text class="cls-17" transform="translate(558.67 621.01) rotate(148.82) skewX(-.03)"><tspan x="0" y="0"> </tspan></text><text class="cls-17" transform="translate(555.55 622.9) rotate(149.86) skewX(-.03)"><tspan x="0" y="0"> </tspan></text><text class="cls-17" transform="translate(552.39 624.73) rotate(150.89) skewX(-.03)"><tspan x="0" y="0"> </tspan></text><text class="cls-17" transform="translate(549.21 626.51) rotate(151.92) skewX(-.02)"><tspan x="0" y="0"> </tspan></text><text class="cls-17" transform="translate(545.99 628.22) rotate(152.95) skewX(-.02)"><tspan x="0" y="0"> </tspan></text><text class="cls-17" transform="translate(542.72 629.89) rotate(153.98) skewX(-.02)"><tspan x="0" y="0"> </tspan></text><text class="cls-17" transform="translate(539.45 631.49) rotate(155.01) skewX(-.02)"><tspan x="0" y="0"> </tspan></text><text class="cls-17" transform="translate(536.16 633.02) rotate(156.03) skewX(-.02)"><tspan x="0" y="0"> </tspan></text><text class="cls-17" transform="translate(532.81 634.52) rotate(157.07) skewX(-.02)"><tspan x="0" y="0"> </tspan></text><text class="cls-17" transform="translate(529.45 635.94) rotate(158.09) skewX(-.01)"><tspan x="0" y="0"> </tspan></text><text class="cls-17" transform="translate(526.1 637.34) rotate(159.92) skewX(-.01)"><tspan x="0" y="0">K</tspan></text><text class="cls-17" transform="translate(517.46 640.5) rotate(162.5)"><tspan x="0" y="0">Y</tspan></text><text class="cls-17" transform="translate(508.1 643.44) rotate(165.29)"><tspan x="0" y="0">V</tspan></text><text class="cls-17" transform="translate(498.81 645.88) rotate(167.94)"><tspan x="0" y="0">Y</tspan></text><text class="cls-17" transform="translate(489.11 647.94) rotate(170.61)"><tspan x="0" y="0">T</tspan></text><text class="cls-17" transform="translate(480.62 649.3) rotate(172.32)"><tspan x="0" y="0"> </tspan></text><text class="cls-17" transform="translate(476.99 649.79) rotate(173.35) skewX(.01)"><tspan x="0" y="0"> </tspan></text><text class="cls-17" transform="translate(473.39 650.21) rotate(174.37) skewX(.01)"><tspan x="0" y="0"> </tspan></text><text class="cls-17" transform="translate(469.74 650.58) rotate(175.4) skewX(.01)"><tspan x="0" y="0"> </tspan></text><text class="cls-17" transform="translate(466.12 650.87) rotate(176.42) skewX(.02)"><tspan x="0" y="0"> </tspan></text><text class="cls-17" transform="translate(462.45 651.1) rotate(177.45) skewX(.02)"><tspan x="0" y="0"> </tspan></text><text class="cls-17" transform="translate(458.82 651.26) rotate(178.47) skewX(.02)"><tspan x="0" y="0"> </tspan></text><text class="cls-17" transform="translate(455.18 651.36) rotate(179.5) skewX(.02)"><tspan x="0" y="0"> </tspan></text><text class="cls-17" transform="translate(451.5 651.39) rotate(-179.47) skewX(.02)"><tspan x="0" y="0"> </tspan></text><text class="cls-17" transform="translate(447.85 651.36) rotate(-178.44) skewX(.02)"><tspan x="0" y="0"> </tspan></text><text class="cls-17" transform="translate(444.2 651.26) rotate(-177.41) skewX(.03)"><tspan x="0" y="0"> </tspan></text><text class="cls-17" transform="translate(440.56 651.09) rotate(-176.38) skewX(.03)"><tspan x="0" y="0"> </tspan></text><text class="cls-17" transform="translate(436.92 650.86) rotate(-175.35) skewX(.03)"><tspan x="0" y="0"> </tspan></text><text class="cls-17" transform="translate(433.29 650.57) rotate(-174.32) skewX(.03)"><tspan x="0" y="0"> </tspan></text><text class="cls-17" transform="translate(429.64 650.21) rotate(-173.29) skewX(.03)"><tspan x="0" y="0"> </tspan></text><text class="cls-17" transform="translate(426.04 649.78) rotate(-172.26) skewX(.03)"><tspan x="0" y="0"> </tspan></text><text class="cls-17" transform="translate(422.41 649.29) rotate(-171.22) skewX(.03)"><tspan x="0" y="0"> </tspan></text><text class="cls-17" transform="translate(418.79 648.73) rotate(-170.19) skewX(.04)"><tspan x="0" y="0"> </tspan></text><text class="cls-17" transform="translate(415.92 648.28) rotate(-168.66) skewX(.04)"><tspan x="0" y="0">T</tspan></text><text class="cls-17" transform="translate(407.08 646.51) rotate(-165.99) skewX(.04)"><tspan x="0" y="0">Y</tspan></text><text class="cls-17" transform="translate(398.63 644.45) rotate(-163.17) skewX(.04)"><tspan x="0" y="0">Ö</tspan></text><text class="cls-17" transform="translate(387.25 640.93) rotate(-160.97) skewX(.04)"><tspan x="0" y="0"> </tspan></text><text class="cls-17" transform="translate(383.79 639.73) rotate(-159.94) skewX(.04)"><tspan x="0" y="0"> </tspan></text><text class="cls-17" transform="translate(380.36 638.48) rotate(-158.9) skewX(.05)"><tspan x="0" y="0"> </tspan></text><text class="cls-17" transform="translate(376.96 637.17) rotate(-157.88) skewX(.05)"><tspan x="0" y="0"> </tspan></text><text class="cls-17" transform="translate(373.56 635.79) rotate(-156.84) skewX(.05)"><tspan x="0" y="0"> </tspan></text><text class="cls-17" transform="translate(370.21 634.36) rotate(-155.82) skewX(.05)"><tspan x="0" y="0"> </tspan></text><text class="cls-17" transform="translate(366.87 632.86) rotate(-154.79) skewX(.05)"><tspan x="0" y="0"> </tspan></text><text class="cls-17" transform="translate(363.59 631.31) rotate(-153.78) skewX(.05)"><tspan x="0" y="0"> </tspan></text><text class="cls-17" transform="translate(360.29 629.69) rotate(-152.75) skewX(.05)"><tspan x="0" y="0"> </tspan></text><text class="cls-17" transform="translate(357.05 628.02) rotate(-151.74) skewX(.05)"><tspan x="0" y="0"> </tspan></text><text class="cls-17" transform="translate(353.84 626.3) rotate(-150.72) skewX(.05)"><tspan x="0" y="0"> </tspan></text><text class="cls-17" transform="translate(350.65 624.51) rotate(-149.71) skewX(.05)"><tspan x="0" y="0"> </tspan></text><text class="cls-17" transform="translate(347.52 622.66) rotate(-149.41) skewX(.05)"><tspan x="0" y="0"> </tspan></text><text class="cls-17" transform="translate(344.38 620.78) rotate(-147.56) skewX(.05)"><tspan x="0" y="0"> </tspan></text><text class="cls-17" transform="translate(341.3 618.83) rotate(-146.7) skewX(.05)"><tspan x="0" y="0"> </tspan></text><text class="cls-17" transform="translate(338.23 616.81) rotate(-145.68) skewX(.05)"><tspan x="0" y="0"> </tspan></text><text class="cls-17" transform="translate(335.2 614.75) rotate(-144.66) skewX(.05)"><tspan x="0" y="0"> </tspan></text><text class="cls-17" transform="translate(332.23 612.64) rotate(-143.64) skewX(.05)"><tspan x="0" y="0"> </tspan></text><text class="cls-17" transform="translate(329.3 610.48) rotate(-142.63) skewX(.05)"><tspan x="0" y="0"> </tspan></text><text class="cls-17" transform="translate(326.39 608.26) rotate(-141.6) skewX(.05)"><tspan x="0" y="0"> </tspan></text><text class="cls-17" transform="translate(323.53 605.99) rotate(-140.58) skewX(.05)"><tspan x="0" y="0"> </tspan></text><text class="cls-17" transform="translate(320.7 603.73) rotate(-138.74) skewX(.05)"><tspan x="0" y="0">K</tspan></text><text class="cls-17" transform="translate(313.89 597.81) rotate(-135.84) skewX(.04)"><tspan x="0" y="0">O</tspan></text><text class="cls-17" transform="translate(305.68 589.8) rotate(-133.07) skewX(.04)"><tspan x="0" y="0">T</tspan></text><text class="cls-17" transform="translate(299.83 583.49) rotate(-131.27) skewX(.04)"><tspan x="0" y="0">I</tspan></text><text class="cls-17" transform="translate(297.12 580.4) rotate(-130.17) skewX(.04)"><tspan x="0" y="0"> </tspan></text><text class="cls-17" transform="translate(294.75 577.6) rotate(-129.14) skewX(.04)"><tspan x="0" y="0"> </tspan></text><text class="cls-17" transform="translate(292.47 574.79) rotate(-128.11) skewX(.04)"><tspan x="0" y="0"> </tspan></text><text class="cls-17" transform="translate(290.21 571.92) rotate(-127.08) skewX(.04)"><tspan x="0" y="0"> </tspan></text><text class="cls-17" transform="translate(288.01 569.01) rotate(-126.05) skewX(.03)"><tspan x="0" y="0"> </tspan></text><text class="cls-17" transform="translate(285.84 566.03) rotate(-125.01) skewX(.03)"><tspan x="0" y="0"> </tspan></text><text class="cls-17" transform="translate(283.76 563.05) rotate(-123.98) skewX(.03)"><tspan x="0" y="0"> </tspan></text><text class="cls-17" transform="translate(281.71 560.01) rotate(-122.94) skewX(.03)"><tspan x="0" y="0"> </tspan></text><text class="cls-17" transform="translate(279.73 556.97) rotate(-121.92) skewX(.03)"><tspan x="0" y="0"> </tspan></text><text class="cls-17" transform="translate(277.8 553.86) rotate(-120.89) skewX(.03)"><tspan x="0" y="0"> </tspan></text><text class="cls-17" transform="translate(275.92 550.72) rotate(-119.86) skewX(.03)"><tspan x="0" y="0"> </tspan></text><text class="cls-17" transform="translate(274.1 547.55) rotate(-118.83) skewX(.02)"><tspan x="0" y="0"> </tspan></text><text class="cls-17" transform="translate(272.34 544.36) rotate(-117.81) skewX(.02)"><tspan x="0" y="0"> </tspan></text><text class="cls-17" transform="translate(270.89 541.73) rotate(-116.11) skewX(.02)"><tspan x="0" y="0">V</tspan></text><text class="cls-17" transform="translate(267.07 534.01) rotate(-113.57) skewX(.02)"><tspan x="0" y="0">A</tspan></text><text class="cls-17" transform="translate(262.86 524.32) rotate(-110.8) skewX(.01)"><tspan x="0" y="0">P</tspan></text><text class="cls-17" transform="translate(260.07 517.13) rotate(-108.45)"><tspan x="0" y="0">A</tspan></text><text class="cls-17" transform="translate(256.73 507.1) rotate(-105.5)"><tspan x="0" y="0">A</tspan></text><text class="cls-17" transform="translate(253.96 496.94) rotate(-103.3)"><tspan x="0" y="0">-</tspan></text><text class="cls-17" transform="translate(252.71 491.9) rotate(-101.1)"><tspan x="0" y="0">A</tspan></text><text class="cls-17" transform="translate(250.73 481.5) rotate(-99.05)"><tspan x="0" y="0">I</tspan></text><text class="cls-17" transform="translate(250.04 477.48) rotate(-97.17) skewX(-.01)"><tspan x="0" y="0">K</tspan></text><text class="cls-17" transform="translate(248.84 468.04) rotate(-94.33) skewX(-.02)"><tspan x="0" y="0">A</tspan></text><text class="cls-17" transform="translate(248.1 457.49) rotate(-92.34) skewX(-.02)"><tspan x="0" y="0"> </tspan></text><text class="cls-17" transform="translate(247.95 453.82) rotate(-91.31) skewX(-.02)"><tspan x="0" y="0"> </tspan></text><text class="cls-17" transform="translate(247.86 450.18) rotate(-90.29) skewX(-.02)"><tspan x="0" y="0"> </tspan></text><text class="cls-17" transform="translate(247.85 446.54) rotate(-89.26) skewX(-.02)"><tspan x="0" y="0"> </tspan></text><text class="cls-17" transform="translate(247.89 442.87) rotate(-88.23) skewX(-.02)"><tspan x="0" y="0"> </tspan></text><text class="cls-17" transform="translate(248.01 439.2) rotate(-87.19) skewX(-.03)"><tspan x="0" y="0"> </tspan></text><text class="cls-17" transform="translate(248.18 435.55) rotate(-86.16) skewX(-.03)"><tspan x="0" y="0"> </tspan></text><text class="cls-17" transform="translate(248.43 431.94) rotate(-85.14) skewX(-.03)"><tspan x="0" y="0"> </tspan></text><text class="cls-17" transform="translate(248.74 428.29) rotate(-84.1) skewX(-.03)"><tspan x="0" y="0"> </tspan></text><text class="cls-17" transform="translate(249.11 424.65) rotate(-83.06) skewX(-.03)"><tspan x="0" y="0"> </tspan></text><text class="cls-17" transform="translate(249.47 421.08) rotate(-80.96) skewX(-.03)"><tspan x="0" y="0">H</tspan></text><text class="cls-17" transform="translate(251.27 409.97) rotate(-78.16) skewX(-.04)"><tspan x="0" y="0">E</tspan></text><text class="cls-17" transform="translate(253.06 401.63) rotate(-76.36) skewX(-.04)"><tspan x="0" y="0">I</tspan></text><text class="cls-17" transform="translate(253.89 397.69) rotate(-73.82) skewX(-.04)"><tspan x="0" y="0">M</tspan></text><text class="cls-17" transform="translate(257.79 384.35) rotate(-70.16) skewX(-.04)"><tspan x="0" y="0">O</tspan></text><text class="cls-17" transform="translate(261.91 373.17) rotate(-67.96) skewX(-.05)"><tspan x="0" y="0"> </tspan></text><text class="cls-17" transform="translate(263.28 369.77) rotate(-66.93) skewX(-.05)"><tspan x="0" y="0"> </tspan></text><text class="cls-17" transform="translate(264.71 366.43) rotate(-65.9) skewX(-.05)"><tspan x="0" y="0"> </tspan></text><text class="cls-17" transform="translate(266.2 363.09) rotate(-64.87) skewX(-.05)"><tspan x="0" y="0"> </tspan></text><text class="cls-17" transform="translate(267.76 359.78) rotate(-63.84) skewX(-.05)"><tspan x="0" y="0"> </tspan></text><text class="cls-17" transform="translate(269.36 356.51) rotate(-62.82) skewX(-.05)"><tspan x="0" y="0"> </tspan></text><text class="cls-17" transform="translate(271.02 353.27) rotate(-61.8) skewX(-.05)"><tspan x="0" y="0"> </tspan></text><text class="cls-17" transform="translate(272.75 350.04) rotate(-60.78) skewX(-.05)"><tspan x="0" y="0"> </tspan></text><text class="cls-17" transform="translate(274.54 346.85) rotate(-59.76) skewX(-.05)"><tspan x="0" y="0"> </tspan></text><text class="cls-17" transform="translate(276.38 343.73) rotate(-59.46) skewX(-.05)"><tspan x="0" y="0"> </tspan></text><text class="cls-17" transform="translate(278.26 340.59) rotate(-57.6) skewX(-.05)"><tspan x="0" y="0"> </tspan></text><text class="cls-17" transform="translate(280.22 337.48) rotate(-56.73) skewX(-.05)"><tspan x="0" y="0"> </tspan></text><text class="cls-17" transform="translate(282.22 334.43) rotate(-55.71) skewX(-.05)"><tspan x="0" y="0"> </tspan></text><text class="cls-17" transform="translate(284.28 331.41) rotate(-54.69) skewX(-.05)"><tspan x="0" y="0"> </tspan></text><text class="cls-17" transform="translate(286.4 328.42) rotate(-53.66) skewX(-.05)"><tspan x="0" y="0"> </tspan></text><text class="cls-17" transform="translate(288.55 325.5) rotate(-52.64) skewX(-.05)"><tspan x="0" y="0"> </tspan></text><text class="cls-17" transform="translate(290.77 322.59) rotate(-51.61) skewX(-.05)"><tspan x="0" y="0"> </tspan></text><text class="cls-17" transform="translate(292.99 319.73) rotate(-49.9) skewX(-.05)"><tspan x="0" y="0">S</tspan></text><text class="cls-17" transform="translate(298.42 313.22) rotate(-47.11) skewX(-.04)"><tspan x="0" y="0">U</tspan></text><text class="cls-17" transform="translate(306.04 305.05) rotate(-44.2) skewX(-.04)"><tspan x="0" y="0">K</tspan></text><text class="cls-17" transform="translate(312.69 298.53) rotate(-41.29) skewX(-.04)"><tspan x="0" y="0">U</tspan></text><text class="cls-17" transform="translate(321.14 291.2) rotate(-39.19) skewX(-.04)"><tspan x="0" y="0"> </tspan></text><text class="cls-17" transform="translate(323.96 288.91) rotate(-38.15) skewX(-.04)"><tspan x="0" y="0"> </tspan></text><text class="cls-17" transform="translate(326.85 286.64) rotate(-37.11) skewX(-.04)"><tspan x="0" y="0"> </tspan></text><text class="cls-17" transform="translate(329.77 284.43) rotate(-36.07) skewX(-.03)"><tspan x="0" y="0"> </tspan></text><text class="cls-17" transform="translate(332.71 282.29) rotate(-35.04) skewX(-.03)"><tspan x="0" y="0"> </tspan></text><text class="cls-17" transform="translate(335.71 280.18) rotate(-34) skewX(-.03)"><tspan x="0" y="0"> </tspan></text><text class="cls-17" transform="translate(338.71 278.15) rotate(-32.97) skewX(-.03)"><tspan x="0" y="0"> </tspan></text><text class="cls-17" transform="translate(341.78 276.16) rotate(-31.93) skewX(-.03)"><tspan x="0" y="0"> </tspan></text><text class="cls-17" transform="translate(344.89 274.23) rotate(-30.89) skewX(-.03)"><tspan x="0" y="0"> </tspan></text><text class="cls-17" transform="translate(348.02 272.35) rotate(-29.86) skewX(-.03)"><tspan x="0" y="0"> </tspan></text><text class="cls-17" transform="translate(351.18 270.54) rotate(-28.83) skewX(-.02)"><tspan x="0" y="0"> </tspan></text><text class="cls-17" transform="translate(354.38 268.78) rotate(-27.8) skewX(-.02)"><tspan x="0" y="0"> </tspan></text><text class="cls-17" transform="translate(357.6 267.08) rotate(-26.77) skewX(-.02)"><tspan x="0" y="0"> </tspan></text><text class="cls-17" transform="translate(360.88 265.42) rotate(-25.73) skewX(-.02)"><tspan x="0" y="0"> </tspan></text><text class="cls-17" transform="translate(364.15 263.84) rotate(-24.71) skewX(-.02)"><tspan x="0" y="0"> </tspan></text><text class="cls-17" transform="translate(367.47 262.32) rotate(-23.68) skewX(-.02)"><tspan x="0" y="0"> </tspan></text><text class="cls-17" transform="translate(370.01 261.14) rotate(-22.09) skewX(-.01)"><tspan x="0" y="0">Y</tspan></text><text class="cls-17" transform="translate(378.55 257.68) rotate(-19.5)"><tspan x="0" y="0">K</tspan></text><text class="cls-17" transform="translate(387.35 254.57) rotate(-17)"><tspan x="0" y="0">S</tspan></text><text class="cls-17" transform="translate(395.52 252.1) rotate(-15.23)"><tspan x="0" y="0">I</tspan></text><text class="cls-17" transform="translate(399.45 251) rotate(-13.51)"><tspan x="0" y="0">L</tspan></text><text class="cls-17" transform="translate(406.68 249.2) rotate(-10.9)"><tspan x="0" y="0">Ö</tspan></text><text class="cls-15" transform="translate(470.55 370.98) rotate(14.92)"><tspan x="0" y="0"> </tspan></text><text class="cls-15" transform="translate(472.97 371.62) rotate(16.72)"><tspan x="0" y="0"> </tspan></text><text class="cls-15" transform="translate(475.35 372.33) rotate(18.52)"><tspan x="0" y="0"> </tspan></text><text class="cls-15" transform="translate(477.7 373.12) rotate(20.31)"><tspan x="0" y="0"> </tspan></text><text class="cls-15" transform="translate(480.02 373.98) rotate(22.09)"><tspan x="0" y="0"> </tspan></text><text class="cls-15" transform="translate(482.29 374.8) rotate(25.75)"><tspan x="0" y="0">N</tspan></text><text class="cls-15" transform="translate(489.18 378.15) rotate(30.74)"><tspan x="0" y="0">Y</tspan></text><text class="cls-15" transform="translate(494.54 381.33) rotate(35.2)"><tspan x="0" y="0">K</tspan></text><text class="cls-15" transform="translate(499.68 384.94) rotate(39.68)"><tspan x="0" y="0">Y</tspan></text><text class="cls-15" transform="translate(504.49 388.99) rotate(42.87)"><tspan x="0" y="0">I</tspan></text><text class="cls-15" transform="translate(506.55 390.84) rotate(45.92)"><tspan x="0" y="0">S</tspan></text><text class="cls-15" transform="translate(510.58 394.98) rotate(50.23)"><tspan x="0" y="0">Y</tspan></text><text class="cls-15" transform="translate(514.66 399.87) rotate(54.77)"><tspan x="0" y="0">Y</tspan></text><text class="cls-15" transform="translate(518.23 404.93) rotate(59)"><tspan x="0" y="0">S</tspan></text><text class="cls-15" transform="translate(521.18 409.92) rotate(61.94)"><tspan x="0" y="0"> </tspan></text><text class="cls-15" transform="translate(522.35 412.11) rotate(63.73)"><tspan x="0" y="0"> </tspan></text><text class="cls-15" transform="translate(523.45 414.34) rotate(65.52)"><tspan x="0" y="0"> </tspan></text><text class="cls-15" transform="translate(524.48 416.61) rotate(67.31)"><tspan x="0" y="0"> </tspan></text><text class="cls-15" transform="translate(525.44 418.89) rotate(69.1)"><tspan x="0" y="0"> </tspan></text><text class="cls-15" transform="translate(526.32 421.2) rotate(70.88)"><tspan x="0" y="0"> </tspan></text><text class="cls-15" transform="translate(527.14 423.55) rotate(72.68)"><tspan x="0" y="0"> </tspan></text><text class="cls-15" transform="translate(527.88 425.93) rotate(74.48)"><tspan x="0" y="0"> </tspan></text><text class="cls-15" transform="translate(528.55 428.32) rotate(76.26)"><tspan x="0" y="0"> </tspan></text><text class="cls-15" transform="translate(529.14 430.73) rotate(78.05)"><tspan x="0" y="0"> </tspan></text><text class="cls-15" transform="translate(529.65 433.14) rotate(79.83)"><tspan x="0" y="0"> </tspan></text><text class="cls-15" transform="translate(530.09 435.61) rotate(81.63)"><tspan x="0" y="0"> </tspan></text><text class="cls-15" transform="translate(530.45 438.04) rotate(83.39)"><tspan x="0" y="0"> </tspan></text><text class="cls-15" transform="translate(530.74 440.53) rotate(85.17)"><tspan x="0" y="0"> </tspan></text><text class="cls-15" transform="translate(530.95 443) rotate(86.94)"><tspan x="0" y="0"> </tspan></text><text class="cls-15" transform="translate(531.08 445.47) rotate(88.68)"><tspan x="0" y="0"> </tspan></text><text class="cls-15" transform="translate(531.15 447.92) rotate(90.93)"><tspan x="0" y="0"> </tspan></text><text class="cls-15" transform="translate(531.12 450.43) rotate(92.18)"><tspan x="0" y="0"> </tspan></text><text class="cls-15" transform="translate(531.03 452.93) rotate(93.94)"><tspan x="0" y="0"> </tspan></text><text class="cls-15" transform="translate(530.86 455.4) rotate(95.71)"><tspan x="0" y="0"> </tspan></text><text class="cls-15" transform="translate(530.62 457.85) rotate(97.47)"><tspan x="0" y="0"> </tspan></text><text class="cls-15" transform="translate(530.29 460.32) rotate(99.25)"><tspan x="0" y="0"> </tspan></text><text class="cls-15" transform="translate(529.89 462.78) rotate(101.05)"><tspan x="0" y="0"> </tspan></text><text class="cls-15" transform="translate(529.42 465.2) rotate(102.82)"><tspan x="0" y="0"> </tspan></text><text class="cls-15" transform="translate(528.87 467.61) rotate(104.61)"><tspan x="0" y="0"> </tspan></text><text class="cls-15" transform="translate(528.24 470.03) rotate(106.41)"><tspan x="0" y="0"> </tspan></text><text class="cls-15" transform="translate(527.54 472.42) rotate(108.21)"><tspan x="0" y="0"> </tspan></text><text class="cls-15" transform="translate(526.78 474.75) rotate(109.98)"><tspan x="0" y="0"> </tspan></text><text class="cls-15" transform="translate(526.15 476.64) rotate(112.64)"><tspan x="0" y="0">T</tspan></text><text class="cls-15" transform="translate(523.96 481.99) rotate(117.45)"><tspan x="0" y="0">U</tspan></text><text class="cls-15" transform="translate(520.42 488.72) rotate(122.15)"><tspan x="0" y="0">L</tspan></text><text class="cls-15" transform="translate(517.48 493.42) rotate(126.19)"><tspan x="0" y="0">E</tspan></text><text class="cls-15" transform="translate(514.04 498.15) rotate(130.64)"><tspan x="0" y="0">V</tspan></text><text class="cls-15" transform="translate(510.26 502.63) rotate(135.04)"><tspan x="0" y="0">A</tspan></text><text class="cls-15" transform="translate(505.1 507.68) rotate(138.59)"><tspan x="0" y="0">I</tspan></text><text class="cls-15" transform="translate(503.06 509.55) rotate(141.64)"><tspan x="0" y="0">S</tspan></text><text class="cls-15" transform="translate(498.57 513.15) rotate(146.41)"><tspan x="0" y="0">U</tspan></text><text class="cls-15" transform="translate(492.26 517.36) rotate(151.84)"><tspan x="0" y="0">U</tspan></text><text class="cls-15" transform="translate(485.55 520.91) rotate(156.64)"><tspan x="0" y="0">S</tspan></text><text class="cls-15" transform="translate(480.2 523.18) rotate(159.6)"><tspan x="0" y="0"> </tspan></text><text class="cls-15" transform="translate(477.88 524.04) rotate(161.39)"><tspan x="0" y="0"> </tspan></text><text class="cls-15" transform="translate(475.52 524.84) rotate(163.19)"><tspan x="0" y="0"> </tspan></text><text class="cls-15" transform="translate(473.13 525.56) rotate(164.99)"><tspan x="0" y="0"> </tspan></text><text class="cls-15" transform="translate(470.74 526.2) rotate(166.78)"><tspan x="0" y="0"> </tspan></text><text class="cls-15" transform="translate(468.35 526.77) rotate(168.55)"><tspan x="0" y="0"> </tspan></text><text class="cls-15" transform="translate(465.9 527.26) rotate(170.35)"><tspan x="0" y="0"> </tspan></text><text class="cls-15" transform="translate(463.46 527.68) rotate(172.12)"><tspan x="0" y="0"> </tspan></text><text class="cls-15" transform="translate(460.99 528.02) rotate(173.91)"><tspan x="0" y="0"> </tspan></text><text class="cls-15" transform="translate(458.53 528.29) rotate(175.67)"><tspan x="0" y="0"> </tspan></text><text class="cls-15" transform="translate(456.04 528.48) rotate(177.44)"><tspan x="0" y="0"> </tspan></text><text class="cls-15" transform="translate(453.57 528.58) rotate(179.07)"><tspan x="0" y="0"> </tspan></text><text class="cls-15" transform="translate(451.08 528.62) rotate(-179.07)"><tspan x="0" y="0"> </tspan></text><text class="cls-15" transform="translate(448.61 528.58) rotate(-177.32)"><tspan x="0" y="0"> </tspan></text><text class="cls-15" transform="translate(446.12 528.47) rotate(-175.56)"><tspan x="0" y="0"> </tspan></text><text class="cls-15" transform="translate(443.65 528.28) rotate(-173.79)"><tspan x="0" y="0"> </tspan></text><text class="cls-15" transform="translate(441.17 528.01) rotate(-172.01)"><tspan x="0" y="0"> </tspan></text><text class="cls-15" transform="translate(438.72 527.67) rotate(-170.23)"><tspan x="0" y="0"> </tspan></text><text class="cls-15" transform="translate(436.29 527.25) rotate(-168.46)"><tspan x="0" y="0"> </tspan></text><text class="cls-15" transform="translate(433.85 526.75) rotate(-166.67)"><tspan x="0" y="0"> </tspan></text><text class="cls-15" transform="translate(431.44 526.18) rotate(-164.88)"><tspan x="0" y="0"> </tspan></text><text class="cls-15" transform="translate(429.03 525.53) rotate(-163.08)"><tspan x="0" y="0"> </tspan></text><text class="cls-15" transform="translate(426.65 524.81) rotate(-161.28)"><tspan x="0" y="0"> </tspan></text><text class="cls-15" transform="translate(424.35 524.11) rotate(-157.82)"><tspan x="0" y="0">A</tspan></text><text class="cls-15" transform="translate(417.48 521.25) rotate(-153.51)"><tspan x="0" y="0">J</tspan></text><text class="cls-15" transform="translate(413.61 519.38) rotate(-149.39)"><tspan x="0" y="0">A</tspan></text><text class="cls-15" transform="translate(407.43 515.75) rotate(-144.07)"><tspan x="0" y="0">N</tspan></text><text class="cls-15" transform="translate(401.19 511.24) rotate(-138.61)"><tspan x="0" y="0">H</tspan></text><text class="cls-15" transform="translate(395.45 506.17) rotate(-133.34)"><tspan x="0" y="0">A</tspan></text><text class="cls-15" transform="translate(390.55 500.94) rotate(-128.83)"><tspan x="0" y="0">L</tspan></text><text class="cls-15" transform="translate(387.08 496.63) rotate(-124.88)"><tspan x="0" y="0">L</tspan></text><text class="cls-15" transform="translate(383.91 492.03) rotate(-121.89)"><tspan x="0" y="0">I</tspan></text><text class="cls-15" transform="translate(382.41 489.77) rotate(-118.14)"><tspan x="0" y="0">N</tspan></text><text class="cls-15" transform="translate(378.79 482.94) rotate(-113.28)"><tspan x="0" y="0">T</tspan></text><text class="cls-15" transform="translate(376.78 478.43) rotate(-109.23)"><tspan x="0" y="0">A</tspan></text><text class="cls-15" transform="translate(374.47 471.59) rotate(-105.74)"><tspan x="0" y="0"> </tspan></text><text class="cls-15" transform="translate(373.8 469.21) rotate(-103.96)"><tspan x="0" y="0"> </tspan></text><text class="cls-15" transform="translate(373.2 466.8) rotate(-102.17)"><tspan x="0" y="0"> </tspan></text><text class="cls-15" transform="translate(372.67 464.36) rotate(-100.37)"><tspan x="0" y="0"> </tspan></text><text class="cls-15" transform="translate(372.23 461.93) rotate(-98.6)"><tspan x="0" y="0"> </tspan></text><text class="cls-15" transform="translate(371.85 459.47) rotate(-96.82)"><tspan x="0" y="0"> </tspan></text><text class="cls-15" transform="translate(371.56 457.02) rotate(-95.05)"><tspan x="0" y="0"> </tspan></text><text class="cls-15" transform="translate(371.34 454.54) rotate(-93.29)"><tspan x="0" y="0"> </tspan></text><text class="cls-15" transform="translate(371.19 452.05) rotate(-91.52)"><tspan x="0" y="0"> </tspan></text><text class="cls-15" transform="translate(371.11 449.59) rotate(-89.07)"><tspan x="0" y="0"> </tspan></text><text class="cls-15" transform="translate(371.14 447.08) rotate(-88.03)"><tspan x="0" y="0"> </tspan></text><text class="cls-15" transform="translate(371.22 444.62) rotate(-86.28)"><tspan x="0" y="0"> </tspan></text><text class="cls-15" transform="translate(371.38 442.14) rotate(-84.52)"><tspan x="0" y="0"> </tspan></text><text class="cls-15" transform="translate(371.62 439.65) rotate(-82.73)"><tspan x="0" y="0"> </tspan></text><text class="cls-15" transform="translate(371.93 437.19) rotate(-80.95)"><tspan x="0" y="0"> </tspan></text><text class="cls-15" transform="translate(372.32 434.75) rotate(-79.18)"><tspan x="0" y="0"> </tspan></text><text class="cls-15" transform="translate(372.79 432.3) rotate(-77.38)"><tspan x="0" y="0"> </tspan></text><text class="cls-15" transform="translate(373.33 429.88) rotate(-75.59)"><tspan x="0" y="0"> </tspan></text><text class="cls-15" transform="translate(373.94 427.49) rotate(-73.81)"><tspan x="0" y="0"> </tspan></text><text class="cls-15" transform="translate(374.63 425.1) rotate(-72.01)"><tspan x="0" y="0"> </tspan></text><text class="cls-15" transform="translate(375.4 422.73) rotate(-70.22)"><tspan x="0" y="0"> </tspan></text><text class="cls-15" transform="translate(376.24 420.41) rotate(-68.44)"><tspan x="0" y="0"> </tspan></text><text class="cls-15" transform="translate(377 418.11) rotate(-64.14)"><tspan x="0" y="0">M</tspan></text><text class="cls-15" transform="translate(381.18 409.65) rotate(-58.72)"><tspan x="0" y="0">E</tspan></text><text class="cls-15" transform="translate(384.13 404.71) rotate(-53.89)"><tspan x="0" y="0">N</tspan></text><text class="cls-15" transform="translate(388.67 398.47) rotate(-48.39)"><tspan x="0" y="0">N</tspan></text><text class="cls-15" transform="translate(393.82 392.72) rotate(-43.61)"><tspan x="0" y="0">E</tspan></text><text class="cls-15" transform="translate(398.05 388.74) rotate(-40.56)"><tspan x="0" y="0">I</tspan></text><text class="cls-15" transform="translate(400.13 386.91) rotate(-37.5)"><tspan x="0" y="0">S</tspan></text><text class="cls-15" transform="translate(404.69 383.39) rotate(-33.18)"><tspan x="0" y="0">Y</tspan></text><text class="cls-15" transform="translate(410.02 379.9) rotate(-28.62)"><tspan x="0" y="0">Y</tspan></text><text class="cls-15" transform="translate(415.46 376.93) rotate(-24.37)"><tspan x="0" y="0">S</tspan></text></g><circle class="cls-19" cx="450" cy="450" r="400"/></svg>