<?xml version="1.0" encoding="UTF-8"?><svg id="Layer_1" xmlns="http://www.w3.org/2000/svg" viewBox="0 0 767.26 766.79"><defs><style>.cls-1{fill:#dfc724;}.cls-1,.cls-2,.cls-3,.cls-4,.cls-5,.cls-6,.cls-7,.cls-8,.cls-9,.cls-10,.cls-11,.cls-12,.cls-13{fill-rule:evenodd;}.cls-2{fill:#fff;}.cls-3{fill:#ca7830;}.cls-14{font-size:20px;}.cls-14,.cls-15,.cls-16,.cls-17,.cls-18{fill:#231f20;font-family:MyriadPro-Regular, 'Myriad Pro';}.cls-4{fill:#439888;}.cls-15{font-size:12px;}.cls-16{font-size:20.05px;}.cls-5{fill:#3a84c3;}.cls-19{opacity:.9;stroke-width:20px;}.cls-19,.cls-20,.cls-21,.cls-22{fill:none;}.cls-19,.cls-21,.cls-22{stroke:#fff;stroke-miterlimit:10;}.cls-6{fill:#c84f56;}.cls-7{fill:#45a9d7;}.cls-8{fill:#8f4d8e;}.cls-20{opacity:.6;}.cls-17{font-size:17.49px;}.cls-9{fill:#3da366;}.cls-18{font-size:16.5px;}.cls-10{fill:#b8386d;}.cls-11{fill:#3e579b;}.cls-12{fill:#9db844;}.cls-21{stroke-width:4px;}.cls-22{opacity:.83;stroke-width:16px;}.cls-13{fill:#e1a428;}</style></defs><rect class="cls-20" x="165.9" y="161.99" width="442" height="441.91" transform="translate(-89.15 118.9) rotate(-15.69)"/><g id="id3"><path class="cls-2" d="M579.29,490.92c-19.88,35.41-44.82,60.99-79.74,81.71-34.92,20.72-69.35,30.39-109.94,30.88-40.6,.49-75.21-8.36-110.62-28.24-35.41-19.88-60.99-44.82-81.71-79.74-20.72-34.92-30.39-69.35-30.88-109.94-.49-40.6,8.36-75.21,28.24-110.62,19.88-35.41,44.82-60.99,79.74-81.71,34.92-20.72,69.35-30.39,109.94-30.88,40.6-.49,75.21,8.36,110.62,28.24,35.41,19.88,60.99,44.82,81.71,79.74,20.72,34.92,30.39,69.35,30.88,109.94s-8.36,75.21-28.24,110.62h0Z"/></g><g><g id="id4"><path class="cls-7" d="M386.96,382.95l-112.59-189.68c34.92-20.72,69.35-30.39,109.94-30.88l2.65,220.56Z"/></g><g id="id5"><path class="cls-3" d="M386.96,382.95l112.59,189.68c-34.92,20.72-69.35,30.39-109.94,30.88l-2.65-220.56Z"/></g><g id="id6"><path class="cls-4" d="M386.96,382.95l-2.65-220.56c40.6-.49,75.21,8.36,110.62,28.24h0l-107.97,192.33Z"/></g><g id="id7"><path class="cls-6" d="M386.96,382.95l2.65,220.56c-40.6,.49-75.21-8.36-110.62-28.24l107.97-192.33Z"/></g><g id="id8"><path class="cls-9" d="M386.96,382.95l107.97-192.33c35.41,19.88,60.99,44.82,81.71,79.74l-189.68,112.59Z"/></g><g id="id9"><path class="cls-10" d="M386.96,382.95l-107.97,192.33h0c-35.41-19.88-60.99-44.82-81.71-79.74l189.68-112.59Z"/></g><g id="id10"><path class="cls-12" d="M386.96,382.95l189.68-112.59c20.72,34.92,30.39,69.35,30.88,109.94l-220.56,2.65Z"/></g><g id="id11"><path class="cls-8" d="M386.96,382.95l-189.68,112.59c-20.72-34.92-30.39-69.35-30.88-109.94l220.56-2.65Z"/></g><g id="id12"><path class="cls-1" d="M386.96,382.95l220.56-2.65c.49,40.6-8.36,75.21-28.24,110.62l-192.33-107.97Z"/></g><g id="id13"><path class="cls-11" d="M386.96,382.95l-220.56,2.65c-.49-40.6,8.36-75.21,28.24-110.62l192.33,107.97Z"/></g><g id="id14"><path class="cls-13" d="M386.96,382.95l192.33,107.97h0c-19.88,35.41-44.82,60.99-79.74,81.71l-112.59-189.68Z"/></g><g id="id15"><path class="cls-5" d="M386.96,382.95l-192.33-107.97c19.88-35.41,44.82-60.99,79.74-81.71l112.59,189.68Z"/></g></g><g id="id16"><path class="cls-2" d="M474.2,431.92c-9.04,16.02-20.32,27.61-36.16,37.01-15.84,9.4-31.45,13.78-49.81,14-18.42,.23-34.14-3.77-50.14-12.76-16.07-9.03-27.67-20.37-37.05-36.16-9.39-15.85-13.78-31.46-14.01-49.88-.21-18.37,3.79-34.1,12.81-50.17,8.98-16.01,20.32-27.61,36.16-37.01,15.79-9.38,31.39-13.77,49.81-14,18.42-.23,34.08,3.79,50.14,12.76,16.07,9.03,27.67,20.37,37.05,36.16,9.39,15.85,13.78,31.46,14.01,49.88,.21,18.37-3.79,34.1-12.81,50.17h0Z"/></g><text class="cls-16" transform="translate(382.01 115.89) rotate(.16)"><tspan x="0" y="0"> </tspan></text><text class="cls-16" transform="translate(386.19 115.9) rotate(1.05)"><tspan x="0" y="0"> </tspan></text><text class="cls-16" transform="translate(389.45 115.91) rotate(2.46)"><tspan x="0" y="0">Y</tspan></text><text class="cls-16" transform="translate(400.01 116.35) rotate(4.73)"><tspan x="0" y="0">K</tspan></text><text class="cls-16" transform="translate(410.73 117.25) rotate(6.94)"><tspan x="0" y="0">S</tspan></text><text class="cls-16" transform="translate(420.42 118.46) rotate(8.49)"><tspan x="0" y="0">I</tspan></text><text class="cls-16" transform="translate(425.08 119.12) rotate(10.01)"><tspan x="0" y="0">L</tspan></text><text class="cls-16" transform="translate(433.51 120.55) rotate(12.32)"><tspan x="0" y="0">Ö</tspan></text><text class="cls-16" transform="translate(446.87 123.51) rotate(14.79)"><tspan x="0" y="0">L</tspan></text><text class="cls-16" transform="translate(455.89 125.89) rotate(16.8)"><tspan x="0" y="0">L</tspan></text><text class="cls-16" transform="translate(464.86 128.63) rotate(18.3)"><tspan x="0" y="0">I</tspan></text><text class="cls-16" transform="translate(469.33 130.07) rotate(19.85)"><tspan x="0" y="0">S</tspan></text><text class="cls-16" transform="translate(478.53 133.38) rotate(22.04)"><tspan x="0" y="0">Y</tspan></text><text class="cls-16" transform="translate(488.52 137.42) rotate(24.32)"><tspan x="0" y="0">Y</tspan></text><text class="cls-16" transform="translate(498.04 141.73) rotate(26.42)"><tspan x="0" y="0">S</tspan></text><text class="cls-16" transform="translate(506.78 146.09) rotate(28.4)"><tspan x="0" y="0"> </tspan></text><text class="cls-16" transform="translate(510.5 148.07) rotate(28.75)"><tspan x="0" y="0"> </tspan></text><text class="cls-16" transform="translate(514.17 150.09) rotate(29.64)"><tspan x="0" y="0"> </tspan></text><text class="cls-16" transform="translate(517.82 152.12) rotate(31.11)"><tspan x="0" y="0">S</tspan></text><text class="cls-16" transform="translate(526.19 157.12) rotate(33.59)"><tspan x="0" y="0">O</tspan></text><text class="cls-16" transform="translate(537.54 164.71) rotate(36.09)"><tspan x="0" y="0">S</tspan></text><text class="cls-16" transform="translate(545.45 170.51) rotate(37.64)"><tspan x="0" y="0">I</tspan></text><text class="cls-16" transform="translate(549.2 173.33) rotate(39.45)"><tspan x="0" y="0">A</tspan></text><text class="cls-16" transform="translate(558.55 181.02) rotate(42.05)"><tspan x="0" y="0">A</tspan></text><text class="cls-16" transform="translate(567.55 189.17) rotate(44.36)"><tspan x="0" y="0">L</tspan></text><text class="cls-16" transform="translate(574.23 195.75) rotate(45.88)"><tspan x="0" y="0">I</tspan></text><text class="cls-16" transform="translate(577.52 199.09) rotate(47.44)"><tspan x="0" y="0">S</tspan></text><text class="cls-16" transform="translate(584.14 206.24) rotate(49.87)"><tspan x="0" y="0">U</tspan></text><text class="cls-16" transform="translate(592.4 216.03) rotate(52.62)"><tspan x="0" y="0">U</tspan></text><text class="cls-16" transform="translate(600.16 226.24) rotate(55.04)"><tspan x="0" y="0">S</tspan></text><text class="cls-16" transform="translate(605.75 234.29) rotate(56.53)"><tspan x="0" y="0"> </tspan></text><text class="cls-16" transform="translate(608.06 237.79) rotate(57.43)"><tspan x="0" y="0"> </tspan></text><text class="cls-16" transform="translate(610.32 241.33) rotate(58.33)"><tspan x="0" y="0"> </tspan></text><text class="cls-16" transform="translate(612.52 244.89) rotate(59.22)"><tspan x="0" y="0"> </tspan></text><text class="cls-16" transform="translate(614.23 247.66) rotate(60.62)"><tspan x="0" y="0">Y</tspan></text><text class="cls-16" transform="translate(619.44 256.86) rotate(63.12)"><tspan x="0" y="0">H</tspan></text><text class="cls-16" transform="translate(625.26 268.39) rotate(65.54)"><tspan x="0" y="0">T</tspan></text><text class="cls-16" transform="translate(629.33 277.35) rotate(67.62)"><tspan x="0" y="0">E</tspan></text><text class="cls-16" transform="translate(633.03 286.41) rotate(69.16)"><tspan x="0" y="0">I</tspan></text><text class="cls-16" transform="translate(634.74 290.8) rotate(70.71)"><tspan x="0" y="0">S</tspan></text><text class="cls-16" transform="translate(637.99 299.96) rotate(73.19)"><tspan x="0" y="0">Ö</tspan></text><text class="cls-16" transform="translate(641.9 313.06) rotate(75.64)"><tspan x="0" y="0">L</tspan></text><text class="cls-16" transform="translate(644.23 322.12) rotate(77.63)"><tspan x="0" y="0">L</tspan></text><text class="cls-16" transform="translate(646.2 331.28) rotate(79.13)"><tspan x="0" y="0">I</tspan></text><text class="cls-16" transform="translate(647.13 335.9) rotate(80.68)"><tspan x="0" y="0">S</tspan></text><text class="cls-16" transform="translate(648.72 345.52) rotate(82.87)"><tspan x="0" y="0">Y</tspan></text><text class="cls-16" transform="translate(650.06 356.21) rotate(85.17)"><tspan x="0" y="0">Y</tspan></text><text class="cls-16" transform="translate(650.94 366.64) rotate(87.31)"><tspan x="0" y="0">S</tspan></text><text class="cls-16" transform="translate(651.36 376.41) rotate(88.81)"><tspan x="0" y="0"> </tspan></text><text class="cls-16" transform="translate(651.45 380.61) rotate(89.71)"><tspan x="0" y="0"> </tspan></text><text class="cls-16" transform="translate(651.47 384.81) rotate(90.62)"><tspan x="0" y="0"> </tspan></text><text class="cls-16" transform="translate(651.42 388.99) rotate(91.52)"><tspan x="0" y="0"> </tspan></text><text class="cls-16" transform="translate(651.31 393.2) rotate(92.42)"><tspan x="0" y="0"> </tspan></text><text class="cls-16" transform="translate(651.14 397.41) rotate(93.33)"><tspan x="0" y="0"> </tspan></text><text class="cls-16" transform="translate(650.89 401.57) rotate(94.23)"><tspan x="0" y="0"> </tspan></text><text class="cls-16" transform="translate(650.69 404.92) rotate(95.57)"><tspan x="0" y="0">T</tspan></text><text class="cls-16" transform="translate(649.93 413.23) rotate(97.62)"><tspan x="0" y="0">A</tspan></text><text class="cls-16" transform="translate(648.47 424.23) rotate(99.91)"><tspan x="0" y="0">V</tspan></text><text class="cls-16" transform="translate(646.61 435.09) rotate(102.58)"><tspan x="0" y="0">O</tspan></text><text class="cls-16" transform="translate(643.55 448.44) rotate(104.56)"><tspan x="0" y="0">I</tspan></text><text class="cls-16" transform="translate(642.41 452.99) rotate(106.13)"><tspan x="0" y="0">T</tspan></text><text class="cls-16" transform="translate(639.45 463.18) rotate(108.42)"><tspan x="0" y="0">T</tspan></text><text class="cls-16" transform="translate(636.34 472.5) rotate(110.52)"><tspan x="0" y="0">E</tspan></text><text class="cls-16" transform="translate(632.93 481.62) rotate(112.6)"><tspan x="0" y="0">E</tspan></text><text class="cls-16" transform="translate(629.06 490.92) rotate(114.76)"><tspan x="0" y="0">T</tspan></text><text class="cls-16" transform="translate(624.89 499.86) rotate(116.24)"><tspan x="0" y="0"> </tspan></text><text class="cls-16" transform="translate(623 503.65) rotate(116.54)"><tspan x="0" y="0"> </tspan></text><text class="cls-16" transform="translate(621.14 507.37) rotate(118.41)"><tspan x="0" y="0"> </tspan></text><text class="cls-16" transform="translate(619.15 511.07) rotate(118.89)"><tspan x="0" y="0"> </tspan></text><text class="cls-16" transform="translate(617.13 514.73) rotate(119.78)"><tspan x="0" y="0"> </tspan></text><text class="cls-16" transform="translate(615.03 518.4) rotate(120.68)"><tspan x="0" y="0"> </tspan></text><text class="cls-16" transform="translate(612.9 522) rotate(121.57)"><tspan x="0" y="0"> </tspan></text><text class="cls-16" transform="translate(610.7 525.58) rotate(122.46)"><tspan x="0" y="0"> </tspan></text><text class="cls-16" transform="translate(608.45 529.11) rotate(123.36)"><tspan x="0" y="0"> </tspan></text><text class="cls-16" transform="translate(606.14 532.62) rotate(124.26)"><tspan x="0" y="0"> </tspan></text><text class="cls-16" transform="translate(603.87 536.09) rotate(126.1)"><tspan x="0" y="0">H</tspan></text><text class="cls-16" transform="translate(596.26 546.52) rotate(128.79)"><tspan x="0" y="0">A</tspan></text><text class="cls-16" transform="translate(588.66 555.98) rotate(131.41)"><tspan x="0" y="0">A</tspan></text><text class="cls-16" transform="translate(581.35 564.29) rotate(133.69)"><tspan x="0" y="0">V</tspan></text><text class="cls-16" transform="translate(573.7 572.28) rotate(135.94)"><tspan x="0" y="0">E</tspan></text><text class="cls-16" transform="translate(566.71 579.05) rotate(138.04)"><tspan x="0" y="0">E</tspan></text><text class="cls-16" transform="translate(559.24 585.76) rotate(140.22)"><tspan x="0" y="0">T</tspan></text><text class="cls-16" transform="translate(551.63 592.05) rotate(141.74)"><tspan x="0" y="0"> </tspan></text><text class="cls-16" transform="translate(548.32 594.66) rotate(142.65)"><tspan x="0" y="0"> </tspan></text><text class="cls-16" transform="translate(544.97 597.21) rotate(143.55)"><tspan x="0" y="0"> </tspan></text><text class="cls-16" transform="translate(541.61 599.7) rotate(144.45)"><tspan x="0" y="0"> </tspan></text><text class="cls-16" transform="translate(538.2 602.14) rotate(145.36)"><tspan x="0" y="0"> </tspan></text><text class="cls-16" transform="translate(534.74 604.52) rotate(146.26)"><tspan x="0" y="0"> </tspan></text><text class="cls-16" transform="translate(531.26 606.85) rotate(147.16)"><tspan x="0" y="0"> </tspan></text><text class="cls-16" transform="translate(527.85 609.19) rotate(149.32)"><tspan x="0" y="0">M</tspan></text><text class="cls-16" transform="translate(514.29 617.19) rotate(152.28)"><tspan x="0" y="0">A</tspan></text><text class="cls-16" transform="translate(503.57 622.84) rotate(154.95)"><tspan x="0" y="0">H</tspan></text><text class="cls-16" transform="translate(491.89 628.3) rotate(157.73)"><tspan x="0" y="0">D</tspan></text><text class="cls-16" transform="translate(479.66 633.32) rotate(160.59)"><tspan x="0" y="0">O</tspan></text><text class="cls-16" transform="translate(466.76 637.82) rotate(163.04)"><tspan x="0" y="0">L</tspan></text><text class="cls-16" transform="translate(457.84 640.54) rotate(165.02)"><tspan x="0" y="0">L</tspan></text><text class="cls-16" transform="translate(448.76 642.94) rotate(166.52)"><tspan x="0" y="0">I</tspan></text><text class="cls-16" transform="translate(444.19 644.07) rotate(168.07)"><tspan x="0" y="0">S</tspan></text><text class="cls-16" transform="translate(434.69 646.12) rotate(170.46)"><tspan x="0" y="0">U</tspan></text><text class="cls-16" transform="translate(422.04 648.25) rotate(173.2)"><tspan x="0" y="0">U</tspan></text><text class="cls-16" transform="translate(409.32 649.77) rotate(175.97)"><tspan x="0" y="0">D</tspan></text><text class="cls-16" transform="translate(396.14 650.67) rotate(178.43)"><tspan x="0" y="0">E</tspan></text><text class="cls-16" transform="translate(386.09 650.94) rotate(-179.41)"><tspan x="0" y="0">T</tspan></text><text class="cls-16" transform="translate(376.21 650.8) rotate(-177.9)"><tspan x="0" y="0"> </tspan></text><text class="cls-16" transform="translate(372.02 650.65) rotate(-177)"><tspan x="0" y="0"> </tspan></text><text class="cls-16" transform="translate(367.83 650.43) rotate(-176.1)"><tspan x="0" y="0"> </tspan></text><text class="cls-16" transform="translate(363.66 650.15) rotate(-175.2)"><tspan x="0" y="0"> </tspan></text><text class="cls-16" transform="translate(359.47 649.79) rotate(-174.3)"><tspan x="0" y="0"> </tspan></text><text class="cls-16" transform="translate(356.13 649.5) rotate(-172.96)"><tspan x="0" y="0">T</tspan></text><text class="cls-16" transform="translate(347.85 648.53) rotate(-170.92)"><tspan x="0" y="0">Ä</tspan></text><text class="cls-16" transform="translate(335.86 646.6) rotate(-168.47)"><tspan x="0" y="0">R</tspan></text><text class="cls-16" transform="translate(325.43 644.48) rotate(-166.17)"><tspan x="0" y="0">K</tspan></text><text class="cls-16" transform="translate(315 641.9) rotate(-163.97)"><tspan x="0" y="0">E</tspan></text><text class="cls-16" transform="translate(305.58 639.21) rotate(-161.76)"><tspan x="0" y="0">Y</tspan></text><text class="cls-16" transform="translate(295.65 635.93) rotate(-159.63)"><tspan x="0" y="0">S</tspan></text><text class="cls-14" transform="translate(286.47 632.48) rotate(-158.14)"><tspan x="0" y="0"> </tspan></text><text class="cls-14" transform="translate(282.6 630.93) rotate(-157.26)"><tspan x="0" y="0"> </tspan></text><text class="cls-14" transform="translate(278.74 629.31) rotate(-156.37)"><tspan x="0" y="0"> </tspan></text><text class="cls-14" transform="translate(274.89 627.63) rotate(-155.48)"><tspan x="0" y="0"> </tspan></text><text class="cls-14" transform="translate(271.08 625.9) rotate(-154.6)"><tspan x="0" y="0"> </tspan></text><text class="cls-14" transform="translate(267.31 624.11) rotate(-153.72)"><tspan x="0" y="0"> </tspan></text><text class="cls-14" transform="translate(263.52 622.21) rotate(-153.45)"><tspan x="0" y="0"> </tspan></text><text class="cls-14" transform="translate(259.82 620.35) rotate(-151.6)"><tspan x="0" y="0"> </tspan></text><text class="cls-14" transform="translate(256.11 618.36) rotate(-151.09)"><tspan x="0" y="0"> </tspan></text><text class="cls-14" transform="translate(252.46 616.35) rotate(-150.21)"><tspan x="0" y="0"> </tspan></text><text class="cls-14" transform="translate(248.81 614.26) rotate(-149.32)"><tspan x="0" y="0"> </tspan></text><text class="cls-14" transform="translate(245.23 612.13) rotate(-148.44)"><tspan x="0" y="0"> </tspan></text><text class="cls-14" transform="translate(241.64 609.93) rotate(-147.55)"><tspan x="0" y="0"> </tspan></text><text class="cls-14" transform="translate(238.12 607.69) rotate(-146.66)"><tspan x="0" y="0"> </tspan></text><text class="cls-14" transform="translate(234.63 605.39) rotate(-145.77)"><tspan x="0" y="0"> </tspan></text><text class="cls-14" transform="translate(231.16 603.03) rotate(-144.88)"><tspan x="0" y="0"> </tspan></text><text class="cls-14" transform="translate(227.75 600.66) rotate(-143.65)"><tspan x="0" y="0">J</tspan></text><text class="cls-14" transform="translate(221.86 596.38) rotate(-141.58)"><tspan x="0" y="0">Ä</tspan></text><text class="cls-14" transform="translate(212.37 588.84) rotate(-139.13)"><tspan x="0" y="0">R</tspan></text><text class="cls-14" transform="translate(204.35 581.86) rotate(-137.21)"><tspan x="0" y="0">J</tspan></text><text class="cls-14" transform="translate(198.98 576.93) rotate(-135.38)"><tspan x="0" y="0">E</tspan></text><text class="cls-14" transform="translate(192.06 570.1) rotate(-133.28)"><tspan x="0" y="0">S</tspan></text><text class="cls-14" transform="translate(185.38 563.01) rotate(-131.18)"><tspan x="0" y="0">T</tspan></text><text class="cls-14" transform="translate(178.55 555.2) rotate(-128.85)"><tspan x="0" y="0">Y</tspan></text><text class="cls-14" transform="translate(172.02 547.09) rotate(-126.72)"><tspan x="0" y="0">S</tspan></text><text class="cls-14" transform="translate(166.2 539.23) rotate(-125.22)"><tspan x="0" y="0"> </tspan></text><text class="cls-14" transform="translate(163.79 535.82) rotate(-124.33)"><tspan x="0" y="0"> </tspan></text><text class="cls-14" transform="translate(161.44 532.37) rotate(-123.43)"><tspan x="0" y="0"> </tspan></text><text class="cls-14" transform="translate(159.12 528.87) rotate(-122.54)"><tspan x="0" y="0"> </tspan></text><text class="cls-14" transform="translate(156.87 525.34) rotate(-121.64)"><tspan x="0" y="0"> </tspan></text><text class="cls-14" transform="translate(154.67 521.77) rotate(-120.74)"><tspan x="0" y="0"> </tspan></text><text class="cls-14" transform="translate(152.53 518.17) rotate(-119.85)"><tspan x="0" y="0"> </tspan></text><text class="cls-14" transform="translate(150.45 514.55) rotate(-118.96)"><tspan x="0" y="0"> </tspan></text><text class="cls-14" transform="translate(148.43 510.89) rotate(-118.07)"><tspan x="0" y="0"> </tspan></text><text class="cls-14" transform="translate(146.45 507.18) rotate(-117.17)"><tspan x="0" y="0"> </tspan></text><text class="cls-14" transform="translate(144.53 503.44) rotate(-116.27)"><tspan x="0" y="0"> </tspan></text><text class="cls-14" transform="translate(142.68 499.7) rotate(-115.38)"><tspan x="0" y="0"> </tspan></text><text class="cls-14" transform="translate(140.9 495.94) rotate(-114.5)"><tspan x="0" y="0"> </tspan></text><text class="cls-14" transform="translate(139.16 492.12) rotate(-113.6)"><tspan x="0" y="0"> </tspan></text><text class="cls-14" transform="translate(137.48 488.28) rotate(-112.71)"><tspan x="0" y="0"> </tspan></text><text class="cls-14" transform="translate(135.82 484.49) rotate(-110.98)"><tspan x="0" y="0">A</tspan></text><text class="cls-14" transform="translate(131.39 472.79) rotate(-108.83)"><tspan x="0" y="0">J</tspan></text><text class="cls-14" transform="translate(128.98 465.93) rotate(-106.61)"><tspan x="0" y="0">O</tspan></text><text class="cls-14" transform="translate(125.15 452.83) rotate(-104.66)"><tspan x="0" y="0">I</tspan></text><text class="cls-14" transform="translate(123.93 448.29) rotate(-103.11)"><tspan x="0" y="0">T</tspan></text><text class="cls-14" transform="translate(121.67 438.76) rotate(-100.7)"><tspan x="0" y="0">U</tspan></text><text class="cls-14" transform="translate(119.33 426.18) rotate(-98.3)"><tspan x="0" y="0">S</tspan></text><text class="cls-14" transform="translate(117.95 416.5) rotate(-96.81)"><tspan x="0" y="0"> </tspan></text><text class="cls-16" transform="translate(117.45 412.33) rotate(-95.91)"><tspan x="0" y="0"> </tspan></text><text class="cls-16" transform="translate(117.02 408.18) rotate(-95.02)"><tspan x="0" y="0"> </tspan></text><text class="cls-16" transform="translate(116.65 403.99) rotate(-94.12)"><tspan x="0" y="0"> </tspan></text><text class="cls-16" transform="translate(116.35 399.81) rotate(-93.22)"><tspan x="0" y="0"> </tspan></text><text class="cls-16" transform="translate(116.12 395.6) rotate(-92.31)"><tspan x="0" y="0"> </tspan></text><text class="cls-16" transform="translate(115.95 391.42) rotate(-91.41)"><tspan x="0" y="0"> </tspan></text><text class="cls-16" transform="translate(115.84 387.22) rotate(-90.51)"><tspan x="0" y="0"> </tspan></text><text class="cls-16" transform="translate(115.8 383.02) rotate(-89.61)"><tspan x="0" y="0"> </tspan></text><text class="cls-16" transform="translate(115.77 378.87) rotate(-87.85)"><tspan x="0" y="0">A</tspan></text><text class="cls-16" transform="translate(116.24 366.76) rotate(-85.4)"><tspan x="0" y="0">R</tspan></text><text class="cls-16" transform="translate(117.12 355.83) rotate(-82.98)"><tspan x="0" y="0">V</tspan></text><text class="cls-16" transform="translate(118.43 344.87) rotate(-80.31)"><tspan x="0" y="0">O</tspan></text><text class="cls-16" transform="translate(120.76 331.43) rotate(-77.79)"><tspan x="0" y="0">S</tspan></text><text class="cls-16" transform="translate(122.83 321.86) rotate(-75.66)"><tspan x="0" y="0">T</tspan></text><text class="cls-16" transform="translate(125.23 312.35) rotate(-73.22)"><tspan x="0" y="0">U</tspan></text><text class="cls-16" transform="translate(128.94 300.1) rotate(-70.69)"><tspan x="0" y="0">K</tspan></text><text class="cls-16" transform="translate(132.5 289.96) rotate(-68.49)"><tspan x="0" y="0">S</tspan></text><text class="cls-16" transform="translate(136.08 280.88) rotate(-66.41)"><tspan x="0" y="0">E</tspan></text><text class="cls-16" transform="translate(140.11 271.66) rotate(-64.26)"><tspan x="0" y="0">T</tspan></text><text class="cls-16" transform="translate(144.48 262.74) rotate(-63.46)"><tspan x="0" y="0"> </tspan></text><text class="cls-16" transform="translate(146.34 259.05) rotate(-61.59)"><tspan x="0" y="0"> </tspan></text><text class="cls-16" transform="translate(148.32 255.35) rotate(-61.01)"><tspan x="0" y="0"> </tspan></text><text class="cls-16" transform="translate(150.37 251.66) rotate(-60.12)"><tspan x="0" y="0"> </tspan></text><text class="cls-16" transform="translate(152.46 248.02) rotate(-59.23)"><tspan x="0" y="0"> </tspan></text><text class="cls-16" transform="translate(154.61 244.4) rotate(-58.34)"><tspan x="0" y="0"> </tspan></text><text class="cls-16" transform="translate(156.81 240.83) rotate(-57.44)"><tspan x="0" y="0"> </tspan></text><text class="cls-16" transform="translate(159.07 237.3) rotate(-56.54)"><tspan x="0" y="0"> </tspan></text><text class="cls-16" transform="translate(161.28 233.82) rotate(-54.72)"><tspan x="0" y="0">U</tspan></text><text class="cls-16" transform="translate(168.72 223.35) rotate(-52.29)"><tspan x="0" y="0">S</tspan></text><text class="cls-16" transform="translate(174.67 215.63) rotate(-50.08)"><tspan x="0" y="0">K</tspan></text><text class="cls-16" transform="translate(181.3 207.64) rotate(-47.52)"><tspan x="0" y="0">O</tspan></text><text class="cls-16" transform="translate(190.47 197.57) rotate(-44.33)"><tspan x="0" y="0">M</tspan></text><text class="cls-16" transform="translate(201.91 186.46) rotate(-41.22)"><tspan x="0" y="0">U</tspan></text><text class="cls-16" transform="translate(211.56 178.03) rotate(-38.68)"><tspan x="0" y="0">K</tspan></text><text class="cls-16" transform="translate(219.95 171.32) rotate(-36.47)"><tspan x="0" y="0">S</tspan></text><text class="cls-16" transform="translate(227.8 165.52) rotate(-34.37)"><tspan x="0" y="0">E</tspan></text><text class="cls-16" transform="translate(236.12 159.83) rotate(-32.19)"><tspan x="0" y="0">T</tspan></text><text class="cls-16" transform="translate(244.49 154.6) rotate(-30.69)"><tspan x="0" y="0"> </tspan></text><text class="cls-16" transform="translate(248.08 152.47) rotate(-29.8)"><tspan x="0" y="0"> </tspan></text><text class="cls-16" transform="translate(251.73 150.38) rotate(-28.9)"><tspan x="0" y="0"> </tspan></text><text class="cls-16" transform="translate(255.41 148.35) rotate(-28)"><tspan x="0" y="0"> </tspan></text><text class="cls-16" transform="translate(259.12 146.38) rotate(-27.1)"><tspan x="0" y="0"> </tspan></text><text class="cls-16" transform="translate(262.79 144.44) rotate(-25.51)"><tspan x="0" y="0">K</tspan></text><text class="cls-16" transform="translate(272.14 139.93) rotate(-22.98)"><tspan x="0" y="0">O</tspan></text><text class="cls-16" transform="translate(284.74 134.63) rotate(-20.38)"><tspan x="0" y="0">K</tspan></text><text class="cls-16" transform="translate(294.81 130.89) rotate(-18.2)"><tspan x="0" y="0">E</tspan></text><text class="cls-16" transform="translate(304.01 127.78) rotate(-15.47)"><tspan x="0" y="0">M</tspan></text><text class="cls-16" transform="translate(319.38 123.57) rotate(-12.42)"><tspan x="0" y="0">U</tspan></text><text class="cls-16" transform="translate(331.89 120.84) rotate(-9.91)"><tspan x="0" y="0">K</tspan></text><text class="cls-16" transform="translate(342.48 118.99) rotate(-7.73)"><tspan x="0" y="0">S</tspan></text><text class="cls-16" transform="translate(352.15 117.68) rotate(-5.65)"><tspan x="0" y="0">E</tspan></text><text class="cls-16" transform="translate(362.16 116.69) rotate(-3.49)"><tspan x="0" y="0">T</tspan></text><circle class="cls-21" cx="387.03" cy="381.1" r="124.75"/><line class="cls-21" x1="387.42" y1="163.84" x2="389.41" y2="599.84"/><line class="cls-21" x1="599.52" y1="380.3" x2="169.83" y2="382.38"/><line class="cls-21" x1="447.66" y1="271.36" x2="493.93" y2="191.63"/><line class="cls-21" x1="280.99" y1="573.28" x2="327.22" y2="489.47"/><line class="cls-21" x1="199.28" y1="493.54" x2="281.62" y2="446.54"/><line class="cls-21" x1="491.49" y1="316.16" x2="574.64" y2="270.36"/><line class="cls-21" x1="446.18" y1="484.29" x2="497.55" y2="569.63"/><line class="cls-21" x1="276.37" y1="195.27" x2="323.25" y2="276.18"/><line class="cls-21" x1="196.64" y1="276.98" x2="281.28" y2="323.73"/><line class="cls-21" x1="494.84" y1="441.2" x2="577.29" y2="487.92"/><circle class="cls-22" cx="387.42" cy="382.38" r="209.59"/><circle class="cls-19" cx="386.39" cy="383.33" r="115"/><text class="cls-18" transform="translate(414.17 275.35) rotate(14.92)"><tspan x="0" y="0"> </tspan></text><text class="cls-18" transform="translate(417.49 276.23) rotate(16.72)"><tspan x="0" y="0"> </tspan></text><text class="cls-18" transform="translate(420.75 277.21) rotate(18.51)"><tspan x="0" y="0"> </tspan></text><text class="cls-18" transform="translate(423.94 278.13) rotate(22.31)"><tspan x="0" y="0">O</tspan></text><text class="cls-18" transform="translate(434.21 282.42) rotate(27.2)"><tspan x="0" y="0">L</tspan></text><text class="cls-18" transform="translate(440.41 285.49) rotate(31.74)"><tspan x="0" y="0">O</tspan></text><text class="cls-18" transform="translate(449.85 291.4) rotate(36.68)"><tspan x="0" y="0">S</tspan></text><text class="cls-18" transform="translate(456.23 296.07) rotate(41.43)"><tspan x="0" y="0">U</tspan></text><text class="cls-18" transform="translate(464.07 302.97) rotate(46.86)"><tspan x="0" y="0">H</tspan></text><text class="cls-18" transform="translate(471.23 310.68) rotate(51.64)"><tspan x="0" y="0">T</tspan></text><text class="cls-18" transform="translate(476.19 316.93) rotate(55.76)"><tspan x="0" y="0">E</tspan></text><text class="cls-18" transform="translate(480.65 323.47) rotate(59.88)"><tspan x="0" y="0">E</tspan></text><text class="cls-18" transform="translate(484.76 330.57) rotate(64.19)"><tspan x="0" y="0">T</tspan></text><text class="cls-18" transform="translate(488.21 337.82) rotate(67.16)"><tspan x="0" y="0"> </tspan></text><text class="cls-18" transform="translate(489.54 340.99) rotate(68.96)"><tspan x="0" y="0"> </tspan></text><text class="cls-18" transform="translate(490.77 344.17) rotate(70.75)"><tspan x="0" y="0"> </tspan></text><text class="cls-18" transform="translate(491.89 347.38) rotate(72.53)"><tspan x="0" y="0"> </tspan></text><text class="cls-18" transform="translate(492.91 350.63) rotate(74.32)"><tspan x="0" y="0"> </tspan></text><text class="cls-18" transform="translate(493.84 353.92) rotate(76.12)"><tspan x="0" y="0"> </tspan></text><text class="cls-18" transform="translate(494.66 357.21) rotate(77.9)"><tspan x="0" y="0"> </tspan></text><text class="cls-18" transform="translate(495.38 360.57) rotate(79.69)"><tspan x="0" y="0"> </tspan></text><text class="cls-18" transform="translate(495.99 363.91) rotate(81.47)"><tspan x="0" y="0"> </tspan></text><text class="cls-18" transform="translate(496.5 367.3) rotate(83.25)"><tspan x="0" y="0"> </tspan></text><text class="cls-18" transform="translate(496.89 370.67) rotate(85.02)"><tspan x="0" y="0"> </tspan></text><text class="cls-18" transform="translate(497.19 374.08) rotate(86.78)"><tspan x="0" y="0"> </tspan></text><text class="cls-18" transform="translate(497.39 377.49) rotate(88.54)"><tspan x="0" y="0"> </tspan></text><text class="cls-18" transform="translate(497.5 380.86) rotate(90.93)"><tspan x="0" y="0"> </tspan></text><text class="cls-18" transform="translate(497.46 384.29) rotate(92.02)"><tspan x="0" y="0"> </tspan></text><text class="cls-18" transform="translate(497.34 387.72) rotate(93.79)"><tspan x="0" y="0"> </tspan></text><text class="cls-18" transform="translate(497.12 391.12) rotate(95.55)"><tspan x="0" y="0"> </tspan></text><text class="cls-18" transform="translate(496.79 394.52) rotate(97.32)"><tspan x="0" y="0"> </tspan></text><text class="cls-18" transform="translate(496.36 397.89) rotate(99.09)"><tspan x="0" y="0"> </tspan></text><text class="cls-18" transform="translate(495.82 401.27) rotate(100.88)"><tspan x="0" y="0"> </tspan></text><text class="cls-18" transform="translate(495.18 404.61) rotate(102.66)"><tspan x="0" y="0"> </tspan></text><text class="cls-18" transform="translate(494.43 407.93) rotate(104.45)"><tspan x="0" y="0"> </tspan></text><text class="cls-18" transform="translate(493.57 411.26) rotate(106.26)"><tspan x="0" y="0"> </tspan></text><text class="cls-18" transform="translate(492.63 414.51) rotate(108.03)"><tspan x="0" y="0"> </tspan></text><text class="cls-18" transform="translate(491.57 417.76) rotate(109.82)"><tspan x="0" y="0"> </tspan></text><text class="cls-18" transform="translate(490.41 420.98) rotate(111.62)"><tspan x="0" y="0"> </tspan></text><text class="cls-18" transform="translate(489.48 423.58) rotate(114.56)"><tspan x="0" y="0">V</tspan></text><text class="cls-18" transform="translate(485.81 431.76) rotate(119.8)"><tspan x="0" y="0">O</tspan></text><text class="cls-18" transform="translate(480.16 441.39) rotate(123.69)"><tspan x="0" y="0">I</tspan></text><text class="cls-18" transform="translate(478.23 444.61) rotate(128.04)"><tspan x="0" y="0">M</tspan></text><text class="cls-18" transform="translate(470.28 454.68) rotate(133.87)"><tspan x="0" y="0">A</tspan></text><text class="cls-18" transform="translate(464.05 461.19) rotate(138.3)"><tspan x="0" y="0">V</tspan></text><text class="cls-18" transform="translate(458.09 466.59) rotate(142.69)"><tspan x="0" y="0">A</tspan></text><text class="cls-18" transform="translate(450.22 472.56) rotate(147.51)"><tspan x="0" y="0">R</tspan></text><text class="cls-18" transform="translate(442.87 477.28) rotate(152.38)"><tspan x="0" y="0">A</tspan></text><text class="cls-18" transform="translate(435.23 481.3) rotate(156.39)"><tspan x="0" y="0">T</tspan></text><text class="cls-18" transform="translate(427.83 484.47) rotate(159.38)"><tspan x="0" y="0"> </tspan></text><text class="cls-18" transform="translate(424.64 485.67) rotate(161.17)"><tspan x="0" y="0"> </tspan></text><text class="cls-18" transform="translate(421.41 486.78) rotate(162.97)"><tspan x="0" y="0"> </tspan></text><text class="cls-18" transform="translate(418.16 487.77) rotate(164.75)"><tspan x="0" y="0"> </tspan></text><text class="cls-18" transform="translate(414.86 488.67) rotate(166.54)"><tspan x="0" y="0"> </tspan></text><text class="cls-18" transform="translate(411.56 489.46) rotate(168.32)"><tspan x="0" y="0"> </tspan></text><text class="cls-18" transform="translate(408.2 490.16) rotate(170.12)"><tspan x="0" y="0"> </tspan></text><text class="cls-18" transform="translate(404.84 490.75) rotate(171.9)"><tspan x="0" y="0"> </tspan></text><text class="cls-18" transform="translate(401.47 491.23) rotate(173.67)"><tspan x="0" y="0"> </tspan></text><text class="cls-18" transform="translate(398.07 491.61) rotate(175.44)"><tspan x="0" y="0"> </tspan></text><text class="cls-18" transform="translate(394.68 491.88) rotate(177.2)"><tspan x="0" y="0"> </tspan></text><text class="cls-18" transform="translate(391.26 492.05) rotate(178.96)"><tspan x="0" y="0"> </tspan></text><text class="cls-18" transform="translate(387.88 492.12) rotate(-179.07)"><tspan x="0" y="0"> </tspan></text><text class="cls-18" transform="translate(384.43 492.07) rotate(-177.55)"><tspan x="0" y="0"> </tspan></text><text class="cls-18" transform="translate(381.03 491.93) rotate(-175.8)"><tspan x="0" y="0"> </tspan></text><text class="cls-18" transform="translate(377.64 491.68) rotate(-174.03)"><tspan x="0" y="0"> </tspan></text><text class="cls-18" transform="translate(374.25 491.32) rotate(-172.26)"><tspan x="0" y="0"> </tspan></text><text class="cls-18" transform="translate(370.87 490.87) rotate(-170.48)"><tspan x="0" y="0"> </tspan></text><text class="cls-18" transform="translate(367.5 490.3) rotate(-168.69)"><tspan x="0" y="0"> </tspan></text><text class="cls-18" transform="translate(364.16 489.64) rotate(-166.91)"><tspan x="0" y="0"> </tspan></text><text class="cls-18" transform="translate(360.82 488.86) rotate(-165.11)"><tspan x="0" y="0"> </tspan></text><text class="cls-18" transform="translate(357.52 487.99) rotate(-163.32)"><tspan x="0" y="0"> </tspan></text><text class="cls-18" transform="translate(354.27 487.01) rotate(-161.54)"><tspan x="0" y="0"> </tspan></text><text class="cls-18" transform="translate(351.03 485.93) rotate(-159.75)"><tspan x="0" y="0"> </tspan></text><text class="cls-18" transform="translate(347.82 484.75) rotate(-157.95)"><tspan x="0" y="0"> </tspan></text><text class="cls-18" transform="translate(344.68 483.48) rotate(-156.17)"><tspan x="0" y="0"> </tspan></text><text class="cls-18" transform="translate(342.23 482.5) rotate(-153.38)"><tspan x="0" y="0">Y</tspan></text><text class="cls-18" transform="translate(334.6 478.81) rotate(-147.83)"><tspan x="0" y="0">M</tspan></text><text class="cls-18" transform="translate(323.64 471.81) rotate(-142.24)"><tspan x="0" y="0">P</tspan></text><text class="cls-18" transform="translate(317.9 467.45) rotate(-138.17)"><tspan x="0" y="0">Ä</tspan></text><text class="cls-18" transform="translate(310.55 460.86) rotate(-133.38)"><tspan x="0" y="0">R</tspan></text><text class="cls-18" transform="translate(304.61 454.48) rotate(-130.14)"><tspan x="0" y="0">I</tspan></text><text class="cls-18" transform="translate(302.12 451.62) rotate(-127.09)"><tspan x="0" y="0">S</tspan></text><text class="cls-18" transform="translate(297.32 445.28) rotate(-122.94)"><tspan x="0" y="0">T</tspan></text><text class="cls-18" transform="translate(293.15 439.03) rotate(-118.21)"><tspan x="0" y="0">Ö</tspan></text><text class="cls-18" transform="translate(287.98 429.11) rotate(-114.42)"><tspan x="0" y="0"> </tspan></text><text class="cls-18" transform="translate(286.57 426.01) rotate(-112.63)"><tspan x="0" y="0"> </tspan></text><text class="cls-18" transform="translate(285.25 422.85) rotate(-110.84)"><tspan x="0" y="0"> </tspan></text><text class="cls-18" transform="translate(284.04 419.67) rotate(-109.05)"><tspan x="0" y="0"> </tspan></text><text class="cls-18" transform="translate(282.92 416.44) rotate(-107.26)"><tspan x="0" y="0"> </tspan></text><text class="cls-18" transform="translate(281.91 413.2) rotate(-105.48)"><tspan x="0" y="0"> </tspan></text><text class="cls-18" transform="translate(281 409.9) rotate(-103.68)"><tspan x="0" y="0"> </tspan></text><text class="cls-18" transform="translate(280.19 406.58) rotate(-101.89)"><tspan x="0" y="0"> </tspan></text><text class="cls-18" transform="translate(279.48 403.25) rotate(-100.11)"><tspan x="0" y="0"> </tspan></text><text class="cls-18" transform="translate(278.89 399.9) rotate(-98.33)"><tspan x="0" y="0"> </tspan></text><text class="cls-18" transform="translate(278.39 396.51) rotate(-96.54)"><tspan x="0" y="0"> </tspan></text><text class="cls-18" transform="translate(278 393.13) rotate(-94.78)"><tspan x="0" y="0"> </tspan></text><text class="cls-18" transform="translate(277.71 389.72) rotate(-93.02)"><tspan x="0" y="0"> </tspan></text><text class="cls-18" transform="translate(277.53 386.33) rotate(-91.27)"><tspan x="0" y="0"> </tspan></text><text class="cls-18" transform="translate(277.44 382.93) rotate(-89.07)"><tspan x="0" y="0"> </tspan></text><text class="cls-18" transform="translate(277.48 379.5) rotate(-87.78)"><tspan x="0" y="0"> </tspan></text><text class="cls-18" transform="translate(277.62 376.08) rotate(-86.01)"><tspan x="0" y="0"> </tspan></text><text class="cls-18" transform="translate(277.85 372.68) rotate(-84.25)"><tspan x="0" y="0"> </tspan></text><text class="cls-18" transform="translate(278.19 369.3) rotate(-82.49)"><tspan x="0" y="0"> </tspan></text><text class="cls-18" transform="translate(278.63 365.92) rotate(-80.7)"><tspan x="0" y="0"> </tspan></text><text class="cls-18" transform="translate(279.19 362.53) rotate(-78.91)"><tspan x="0" y="0"> </tspan></text><text class="cls-18" transform="translate(279.84 359.21) rotate(-77.14)"><tspan x="0" y="0"> </tspan></text><text class="cls-18" transform="translate(280.6 355.87) rotate(-75.34)"><tspan x="0" y="0"> </tspan></text><text class="cls-18" transform="translate(281.46 352.56) rotate(-73.54)"><tspan x="0" y="0"> </tspan></text><text class="cls-18" transform="translate(282.43 349.3) rotate(-71.76)"><tspan x="0" y="0"> </tspan></text><text class="cls-18" transform="translate(283.42 346.1) rotate(-68.88)"><tspan x="0" y="0">L</tspan></text><text class="cls-18" transform="translate(286.11 338.99) rotate(-64.29)"><tspan x="0" y="0">Ä</tspan></text><text class="cls-18" transform="translate(290.34 330.13) rotate(-59)"><tspan x="0" y="0">H</tspan></text><text class="cls-18" transform="translate(295.81 321.12) rotate(-54.18)"><tspan x="0" y="0">T</tspan></text><text class="cls-18" transform="translate(300.14 314.96) rotate(-49.46)"><tspan x="0" y="0">Ö</tspan></text><text class="cls-18" transform="translate(307.4 306.54) rotate(-44.34)"><tspan x="0" y="0">K</tspan></text><text class="cls-18" transform="translate(313.39 300.58) rotate(-39.34)"><tspan x="0" y="0">O</tspan></text><text class="cls-18" transform="translate(321.97 293.55) rotate(-33.74)"><tspan x="0" y="0">H</tspan></text><text class="cls-18" transform="translate(330.67 287.71) rotate(-28.23)"><tspan x="0" y="0">D</tspan></text><text class="cls-18" transform="translate(339.94 282.73) rotate(-22.96)"><tspan x="0" y="0">A</tspan></text><text class="cls-18" transform="translate(347.87 279.36) rotate(-18.94)"><tspan x="0" y="0">T</tspan></text><text class="cls-17" transform="translate(401.68 179.17) rotate(4.93) skewX(.03)"><tspan x="0" y="0">T</tspan></text><text class="cls-17" transform="translate(410.22 179.91) rotate(7.35) skewX(.03)"><tspan x="0" y="0">E</tspan></text><text class="cls-17" transform="translate(418.62 180.98) rotate(9.86) skewX(.04)"><tspan x="0" y="0">R</tspan></text><text class="cls-17" transform="translate(428 182.61) rotate(12.6) skewX(.04)"><tspan x="0" y="0">V</tspan></text><text class="cls-17" transform="translate(437.41 184.72) rotate(15.17) skewX(.04)"><tspan x="0" y="0">E</tspan></text><text class="cls-17" transform="translate(445.61 186.93) rotate(17.7) skewX(.04)"><tspan x="0" y="0">Y</tspan></text><text class="cls-17" transform="translate(454.29 189.71) rotate(20.16) skewX(.04)"><tspan x="0" y="0">S</tspan></text><text class="cls-17" transform="translate(462.29 192.68) rotate(21.88) skewX(.05)"><tspan x="0" y="0"> </tspan></text><text class="cls-17" transform="translate(465.66 194.03) rotate(22.9) skewX(.05)"><tspan x="0" y="0"> </tspan></text><text class="cls-17" transform="translate(469.04 195.46) rotate(23.93) skewX(.05)"><tspan x="0" y="0"> </tspan></text><text class="cls-17" transform="translate(472.37 196.94) rotate(24.95) skewX(.05)"><tspan x="0" y="0"> </tspan></text><text class="cls-17" transform="translate(475.68 198.48) rotate(25.98) skewX(.05)"><tspan x="0" y="0"> </tspan></text><text class="cls-17" transform="translate(478.97 200.08) rotate(27) skewX(.05)"><tspan x="0" y="0"> </tspan></text><text class="cls-17" transform="translate(482.22 201.74) rotate(28.01) skewX(.05)"><tspan x="0" y="0"> </tspan></text><text class="cls-17" transform="translate(485.44 203.45) rotate(29.03) skewX(.05)"><tspan x="0" y="0"> </tspan></text><text class="cls-17" transform="translate(488.66 205.23) rotate(30.05) skewX(.05)"><tspan x="0" y="0"> </tspan></text><text class="cls-17" transform="translate(491.78 206.92) rotate(32.44) skewX(.05)"><tspan x="0" y="0">H</tspan></text><text class="cls-17" transform="translate(501.2 212.88) rotate(34.9) skewX(.05)"><tspan x="0" y="0">Y</tspan></text><text class="cls-17" transform="translate(509.27 218.52) rotate(37.69) skewX(.05)"><tspan x="0" y="0">V</tspan></text><text class="cls-17" transform="translate(516.89 224.46) rotate(39.62) skewX(.05)"><tspan x="0" y="0">I</tspan></text><text class="cls-17" transform="translate(520.04 226.98) rotate(41.78) skewX(.05)"><tspan x="0" y="0">N</tspan></text><text class="cls-17" transform="translate(528.52 234.58) rotate(44.75) skewX(.04)"><tspan x="0" y="0">V</tspan></text><text class="cls-17" transform="translate(535.36 241.31) rotate(47.79) skewX(.04)"><tspan x="0" y="0">O</tspan></text><text class="cls-17" transform="translate(543.31 250.18) rotate(50.05) skewX(.04)"><tspan x="0" y="0">I</tspan></text><text class="cls-17" transform="translate(545.98 253.26) rotate(52.23) skewX(.04)"><tspan x="0" y="0">N</tspan></text><text class="cls-17" transform="translate(552.91 262.26) rotate(55.05) skewX(.03)"><tspan x="0" y="0">T</tspan></text><text class="cls-17" transform="translate(557.81 269.32) rotate(56.84) skewX(.03)"><tspan x="0" y="0">I</tspan></text><text class="cls-17" transform="translate(560.07 272.78) rotate(57.94) skewX(.03)"><tspan x="0" y="0"> </tspan></text><text class="cls-17" transform="translate(561.99 275.86) rotate(58.96) skewX(.03)"><tspan x="0" y="0"> </tspan></text><text class="cls-17" transform="translate(563.54 278.35) rotate(60.49) skewX(.03)"><tspan x="0" y="0">T</tspan></text><text class="cls-17" transform="translate(567.57 285.35) rotate(63.23) skewX(.02)"><tspan x="0" y="0">O</tspan></text><text class="cls-17" transform="translate(572.87 296.02) rotate(65.47) skewX(.02)"><tspan x="0" y="0">I</tspan></text><text class="cls-17" transform="translate(574.65 299.66) rotate(67.99) skewX(.01)"><tspan x="0" y="0">M</tspan></text><text class="cls-17" transform="translate(579.77 312.61) rotate(70.5)"><tspan x="0" y="0">I</tspan></text><text class="cls-17" transform="translate(581.2 316.44) rotate(72.67)"><tspan x="0" y="0">N</tspan></text><text class="cls-17" transform="translate(584.56 327.29) rotate(75.45)"><tspan x="0" y="0">T</tspan></text><text class="cls-17" transform="translate(586.43 334.3) rotate(77.76)"><tspan x="0" y="0">A</tspan></text><text class="cls-17" transform="translate(588.66 344.63) rotate(80.54)"><tspan x="0" y="0">K</tspan></text><text class="cls-17" transform="translate(590.18 353.72) rotate(83.12) skewX(-.01)"><tspan x="0" y="0">Y</tspan></text><text class="cls-17" transform="translate(591.29 362.85) rotate(85.7) skewX(-.02)"><tspan x="0" y="0">K</tspan></text><text class="cls-17" transform="translate(591.98 372.06) rotate(88.29) skewX(-.02)"><tspan x="0" y="0">Y</tspan></text><text class="cls-17" transform="translate(592.22 381.41) rotate(90.11) skewX(-.02)"><tspan x="0" y="0"> </tspan></text><text class="cls-17" transform="translate(592.21 385.06) rotate(91.14) skewX(-.02)"><tspan x="0" y="0"> </tspan></text><text class="cls-17" transform="translate(592.14 388.7) rotate(92.17) skewX(-.03)"><tspan x="0" y="0"> </tspan></text><text class="cls-17" transform="translate(592 392.35) rotate(93.2) skewX(-.03)"><tspan x="0" y="0"> </tspan></text><text class="cls-17" transform="translate(591.8 396) rotate(94.23) skewX(-.03)"><tspan x="0" y="0"> </tspan></text><text class="cls-17" transform="translate(591.53 399.65) rotate(95.27) skewX(-.03)"><tspan x="0" y="0"> </tspan></text><text class="cls-17" transform="translate(591.19 403.3) rotate(96.3) skewX(-.03)"><tspan x="0" y="0"> </tspan></text><text class="cls-17" transform="translate(590.79 406.93) rotate(97.34) skewX(-.03)"><tspan x="0" y="0"> </tspan></text><text class="cls-17" transform="translate(590.46 409.81) rotate(98.87) skewX(-.03)"><tspan x="0" y="0">T</tspan></text><text class="cls-17" transform="translate(589.4 417) rotate(101.21) skewX(-.04)"><tspan x="0" y="0">A</tspan></text><text class="cls-17" transform="translate(587.28 427.36) rotate(103.29) skewX(-.04)"><tspan x="0" y="0">I</tspan></text><text class="cls-17" transform="translate(586.41 431.36) rotate(105.51) skewX(-.04)"><tspan x="0" y="0">D</tspan></text><text class="cls-17" transform="translate(583.36 442.41) rotate(108.83) skewX(-.04)"><tspan x="0" y="0">O</tspan></text><text class="cls-17" transform="translate(579.63 453.25) rotate(111.6) skewX(-.05)"><tspan x="0" y="0">T</tspan></text><text class="cls-17" transform="translate(576.43 461.25) rotate(113.33) skewX(-.05)"><tspan x="0" y="0"> </tspan></text><text class="cls-17" transform="translate(574.99 464.59) rotate(114.36) skewX(-.05)"><tspan x="0" y="0"> </tspan></text><text class="cls-17" transform="translate(573.48 467.92) rotate(115.39) skewX(-.05)"><tspan x="0" y="0"> </tspan></text><text class="cls-17" transform="translate(571.92 471.21) rotate(116.41) skewX(-.05)"><tspan x="0" y="0"> </tspan></text><text class="cls-17" transform="translate(570.29 474.49) rotate(117.44) skewX(-.05)"><tspan x="0" y="0"> </tspan></text><text class="cls-17" transform="translate(568.61 477.73) rotate(118.46) skewX(-.05)"><tspan x="0" y="0"> </tspan></text><text class="cls-17" transform="translate(566.86 480.96) rotate(119.48) skewX(-.05)"><tspan x="0" y="0"> </tspan></text><text class="cls-17" transform="translate(565.07 484.12) rotate(120.49) skewX(-.05)"><tspan x="0" y="0"> </tspan></text><text class="cls-17" transform="translate(563.26 487.25) rotate(122.4) skewX(-.05)"><tspan x="0" y="0"> </tspan></text><text class="cls-17" transform="translate(561.31 490.38) rotate(122.51) skewX(-.05)"><tspan x="0" y="0"> </tspan></text><text class="cls-17" transform="translate(559.36 493.45) rotate(123.52) skewX(-.05)"><tspan x="0" y="0"> </tspan></text><text class="cls-17" transform="translate(557.33 496.51) rotate(124.55) skewX(-.05)"><tspan x="0" y="0"> </tspan></text><text class="cls-17" transform="translate(555.26 499.51) rotate(125.57) skewX(-.05)"><tspan x="0" y="0"> </tspan></text><text class="cls-17" transform="translate(553.6 501.91) rotate(127.08) skewX(-.05)"><tspan x="0" y="0">T</tspan></text><text class="cls-17" transform="translate(548.39 508.76) rotate(128.87) skewX(-.05)"><tspan x="0" y="0">I</tspan></text><text class="cls-17" transform="translate(545.87 511.94) rotate(130.64) skewX(-.05)"><tspan x="0" y="0">E</tspan></text><text class="cls-17" transform="translate(540.37 518.4) rotate(133.48) skewX(-.04)"><tspan x="0" y="0">D</tspan></text><text class="cls-17" transform="translate(532.5 526.72) rotate(136.79) skewX(-.04)"><tspan x="0" y="0">O</tspan></text><text class="cls-17" transform="translate(524.13 534.55) rotate(139.58) skewX(-.04)"><tspan x="0" y="0">T</tspan></text><text class="cls-17" transform="translate(517.56 540.1) rotate(141.32) skewX(-.04)"><tspan x="0" y="0"> </tspan></text><text class="cls-17" transform="translate(514.71 542.38) rotate(142.35) skewX(-.04)"><tspan x="0" y="0"> </tspan></text><text class="cls-17" transform="translate(511.82 544.61) rotate(143.39) skewX(-.03)"><tspan x="0" y="0"> </tspan></text><text class="cls-17" transform="translate(508.9 546.78) rotate(144.43) skewX(-.03)"><tspan x="0" y="0"> </tspan></text><text class="cls-17" transform="translate(505.91 548.91) rotate(145.47) skewX(-.03)"><tspan x="0" y="0"> </tspan></text><text class="cls-17" transform="translate(502.92 550.97) rotate(146.5) skewX(-.03)"><tspan x="0" y="0"> </tspan></text><text class="cls-17" transform="translate(499.87 552.99) rotate(147.54) skewX(-.03)"><tspan x="0" y="0"> </tspan></text><text class="cls-17" transform="translate(496.78 554.96) rotate(148.57) skewX(-.03)"><tspan x="0" y="0"> </tspan></text><text class="cls-17" transform="translate(493.67 556.86) rotate(149.61) skewX(-.03)"><tspan x="0" y="0"> </tspan></text><text class="cls-17" transform="translate(490.52 558.71) rotate(150.64) skewX(-.03)"><tspan x="0" y="0"> </tspan></text><text class="cls-17" transform="translate(487.34 560.5) rotate(151.67) skewX(-.02)"><tspan x="0" y="0"> </tspan></text><text class="cls-17" transform="translate(484.14 562.22) rotate(152.7) skewX(-.02)"><tspan x="0" y="0"> </tspan></text><text class="cls-17" transform="translate(480.9 563.89) rotate(153.73) skewX(-.02)"><tspan x="0" y="0"> </tspan></text><text class="cls-17" transform="translate(477.61 565.52) rotate(154.76) skewX(-.02)"><tspan x="0" y="0"> </tspan></text><text class="cls-17" transform="translate(474.32 567.07) rotate(155.79) skewX(-.02)"><tspan x="0" y="0"> </tspan></text><text class="cls-17" transform="translate(470.97 568.58) rotate(156.82) skewX(-.02)"><tspan x="0" y="0"> </tspan></text><text class="cls-17" transform="translate(467.64 570.01) rotate(157.84) skewX(-.01)"><tspan x="0" y="0"> </tspan></text><text class="cls-17" transform="translate(464.31 571.41) rotate(159.66) skewX(-.01)"><tspan x="0" y="0">K</tspan></text><text class="cls-17" transform="translate(455.68 574.62) rotate(162.24)"><tspan x="0" y="0">Y</tspan></text><text class="cls-17" transform="translate(446.31 577.61) rotate(165.04)"><tspan x="0" y="0">V</tspan></text><text class="cls-17" transform="translate(437.03 580.09) rotate(167.69)"><tspan x="0" y="0">Y</tspan></text><text class="cls-17" transform="translate(427.33 582.19) rotate(170.36)"><tspan x="0" y="0">T</tspan></text><text class="cls-17" transform="translate(418.85 583.59) rotate(172.08)"><tspan x="0" y="0"> </tspan></text><text class="cls-17" transform="translate(415.26 584.09) rotate(173.09) skewX(.01)"><tspan x="0" y="0"> </tspan></text><text class="cls-17" transform="translate(411.62 584.53) rotate(174.12) skewX(.01)"><tspan x="0" y="0"> </tspan></text><text class="cls-17" transform="translate(408.01 584.9) rotate(175.14) skewX(.01)"><tspan x="0" y="0"> </tspan></text><text class="cls-17" transform="translate(404.35 585.21) rotate(176.17) skewX(.02)"><tspan x="0" y="0"> </tspan></text><text class="cls-17" transform="translate(400.73 585.46) rotate(177.19) skewX(.02)"><tspan x="0" y="0"> </tspan></text><text class="cls-17" transform="translate(397.06 585.64) rotate(178.22) skewX(.02)"><tspan x="0" y="0"> </tspan></text><text class="cls-17" transform="translate(393.42 585.75) rotate(179.25) skewX(.02)"><tspan x="0" y="0"> </tspan></text><text class="cls-17" transform="translate(389.78 585.8) rotate(-179.73) skewX(.02)"><tspan x="0" y="0"> </tspan></text><text class="cls-17" transform="translate(386.14 585.78) rotate(-178.7) skewX(.02)"><tspan x="0" y="0"> </tspan></text><text class="cls-17" transform="translate(382.47 585.7) rotate(-177.67) skewX(.03)"><tspan x="0" y="0"> </tspan></text><text class="cls-17" transform="translate(378.84 585.55) rotate(-176.64) skewX(.03)"><tspan x="0" y="0"> </tspan></text><text class="cls-17" transform="translate(375.19 585.34) rotate(-175.61) skewX(.03)"><tspan x="0" y="0"> </tspan></text><text class="cls-17" transform="translate(371.54 585.06) rotate(-174.57) skewX(.03)"><tspan x="0" y="0"> </tspan></text><text class="cls-17" transform="translate(367.89 584.71) rotate(-173.54) skewX(.03)"><tspan x="0" y="0"> </tspan></text><text class="cls-17" transform="translate(364.28 584.31) rotate(-172.51) skewX(.03)"><tspan x="0" y="0"> </tspan></text><text class="cls-17" transform="translate(360.67 583.83) rotate(-171.48) skewX(.03)"><tspan x="0" y="0"> </tspan></text><text class="cls-17" transform="translate(357.03 583.29) rotate(-170.44) skewX(.03)"><tspan x="0" y="0"> </tspan></text><text class="cls-17" transform="translate(354.16 582.85) rotate(-168.91) skewX(.04)"><tspan x="0" y="0">T</tspan></text><text class="cls-17" transform="translate(345.32 581.12) rotate(-166.25) skewX(.04)"><tspan x="0" y="0">Y</tspan></text><text class="cls-17" transform="translate(336.85 579.1) rotate(-163.42) skewX(.04)"><tspan x="0" y="0">Ö</tspan></text><text class="cls-17" transform="translate(325.44 575.62) rotate(-161.22) skewX(.04)"><tspan x="0" y="0"> </tspan></text><text class="cls-17" transform="translate(321.99 574.44) rotate(-160.19) skewX(.04)"><tspan x="0" y="0"> </tspan></text><text class="cls-17" transform="translate(318.56 573.21) rotate(-159.16) skewX(.05)"><tspan x="0" y="0"> </tspan></text><text class="cls-17" transform="translate(315.14 571.91) rotate(-158.12) skewX(.05)"><tspan x="0" y="0"> </tspan></text><text class="cls-17" transform="translate(311.77 570.55) rotate(-157.1) skewX(.05)"><tspan x="0" y="0"> </tspan></text><text class="cls-17" transform="translate(308.39 569.13) rotate(-156.07) skewX(.05)"><tspan x="0" y="0"> </tspan></text><text class="cls-17" transform="translate(305.05 567.65) rotate(-155.05) skewX(.05)"><tspan x="0" y="0"> </tspan></text><text class="cls-17" transform="translate(301.75 566.11) rotate(-154.02) skewX(.05)"><tspan x="0" y="0"> </tspan></text><text class="cls-17" transform="translate(298.46 564.51) rotate(-153) skewX(.05)"><tspan x="0" y="0"> </tspan></text><text class="cls-17" transform="translate(295.19 562.84) rotate(-151.98) skewX(.05)"><tspan x="0" y="0"> </tspan></text><text class="cls-17" transform="translate(291.99 561.14) rotate(-150.97) skewX(.05)"><tspan x="0" y="0"> </tspan></text><text class="cls-17" transform="translate(288.78 559.36) rotate(-149.95) skewX(.05)"><tspan x="0" y="0"> </tspan></text><text class="cls-17" transform="translate(285.62 557.52) rotate(-149.41) skewX(.05)"><tspan x="0" y="0"> </tspan></text><text class="cls-17" transform="translate(282.5 555.67) rotate(-147.56) skewX(.05)"><tspan x="0" y="0"> </tspan></text><text class="cls-17" transform="translate(279.38 553.7) rotate(-146.93) skewX(.05)"><tspan x="0" y="0"> </tspan></text><text class="cls-17" transform="translate(276.33 551.72) rotate(-145.93) skewX(.05)"><tspan x="0" y="0"> </tspan></text><text class="cls-17" transform="translate(273.3 549.67) rotate(-144.91) skewX(.05)"><tspan x="0" y="0"> </tspan></text><text class="cls-17" transform="translate(270.31 547.57) rotate(-143.89) skewX(.05)"><tspan x="0" y="0"> </tspan></text><text class="cls-17" transform="translate(267.37 545.43) rotate(-142.88) skewX(.05)"><tspan x="0" y="0"> </tspan></text><text class="cls-17" transform="translate(264.45 543.22) rotate(-141.85) skewX(.05)"><tspan x="0" y="0"> </tspan></text><text class="cls-17" transform="translate(261.58 540.96) rotate(-140.82) skewX(.05)"><tspan x="0" y="0"> </tspan></text><text class="cls-17" transform="translate(258.76 538.73) rotate(-139) skewX(.05)"><tspan x="0" y="0">K</tspan></text><text class="cls-17" transform="translate(251.91 532.83) rotate(-136.09) skewX(.04)"><tspan x="0" y="0">O</tspan></text><text class="cls-17" transform="translate(243.67 524.86) rotate(-133.32) skewX(.04)"><tspan x="0" y="0">T</tspan></text><text class="cls-17" transform="translate(237.79 518.57) rotate(-131.53) skewX(.04)"><tspan x="0" y="0">I</tspan></text><text class="cls-17" transform="translate(235.07 515.5) rotate(-130.43) skewX(.04)"><tspan x="0" y="0"> </tspan></text><text class="cls-17" transform="translate(232.69 512.7) rotate(-129.39) skewX(.04)"><tspan x="0" y="0"> </tspan></text><text class="cls-17" transform="translate(230.39 509.9) rotate(-128.37) skewX(.04)"><tspan x="0" y="0"> </tspan></text><text class="cls-17" transform="translate(228.12 507.04) rotate(-127.33) skewX(.04)"><tspan x="0" y="0"> </tspan></text><text class="cls-17" transform="translate(225.91 504.14) rotate(-126.3) skewX(.03)"><tspan x="0" y="0"> </tspan></text><text class="cls-17" transform="translate(223.72 501.17) rotate(-125.26) skewX(.03)"><tspan x="0" y="0"> </tspan></text><text class="cls-17" transform="translate(221.62 498.2) rotate(-124.23) skewX(.03)"><tspan x="0" y="0"> </tspan></text><text class="cls-17" transform="translate(219.57 495.18) rotate(-123.2) skewX(.03)"><tspan x="0" y="0"> </tspan></text><text class="cls-17" transform="translate(217.57 492.13) rotate(-122.17) skewX(.03)"><tspan x="0" y="0"> </tspan></text><text class="cls-17" transform="translate(215.62 489.03) rotate(-121.14) skewX(.03)"><tspan x="0" y="0"> </tspan></text><text class="cls-17" transform="translate(213.73 485.9) rotate(-120.11) skewX(.03)"><tspan x="0" y="0"> </tspan></text><text class="cls-17" transform="translate(211.9 482.74) rotate(-119.08) skewX(.02)"><tspan x="0" y="0"> </tspan></text><text class="cls-17" transform="translate(210.12 479.55) rotate(-118.05) skewX(.02)"><tspan x="0" y="0"> </tspan></text><text class="cls-17" transform="translate(208.66 476.92) rotate(-116.36) skewX(.02)"><tspan x="0" y="0">V</tspan></text><text class="cls-17" transform="translate(204.8 469.22) rotate(-113.81) skewX(.02)"><tspan x="0" y="0">A</tspan></text><text class="cls-17" transform="translate(200.55 459.55) rotate(-111.05) skewX(.01)"><tspan x="0" y="0">P</tspan></text><text class="cls-17" transform="translate(197.74 452.37) rotate(-108.7)"><tspan x="0" y="0">A</tspan></text><text class="cls-17" transform="translate(194.36 442.39) rotate(-105.75)"><tspan x="0" y="0">A</tspan></text><text class="cls-17" transform="translate(191.54 432.24) rotate(-103.55)"><tspan x="0" y="0">-</tspan></text><text class="cls-17" transform="translate(190.27 427.21) rotate(-101.36)"><tspan x="0" y="0">A</tspan></text><text class="cls-17" transform="translate(188.24 416.81) rotate(-99.31)"><tspan x="0" y="0">I</tspan></text><text class="cls-17" transform="translate(187.53 412.77) rotate(-97.42) skewX(-.01)"><tspan x="0" y="0">K</tspan></text><text class="cls-17" transform="translate(186.29 403.37) rotate(-94.59) skewX(-.01)"><tspan x="0" y="0">A</tspan></text><text class="cls-17" transform="translate(185.51 392.79) rotate(-92.59) skewX(-.02)"><tspan x="0" y="0"> </tspan></text><text class="cls-17" transform="translate(185.34 389.15) rotate(-91.57) skewX(-.02)"><tspan x="0" y="0"> </tspan></text><text class="cls-17" transform="translate(185.24 385.48) rotate(-90.53) skewX(-.02)"><tspan x="0" y="0"> </tspan></text><text class="cls-17" transform="translate(185.2 381.83) rotate(-89.51) skewX(-.02)"><tspan x="0" y="0"> </tspan></text><text class="cls-17" transform="translate(185.23 378.19) rotate(-88.48) skewX(-.02)"><tspan x="0" y="0"> </tspan></text><text class="cls-17" transform="translate(185.33 374.54) rotate(-87.45) skewX(-.03)"><tspan x="0" y="0"> </tspan></text><text class="cls-17" transform="translate(185.45 370.92) rotate(-85.62) skewX(-.03)"><tspan x="0" y="0">K</tspan></text><text class="cls-17" transform="translate(186.13 361.6) rotate(-82.71) skewX(-.03)"><tspan x="0" y="0">U</tspan></text><text class="cls-17" transform="translate(187.58 350.53) rotate(-79.98) skewX(-.04)"><tspan x="0" y="0">L</tspan></text><text class="cls-17" transform="translate(188.7 344) rotate(-78.04) skewX(-.04)"><tspan x="0" y="0">T</tspan></text><text class="cls-17" transform="translate(190.62 335) rotate(-75.42) skewX(-.04)"><tspan x="0" y="0">T</tspan></text><text class="cls-17" transform="translate(192.74 326.72) rotate(-72.62) skewX(-.04)"><tspan x="0" y="0">U</tspan></text><text class="cls-17" transform="translate(196.06 316.09) rotate(-69.46) skewX(-.04)"><tspan x="0" y="0">U</tspan></text><text class="cls-17" transform="translate(200.01 305.62) rotate(-66.57) skewX(-.05)"><tspan x="0" y="0">R</tspan></text><text class="cls-17" transform="translate(203.75 297.1) rotate(-64.68) skewX(-.05)"><tspan x="0" y="0">I</tspan></text><text class="cls-17" transform="translate(205.5 293.39) rotate(-63.59) skewX(-.05)"><tspan x="0" y="0"> </tspan></text><text class="cls-17" transform="translate(207.12 290.13) rotate(-62.57) skewX(-.05)"><tspan x="0" y="0"> </tspan></text><text class="cls-17" transform="translate(208.81 286.87) rotate(-61.55) skewX(-.05)"><tspan x="0" y="0"> </tspan></text><text class="cls-17" transform="translate(210.55 283.67) rotate(-60.53) skewX(-.05)"><tspan x="0" y="0"> </tspan></text><text class="cls-17" transform="translate(212.36 280.46) rotate(-59.51) skewX(-.05)"><tspan x="0" y="0"> </tspan></text><text class="cls-17" transform="translate(214.14 277.37) rotate(-57.6) skewX(-.05)"><tspan x="0" y="0"> </tspan></text><text class="cls-17" transform="translate(216.11 274.22) rotate(-57.49) skewX(-.05)"><tspan x="0" y="0"> </tspan></text><text class="cls-17" transform="translate(218.07 271.13) rotate(-56.48) skewX(-.05)"><tspan x="0" y="0"> </tspan></text><text class="cls-17" transform="translate(220.1 268.08) rotate(-55.45) skewX(-.05)"><tspan x="0" y="0"> </tspan></text><text class="cls-17" transform="translate(222.17 265.07) rotate(-54.43) skewX(-.05)"><tspan x="0" y="0"> </tspan></text><text class="cls-17" transform="translate(224.28 262.11) rotate(-53.41) skewX(-.05)"><tspan x="0" y="0"> </tspan></text><text class="cls-17" transform="translate(226.47 259.17) rotate(-52.38) skewX(-.05)"><tspan x="0" y="0"> </tspan></text><text class="cls-17" transform="translate(228.63 256.3) rotate(-50.68) skewX(-.05)"><tspan x="0" y="0">S</tspan></text><text class="cls-17" transform="translate(233.99 249.7) rotate(-47.89) skewX(-.05)"><tspan x="0" y="0">U</tspan></text><text class="cls-17" transform="translate(241.48 241.44) rotate(-44.98) skewX(-.04)"><tspan x="0" y="0">K</tspan></text><text class="cls-17" transform="translate(248.03 234.85) rotate(-42.08) skewX(-.04)"><tspan x="0" y="0">U</tspan></text><text class="cls-17" transform="translate(256.41 227.38) rotate(-39.97) skewX(-.04)"><tspan x="0" y="0"> </tspan></text><text class="cls-17" transform="translate(259.21 225.03) rotate(-38.93) skewX(-.04)"><tspan x="0" y="0"> </tspan></text><text class="cls-17" transform="translate(262.05 222.74) rotate(-37.89) skewX(-.04)"><tspan x="0" y="0"> </tspan></text><text class="cls-17" transform="translate(264.93 220.5) rotate(-36.85) skewX(-.04)"><tspan x="0" y="0"> </tspan></text><text class="cls-17" transform="translate(267.84 218.31) rotate(-35.82) skewX(-.03)"><tspan x="0" y="0"> </tspan></text><text class="cls-17" transform="translate(270.79 216.19) rotate(-34.78) skewX(-.03)"><tspan x="0" y="0"> </tspan></text><text class="cls-17" transform="translate(273.8 214.09) rotate(-33.74) skewX(-.03)"><tspan x="0" y="0"> </tspan></text><text class="cls-17" transform="translate(276.83 212.07) rotate(-32.71) skewX(-.03)"><tspan x="0" y="0"> </tspan></text><text class="cls-17" transform="translate(279.89 210.1) rotate(-31.68) skewX(-.03)"><tspan x="0" y="0"> </tspan></text><text class="cls-17" transform="translate(283 208.18) rotate(-30.64) skewX(-.03)"><tspan x="0" y="0"> </tspan></text><text class="cls-17" transform="translate(286.14 206.32) rotate(-29.61) skewX(-.03)"><tspan x="0" y="0"> </tspan></text><text class="cls-17" transform="translate(289.31 204.52) rotate(-28.58) skewX(-.02)"><tspan x="0" y="0"> </tspan></text><text class="cls-17" transform="translate(292.53 202.77) rotate(-27.54) skewX(-.02)"><tspan x="0" y="0"> </tspan></text><text class="cls-17" transform="translate(295.78 201.07) rotate(-26.51) skewX(-.02)"><tspan x="0" y="0"> </tspan></text><text class="cls-17" transform="translate(299.03 199.45) rotate(-25.49) skewX(-.02)"><tspan x="0" y="0"> </tspan></text><text class="cls-17" transform="translate(302.33 197.88) rotate(-24.46) skewX(-.02)"><tspan x="0" y="0"> </tspan></text><text class="cls-17" transform="translate(305.65 196.36) rotate(-23.43) skewX(-.02)"><tspan x="0" y="0"> </tspan></text><text class="cls-17" transform="translate(308.96 194.88) rotate(-21.62) skewX(-.01)"><tspan x="0" y="0">P</tspan></text><text class="cls-17" transform="translate(317.48 191.51) rotate(-19.15)"><tspan x="0" y="0">E</tspan></text><text class="cls-17" transform="translate(325.46 188.73) rotate(-16.67)"><tspan x="0" y="0">R</tspan></text><text class="cls-17" transform="translate(334.33 186.04) rotate(-13.79)"><tspan x="0" y="0">H</tspan></text><text class="cls-17" transform="translate(345.24 183.39) rotate(-11.04)"><tspan x="0" y="0">E</tspan></text><text class="cls-15" transform="translate(407.92 305.39) rotate(14.92)"><tspan x="0" y="0"> </tspan></text><text class="cls-15" transform="translate(410.33 306.03) rotate(16.72)"><tspan x="0" y="0"> </tspan></text><text class="cls-15" transform="translate(412.71 306.75) rotate(18.52)"><tspan x="0" y="0"> </tspan></text><text class="cls-15" transform="translate(415.07 307.54) rotate(20.31)"><tspan x="0" y="0"> </tspan></text><text class="cls-15" transform="translate(417.38 308.39) rotate(22.09)"><tspan x="0" y="0"> </tspan></text><text class="cls-15" transform="translate(419.65 309.21) rotate(25.75)"><tspan x="0" y="0">N</tspan></text><text class="cls-15" transform="translate(426.54 312.56) rotate(30.74)"><tspan x="0" y="0">Y</tspan></text><text class="cls-15" transform="translate(431.9 315.74) rotate(35.2)"><tspan x="0" y="0">K</tspan></text><text class="cls-15" transform="translate(437.04 319.36) rotate(39.68)"><tspan x="0" y="0">Y</tspan></text><text class="cls-15" transform="translate(441.85 323.4) rotate(42.87)"><tspan x="0" y="0">I</tspan></text><text class="cls-15" transform="translate(443.91 325.25) rotate(45.92)"><tspan x="0" y="0">S</tspan></text><text class="cls-15" transform="translate(447.94 329.39) rotate(50.23)"><tspan x="0" y="0">Y</tspan></text><text class="cls-15" transform="translate(452.02 334.29) rotate(54.77)"><tspan x="0" y="0">Y</tspan></text><text class="cls-15" transform="translate(455.59 339.34) rotate(59)"><tspan x="0" y="0">S</tspan></text><text class="cls-15" transform="translate(458.54 344.33) rotate(61.94)"><tspan x="0" y="0"> </tspan></text><text class="cls-15" transform="translate(459.71 346.52) rotate(63.73)"><tspan x="0" y="0"> </tspan></text><text class="cls-15" transform="translate(460.81 348.75) rotate(65.52)"><tspan x="0" y="0"> </tspan></text><text class="cls-15" transform="translate(461.85 351.02) rotate(67.31)"><tspan x="0" y="0"> </tspan></text><text class="cls-15" transform="translate(462.8 353.3) rotate(69.1)"><tspan x="0" y="0"> </tspan></text><text class="cls-15" transform="translate(463.69 355.62) rotate(70.88)"><tspan x="0" y="0"> </tspan></text><text class="cls-15" transform="translate(464.5 357.96) rotate(72.68)"><tspan x="0" y="0"> </tspan></text><text class="cls-15" transform="translate(465.24 360.35) rotate(74.48)"><tspan x="0" y="0"> </tspan></text><text class="cls-15" transform="translate(465.91 362.73) rotate(76.26)"><tspan x="0" y="0"> </tspan></text><text class="cls-15" transform="translate(466.5 365.14) rotate(78.05)"><tspan x="0" y="0"> </tspan></text><text class="cls-15" transform="translate(467.01 367.55) rotate(79.83)"><tspan x="0" y="0"> </tspan></text><text class="cls-15" transform="translate(467.45 370.02) rotate(81.63)"><tspan x="0" y="0"> </tspan></text><text class="cls-15" transform="translate(467.81 372.45) rotate(83.39)"><tspan x="0" y="0"> </tspan></text><text class="cls-15" transform="translate(468.1 374.94) rotate(85.17)"><tspan x="0" y="0"> </tspan></text><text class="cls-15" transform="translate(468.31 377.42) rotate(86.94)"><tspan x="0" y="0"> </tspan></text><text class="cls-15" transform="translate(468.44 379.88) rotate(88.68)"><tspan x="0" y="0"> </tspan></text><text class="cls-15" transform="translate(468.51 382.34) rotate(90.93)"><tspan x="0" y="0"> </tspan></text><text class="cls-15" transform="translate(468.48 384.85) rotate(92.18)"><tspan x="0" y="0"> </tspan></text><text class="cls-15" transform="translate(468.39 387.34) rotate(93.94)"><tspan x="0" y="0"> </tspan></text><text class="cls-15" transform="translate(468.22 389.81) rotate(95.71)"><tspan x="0" y="0"> </tspan></text><text class="cls-15" transform="translate(467.98 392.27) rotate(97.47)"><tspan x="0" y="0"> </tspan></text><text class="cls-15" transform="translate(467.65 394.73) rotate(99.25)"><tspan x="0" y="0"> </tspan></text><text class="cls-15" transform="translate(467.25 397.2) rotate(101.05)"><tspan x="0" y="0"> </tspan></text><text class="cls-15" transform="translate(466.78 399.61) rotate(102.82)"><tspan x="0" y="0"> </tspan></text><text class="cls-15" transform="translate(466.23 402.03) rotate(104.61)"><tspan x="0" y="0"> </tspan></text><text class="cls-15" transform="translate(465.6 404.45) rotate(106.41)"><tspan x="0" y="0"> </tspan></text><text class="cls-15" transform="translate(464.9 406.84) rotate(108.21)"><tspan x="0" y="0"> </tspan></text><text class="cls-15" transform="translate(464.14 409.17) rotate(109.98)"><tspan x="0" y="0"> </tspan></text><text class="cls-15" transform="translate(463.51 411.05) rotate(112.64)"><tspan x="0" y="0">T</tspan></text><text class="cls-15" transform="translate(461.32 416.41) rotate(117.45)"><tspan x="0" y="0">U</tspan></text><text class="cls-15" transform="translate(457.79 423.14) rotate(122.15)"><tspan x="0" y="0">L</tspan></text><text class="cls-15" transform="translate(454.84 427.83) rotate(126.19)"><tspan x="0" y="0">E</tspan></text><text class="cls-15" transform="translate(451.4 432.57) rotate(130.64)"><tspan x="0" y="0">V</tspan></text><text class="cls-15" transform="translate(447.62 437.04) rotate(135.04)"><tspan x="0" y="0">A</tspan></text><text class="cls-15" transform="translate(442.47 442.1) rotate(138.59)"><tspan x="0" y="0">I</tspan></text><text class="cls-15" transform="translate(440.42 443.96) rotate(141.64)"><tspan x="0" y="0">S</tspan></text><text class="cls-15" transform="translate(435.93 447.57) rotate(146.41)"><tspan x="0" y="0">U</tspan></text><text class="cls-15" transform="translate(429.62 451.77) rotate(151.84)"><tspan x="0" y="0">U</tspan></text><text class="cls-15" transform="translate(422.91 455.33) rotate(156.64)"><tspan x="0" y="0">S</tspan></text><text class="cls-15" transform="translate(417.56 457.59) rotate(159.6)"><tspan x="0" y="0"> </tspan></text><text class="cls-15" transform="translate(415.24 458.46) rotate(161.39)"><tspan x="0" y="0"> </tspan></text><text class="cls-15" transform="translate(412.88 459.25) rotate(163.19)"><tspan x="0" y="0"> </tspan></text><text class="cls-15" transform="translate(410.49 459.97) rotate(164.99)"><tspan x="0" y="0"> </tspan></text><text class="cls-15" transform="translate(408.1 460.62) rotate(166.78)"><tspan x="0" y="0"> </tspan></text><text class="cls-15" transform="translate(405.71 461.18) rotate(168.55)"><tspan x="0" y="0"> </tspan></text><text class="cls-15" transform="translate(403.26 461.68) rotate(170.35)"><tspan x="0" y="0"> </tspan></text><text class="cls-15" transform="translate(400.82 462.09) rotate(172.12)"><tspan x="0" y="0"> </tspan></text><text class="cls-15" transform="translate(398.35 462.44) rotate(173.91)"><tspan x="0" y="0"> </tspan></text><text class="cls-15" transform="translate(395.89 462.7) rotate(175.67)"><tspan x="0" y="0"> </tspan></text><text class="cls-15" transform="translate(393.4 462.89) rotate(177.44)"><tspan x="0" y="0"> </tspan></text><text class="cls-15" transform="translate(390.93 463) rotate(179.07)"><tspan x="0" y="0"> </tspan></text><text class="cls-15" transform="translate(388.44 463.04) rotate(-179.07)"><tspan x="0" y="0"> </tspan></text><text class="cls-15" transform="translate(385.97 463) rotate(-177.32)"><tspan x="0" y="0"> </tspan></text><text class="cls-15" transform="translate(383.48 462.88) rotate(-175.56)"><tspan x="0" y="0"> </tspan></text><text class="cls-15" transform="translate(381.01 462.69) rotate(-173.79)"><tspan x="0" y="0"> </tspan></text><text class="cls-15" transform="translate(378.53 462.42) rotate(-172.01)"><tspan x="0" y="0"> </tspan></text><text class="cls-15" transform="translate(376.08 462.08) rotate(-170.23)"><tspan x="0" y="0"> </tspan></text><text class="cls-15" transform="translate(373.65 461.66) rotate(-168.46)"><tspan x="0" y="0"> </tspan></text><text class="cls-15" transform="translate(371.21 461.17) rotate(-166.67)"><tspan x="0" y="0"> </tspan></text><text class="cls-15" transform="translate(368.8 460.59) rotate(-164.88)"><tspan x="0" y="0"> </tspan></text><text class="cls-15" transform="translate(366.39 459.94) rotate(-163.08)"><tspan x="0" y="0"> </tspan></text><text class="cls-15" transform="translate(364.01 459.22) rotate(-161.28)"><tspan x="0" y="0"> </tspan></text><text class="cls-15" transform="translate(361.71 458.52) rotate(-157.82)"><tspan x="0" y="0">A</tspan></text><text class="cls-15" transform="translate(354.84 455.66) rotate(-153.51)"><tspan x="0" y="0">J</tspan></text><text class="cls-15" transform="translate(350.97 453.8) rotate(-149.39)"><tspan x="0" y="0">A</tspan></text><text class="cls-15" transform="translate(344.79 450.16) rotate(-144.07)"><tspan x="0" y="0">N</tspan></text><text class="cls-15" transform="translate(338.55 445.65) rotate(-138.61)"><tspan x="0" y="0">H</tspan></text><text class="cls-15" transform="translate(332.81 440.59) rotate(-133.34)"><tspan x="0" y="0">A</tspan></text><text class="cls-15" transform="translate(327.91 435.35) rotate(-128.83)"><tspan x="0" y="0">L</tspan></text><text class="cls-15" transform="translate(324.44 431.05) rotate(-124.88)"><tspan x="0" y="0">L</tspan></text><text class="cls-15" transform="translate(321.27 426.45) rotate(-121.89)"><tspan x="0" y="0">I</tspan></text><text class="cls-15" transform="translate(319.77 424.19) rotate(-118.14)"><tspan x="0" y="0">N</tspan></text><text class="cls-15" transform="translate(316.15 417.35) rotate(-113.28)"><tspan x="0" y="0">T</tspan></text><text class="cls-15" transform="translate(314.14 412.85) rotate(-109.23)"><tspan x="0" y="0">A</tspan></text><text class="cls-15" transform="translate(311.83 406) rotate(-105.74)"><tspan x="0" y="0"> </tspan></text><text class="cls-15" transform="translate(311.16 403.62) rotate(-103.96)"><tspan x="0" y="0"> </tspan></text><text class="cls-15" transform="translate(310.56 401.21) rotate(-102.17)"><tspan x="0" y="0"> </tspan></text><text class="cls-15" transform="translate(310.03 398.78) rotate(-100.37)"><tspan x="0" y="0"> </tspan></text><text class="cls-15" transform="translate(309.59 396.34) rotate(-98.6)"><tspan x="0" y="0"> </tspan></text><text class="cls-15" transform="translate(309.21 393.88) rotate(-96.82)"><tspan x="0" y="0"> </tspan></text><text class="cls-15" transform="translate(308.92 391.43) rotate(-95.05)"><tspan x="0" y="0"> </tspan></text><text class="cls-15" transform="translate(308.7 388.96) rotate(-93.29)"><tspan x="0" y="0"> </tspan></text><text class="cls-15" transform="translate(308.56 386.46) rotate(-91.52)"><tspan x="0" y="0"> </tspan></text><text class="cls-15" transform="translate(308.47 384.01) rotate(-89.07)"><tspan x="0" y="0"> </tspan></text><text class="cls-15" transform="translate(308.5 381.49) rotate(-88.03)"><tspan x="0" y="0"> </tspan></text><text class="cls-15" transform="translate(308.58 379.03) rotate(-86.28)"><tspan x="0" y="0"> </tspan></text><text class="cls-15" transform="translate(308.74 376.56) rotate(-84.52)"><tspan x="0" y="0"> </tspan></text><text class="cls-15" transform="translate(308.98 374.07) rotate(-82.73)"><tspan x="0" y="0"> </tspan></text><text class="cls-15" transform="translate(309.29 371.6) rotate(-80.95)"><tspan x="0" y="0"> </tspan></text><text class="cls-15" transform="translate(309.68 369.16) rotate(-79.18)"><tspan x="0" y="0"> </tspan></text><text class="cls-15" transform="translate(310.15 366.71) rotate(-77.38)"><tspan x="0" y="0"> </tspan></text><text class="cls-15" transform="translate(310.69 364.3) rotate(-75.59)"><tspan x="0" y="0"> </tspan></text><text class="cls-15" transform="translate(311.3 361.9) rotate(-73.81)"><tspan x="0" y="0"> </tspan></text><text class="cls-15" transform="translate(312 359.51) rotate(-72.01)"><tspan x="0" y="0"> </tspan></text><text class="cls-15" transform="translate(312.76 357.15) rotate(-70.22)"><tspan x="0" y="0"> </tspan></text><text class="cls-15" transform="translate(313.6 354.82) rotate(-68.44)"><tspan x="0" y="0"> </tspan></text><text class="cls-15" transform="translate(314.36 352.52) rotate(-64.14)"><tspan x="0" y="0">M</tspan></text><text class="cls-15" transform="translate(318.54 344.07) rotate(-58.72)"><tspan x="0" y="0">E</tspan></text><text class="cls-15" transform="translate(321.49 339.12) rotate(-53.89)"><tspan x="0" y="0">N</tspan></text><text class="cls-15" transform="translate(326.03 332.88) rotate(-48.39)"><tspan x="0" y="0">N</tspan></text><text class="cls-15" transform="translate(331.18 327.13) rotate(-43.61)"><tspan x="0" y="0">E</tspan></text><text class="cls-15" transform="translate(335.41 323.15) rotate(-40.56)"><tspan x="0" y="0">I</tspan></text><text class="cls-15" transform="translate(337.49 321.32) rotate(-37.5)"><tspan x="0" y="0">S</tspan></text><text class="cls-15" transform="translate(342.05 317.8) rotate(-33.18)"><tspan x="0" y="0">Y</tspan></text><text class="cls-15" transform="translate(347.38 314.31) rotate(-28.62)"><tspan x="0" y="0">Y</tspan></text><text class="cls-15" transform="translate(352.82 311.34) rotate(-24.37)"><tspan x="0" y="0">S</tspan></text></svg>