<?xml version="1.0" encoding="UTF-8"?><svg id="Layer_1" xmlns="http://www.w3.org/2000/svg" viewBox="0 0 787.84 788.29"><defs><style>.cls-1{fill:#dfc724;}.cls-1,.cls-2,.cls-3,.cls-4,.cls-5,.cls-6,.cls-7,.cls-8,.cls-9,.cls-10,.cls-11,.cls-12,.cls-13,.cls-14,.cls-15,.cls-16,.cls-17{fill-rule:evenodd;}.cls-2{fill:#fff;}.cls-3{fill:#3d74b7;}.cls-4{fill:#ca7830;}.cls-5{fill:#439888;}.cls-6{fill:#a43332;}.cls-7{fill:#3a84c3;}.cls-18{opacity:.9;stroke-width:20px;}.cls-18,.cls-19,.cls-20,.cls-21{fill:none;}.cls-18,.cls-20,.cls-21{stroke:#fff;stroke-miterlimit:10;}.cls-22{font-size:20.61px;}.cls-22,.cls-23{fill:#231f20;font-family:MyriadPro-Regular, 'Myriad Pro';}.cls-8{fill:#c84f56;}.cls-9{fill:#45a9d7;}.cls-10{fill:#8f4d8e;}.cls-19{opacity:.6;}.cls-11{fill:#3da366;}.cls-23{font-size:16.5px;}.cls-12{fill:#f1c04f;}.cls-13{fill:#7a9c3e;}.cls-14{fill:#b8386d;}.cls-15{fill:#3e579b;}.cls-16{fill:#9db844;}.cls-20{stroke-width:4px;}.cls-21{opacity:.83;stroke-width:16px;}.cls-17{fill:#e1a428;}</style></defs><rect class="cls-19" x="176.15" y="172.76" width="442" height="441.91" transform="translate(-91.68 122.07) rotate(-15.69)"/><g id="id3"><path class="cls-2" d="M589.54,501.69c-19.88,35.41-44.82,60.99-79.74,81.71-34.92,20.72-69.35,30.39-109.94,30.88-40.6,.49-75.21-8.36-110.62-28.24-35.41-19.88-60.99-44.82-81.71-79.74-20.72-34.92-30.39-69.35-30.88-109.94-.49-40.6,8.36-75.21,28.24-110.62,19.88-35.41,44.82-60.99,79.74-81.71,34.92-20.72,69.35-30.39,109.94-30.88,40.6-.49,75.21,8.36,110.62,28.24,35.41,19.88,60.99,44.82,81.71,79.74,20.72,34.92,30.39,69.35,30.88,109.94,.49,40.6-8.36,75.21-28.24,110.62h0Z"/></g><g><g id="id4"><path class="cls-9" d="M397.22,393.72l-112.59-189.68c34.92-20.72,69.35-30.39,109.94-30.88l2.65,220.56Z"/></g><g id="id5"><path class="cls-4" d="M397.22,393.72l112.59,189.68c-34.92,20.72-69.35,30.39-109.94,30.88l-2.65-220.56Z"/></g><g id="id6"><path class="cls-5" d="M397.22,393.72l-2.65-220.56c40.6-.49,75.21,8.36,110.62,28.24h0l-107.97,192.33Z"/></g><g id="id7"><path class="cls-8" d="M397.22,393.72l2.65,220.56c-40.6,.49-75.21-8.36-110.62-28.24l107.97-192.33Z"/></g><g id="id8"><path class="cls-11" d="M397.22,393.72l107.97-192.33c35.41,19.88,60.99,44.82,81.71,79.74l-189.68,112.59Z"/></g><g id="id9"><path class="cls-14" d="M397.22,393.72l-107.97,192.33h0c-35.41-19.88-60.99-44.82-81.71-79.74l189.68-112.59Z"/></g><g id="id10"><path class="cls-16" d="M397.22,393.72l189.68-112.59c20.72,34.92,30.39,69.35,30.88,109.94l-220.56,2.65Z"/></g><g id="id11"><path class="cls-10" d="M397.22,393.72l-189.68,112.59c-20.72-34.92-30.39-69.35-30.88-109.94l220.56-2.65Z"/></g><g id="id12"><path class="cls-1" d="M397.22,393.72l220.56-2.65c.49,40.6-8.36,75.21-28.24,110.62l-192.33-107.97Z"/></g><g id="id13"><path class="cls-15" d="M397.22,393.72l-220.56,2.65c-.49-40.6,8.36-75.21,28.24-110.62l192.33,107.97Z"/></g><g id="id14"><path class="cls-17" d="M397.22,393.72l192.33,107.97h0c-19.88,35.41-44.82,60.99-79.74,81.71l-112.59-189.68Z"/></g><g id="id15"><path class="cls-7" d="M397.22,393.72l-192.33-107.97c19.88-35.41,44.82-60.99,79.74-81.71l112.59,189.68Z"/></g></g><g id="id16"><path class="cls-2" d="M461.4,429.72c-6.65,11.78-14.95,20.3-26.6,27.21-11.65,6.91-23.13,10.13-36.63,10.29-13.55,.17-25.11-2.77-36.88-9.38-11.82-6.64-20.35-14.98-27.25-26.59-6.91-11.65-10.13-23.13-10.3-36.67-.16-13.51,2.79-25.07,9.42-36.89,6.61-11.77,14.95-20.3,26.6-27.21,11.61-6.9,23.09-10.12,36.63-10.29,13.55-.17,25.07,2.79,36.88,9.38,11.82,6.64,20.35,14.98,27.25,26.59,6.91,11.65,10.13,23.13,10.3,36.67,.16,13.51-2.79,25.07-9.42,36.89h0Z"/></g><text class="cls-22" transform="translate(392.25 119.14) rotate(.16) skewX(.03)"><tspan x="0" y="0"> </tspan></text><text class="cls-22" transform="translate(396.55 119.15) rotate(1.06) skewX(.03)"><tspan x="0" y="0"> </tspan></text><text class="cls-22" transform="translate(400.87 119.23) rotate(1.96) skewX(.04)"><tspan x="0" y="0"> </tspan></text><text class="cls-22" transform="translate(405.17 119.38) rotate(2.86) skewX(.04)"><tspan x="0" y="0"> </tspan></text><text class="cls-22" transform="translate(409.47 119.59) rotate(3.76) skewX(.04)"><tspan x="0" y="0"> </tspan></text><text class="cls-22" transform="translate(413.73 119.81) rotate(5.52) skewX(.04)"><tspan x="0" y="0">A</tspan></text><text class="cls-22" transform="translate(426.13 121.03) rotate(7.88) skewX(.04)"><tspan x="0" y="0">S</tspan></text><text class="cls-22" transform="translate(436.06 122.4) rotate(9.98) skewX(.05)"><tspan x="0" y="0">E</tspan></text><text class="cls-22" transform="translate(445.91 124.09) rotate(12.43) skewX(.05)"><tspan x="0" y="0">N</tspan></text><text class="cls-22" transform="translate(458.99 127.01) rotate(14.89) skewX(.05)"><tspan x="0" y="0">T</tspan></text><text class="cls-22" transform="translate(468.77 129.61) rotate(17) skewX(.05)"><tspan x="0" y="0">E</tspan></text><text class="cls-22" transform="translate(478.32 132.53) rotate(19.08) skewX(.05)"><tspan x="0" y="0">E</tspan></text><text class="cls-22" transform="translate(488.11 135.92) rotate(21.25) skewX(.05)"><tspan x="0" y="0">T</tspan></text><text class="cls-22" transform="translate(497.54 139.62) rotate(22.74) skewX(.06)"><tspan x="0" y="0"> </tspan></text><text class="cls-22" transform="translate(501.53 141.29) rotate(23.63) skewX(.06)"><tspan x="0" y="0"> </tspan></text><text class="cls-22" transform="translate(505.45 143.01) rotate(24.51) skewX(.06)"><tspan x="0" y="0"> </tspan></text><text class="cls-22" transform="translate(509.39 144.8) rotate(25.4) skewX(.06)"><tspan x="0" y="0"> </tspan></text><text class="cls-22" transform="translate(513.28 146.65) rotate(26.29) skewX(.06)"><tspan x="0" y="0"> </tspan></text><text class="cls-22" transform="translate(517.17 148.6) rotate(26.57) skewX(.06)"><tspan x="0" y="0"> </tspan></text><text class="cls-22" transform="translate(520.98 150.51) rotate(28.43) skewX(.06)"><tspan x="0" y="0"> </tspan></text><text class="cls-22" transform="translate(524.81 152.57) rotate(28.93) skewX(.06)"><tspan x="0" y="0"> </tspan></text><text class="cls-22" transform="translate(528.58 154.65) rotate(29.81) skewX(.06)"><tspan x="0" y="0"> </tspan></text><text class="cls-22" transform="translate(532.31 156.79) rotate(30.69) skewX(.06)"><tspan x="0" y="0"> </tspan></text><text class="cls-22" transform="translate(536.01 158.99) rotate(31.58) skewX(.06)"><tspan x="0" y="0"> </tspan></text><text class="cls-22" transform="translate(539.69 161.25) rotate(32.47) skewX(.06)"><tspan x="0" y="0"> </tspan></text><text class="cls-22" transform="translate(543.33 163.56) rotate(33.37) skewX(.05)"><tspan x="0" y="0"> </tspan></text><text class="cls-22" transform="translate(546.94 165.94) rotate(34.26) skewX(.05)"><tspan x="0" y="0"> </tspan></text><text class="cls-22" transform="translate(550.51 168.37) rotate(35.16) skewX(.05)"><tspan x="0" y="0"> </tspan></text><text class="cls-22" transform="translate(554.02 170.84) rotate(36.05) skewX(.05)"><tspan x="0" y="0"> </tspan></text><text class="cls-22" transform="translate(557.51 173.32) rotate(37.65) skewX(.05)"><tspan x="0" y="0">K</tspan></text><text class="cls-22" transform="translate(566.12 179.96) rotate(39.92) skewX(.05)"><tspan x="0" y="0">Y</tspan></text><text class="cls-22" transform="translate(575.01 187.41) rotate(42.39) skewX(.05)"><tspan x="0" y="0">V</tspan></text><text class="cls-22" transform="translate(583.4 195.07) rotate(44.73) skewX(.05)"><tspan x="0" y="0">Y</tspan></text><text class="cls-22" transform="translate(591.7 203.31) rotate(47.08) skewX(.04)"><tspan x="0" y="0">T</tspan></text><text class="cls-22" transform="translate(598.59 210.78) rotate(48.6) skewX(.04)"><tspan x="0" y="0"> </tspan></text><text class="cls-22" transform="translate(601.45 214.03) rotate(49.5) skewX(.04)"><tspan x="0" y="0"> </tspan></text><text class="cls-22" transform="translate(604.24 217.29) rotate(50.4) skewX(.04)"><tspan x="0" y="0"> </tspan></text><text class="cls-22" transform="translate(606.99 220.62) rotate(51.31) skewX(.04)"><tspan x="0" y="0"> </tspan></text><text class="cls-22" transform="translate(609.69 223.99) rotate(52.21) skewX(.04)"><tspan x="0" y="0"> </tspan></text><text class="cls-22" transform="translate(612.33 227.39) rotate(53.11) skewX(.04)"><tspan x="0" y="0"> </tspan></text><text class="cls-22" transform="translate(614.91 230.83) rotate(54) skewX(.03)"><tspan x="0" y="0"> </tspan></text><text class="cls-22" transform="translate(617.45 234.33) rotate(54.91) skewX(.03)"><tspan x="0" y="0"> </tspan></text><text class="cls-22" transform="translate(619.93 237.86) rotate(55.81) skewX(.03)"><tspan x="0" y="0"> </tspan></text><text class="cls-22" transform="translate(622.36 241.43) rotate(56.7) skewX(.03)"><tspan x="0" y="0"> </tspan></text><text class="cls-22" transform="translate(624.73 245.03) rotate(57.6) skewX(.03)"><tspan x="0" y="0"> </tspan></text><text class="cls-22" transform="translate(627.04 248.67) rotate(58.5) skewX(.03)"><tspan x="0" y="0"> </tspan></text><text class="cls-22" transform="translate(629.3 252.36) rotate(59.4) skewX(.02)"><tspan x="0" y="0"> </tspan></text><text class="cls-22" transform="translate(631.5 256.08) rotate(60.3) skewX(.02)"><tspan x="0" y="0"> </tspan></text><text class="cls-22" transform="translate(633.63 259.81) rotate(61.19) skewX(.02)"><tspan x="0" y="0"> </tspan></text><text class="cls-22" transform="translate(635.71 263.6) rotate(62.09) skewX(.02)"><tspan x="0" y="0"> </tspan></text><text class="cls-22" transform="translate(637.74 267.42) rotate(62.98) skewX(.02)"><tspan x="0" y="0"> </tspan></text><text class="cls-22" transform="translate(639.68 271.24) rotate(63.87) skewX(.02)"><tspan x="0" y="0"> </tspan></text><text class="cls-22" transform="translate(641.6 275.14) rotate(64.77) skewX(.01)"><tspan x="0" y="0"> </tspan></text><text class="cls-22" transform="translate(643.42 279.01) rotate(65.66) skewX(.01)"><tspan x="0" y="0"> </tspan></text><text class="cls-22" transform="translate(645.21 282.96) rotate(66.56) skewX(.01)"><tspan x="0" y="0"> </tspan></text><text class="cls-22" transform="translate(646.62 286.1) rotate(67.87)"><tspan x="0" y="0">T</tspan></text><text class="cls-22" transform="translate(649.9 294.04) rotate(69.9)"><tspan x="0" y="0">A</tspan></text><text class="cls-22" transform="translate(654.14 305.78) rotate(71.68)"><tspan x="0" y="0">I</tspan></text><text class="cls-22" transform="translate(655.72 310.32) rotate(73.59)"><tspan x="0" y="0">D</tspan></text><text class="cls-22" transform="translate(659.56 323.33) rotate(76.44)"><tspan x="0" y="0">O</tspan></text><text class="cls-22" transform="translate(662.72 336.52) rotate(78.84) skewX(-.01)"><tspan x="0" y="0">T</tspan></text><text class="cls-22" transform="translate(664.64 346.47) rotate(80.33) skewX(-.02)"><tspan x="0" y="0"> </tspan></text><text class="cls-22" transform="translate(665.37 350.72) rotate(81.23) skewX(-.02)"><tspan x="0" y="0"> </tspan></text><text class="cls-22" transform="translate(666.02 354.99) rotate(82.12) skewX(-.02)"><tspan x="0" y="0"> </tspan></text><text class="cls-22" transform="translate(666.62 359.26) rotate(83.02) skewX(-.02)"><tspan x="0" y="0"> </tspan></text><text class="cls-22" transform="translate(667.14 363.52) rotate(83.91) skewX(-.02)"><tspan x="0" y="0"> </tspan></text><text class="cls-22" transform="translate(667.6 367.82) rotate(84.81) skewX(-.02)"><tspan x="0" y="0"> </tspan></text><text class="cls-22" transform="translate(667.99 372.13) rotate(85.71) skewX(-.03)"><tspan x="0" y="0"> </tspan></text><text class="cls-22" transform="translate(668.31 376.42) rotate(86.61) skewX(-.03)"><tspan x="0" y="0"> </tspan></text><text class="cls-22" transform="translate(668.57 380.72) rotate(87.5) skewX(-.03)"><tspan x="0" y="0"> </tspan></text><text class="cls-22" transform="translate(668.76 385.05) rotate(88.41) skewX(-.03)"><tspan x="0" y="0"> </tspan></text><text class="cls-22" transform="translate(668.88 389.36) rotate(89.31) skewX(-.03)"><tspan x="0" y="0"> </tspan></text><text class="cls-22" transform="translate(668.93 393.67) rotate(90.21) skewX(-.03)"><tspan x="0" y="0"> </tspan></text><text class="cls-22" transform="translate(668.97 397.22) rotate(91.7) skewX(-.04)"><tspan x="0" y="0">V</tspan></text><text class="cls-22" transform="translate(668.71 407.39) rotate(93.95) skewX(-.04)"><tspan x="0" y="0">A</tspan></text><text class="cls-22" transform="translate(667.82 419.82) rotate(96.26) skewX(-.04)"><tspan x="0" y="0">L</tspan></text><text class="cls-22" transform="translate(666.86 429.34) rotate(98.99) skewX(-.04)"><tspan x="0" y="0">M</tspan></text><text class="cls-22" transform="translate(664.23 445.53) rotate(101.76) skewX(-.05)"><tspan x="0" y="0">E</tspan></text><text class="cls-22" transform="translate(662.23 455.33) rotate(104.22) skewX(-.05)"><tspan x="0" y="0">N</tspan></text><text class="cls-22" transform="translate(658.95 468.29) rotate(107.03) skewX(-.05)"><tspan x="0" y="0">N</tspan></text><text class="cls-22" transform="translate(655.03 481.1) rotate(109.8) skewX(-.05)"><tspan x="0" y="0">U</tspan></text><text class="cls-22" transform="translate(650.55 493.48) rotate(112.32) skewX(-.06)"><tspan x="0" y="0">K</tspan></text><text class="cls-22" transform="translate(646.35 503.69) rotate(114.5) skewX(-.06)"><tspan x="0" y="0">S</tspan></text><text class="cls-22" transform="translate(642.18 512.84) rotate(116.52) skewX(-.06)"><tspan x="0" y="0">E</tspan></text><text class="cls-22" transform="translate(637.56 522.07) rotate(118.69) skewX(-.06)"><tspan x="0" y="0">T</tspan></text><text class="cls-22" transform="translate(632.66 530.96) rotate(120.18) skewX(-.06)"><tspan x="0" y="0"> </tspan></text><text class="cls-22" transform="translate(630.49 534.69) rotate(121.07) skewX(-.06)"><tspan x="0" y="0"> </tspan></text><text class="cls-22" transform="translate(628.27 538.37) rotate(121.96) skewX(-.06)"><tspan x="0" y="0"> </tspan></text><text class="cls-22" transform="translate(626.05 542.01) rotate(123.45) skewX(-.05)"><tspan x="0" y="0">S</tspan></text><text class="cls-22" transform="translate(620.52 550.39) rotate(125.55) skewX(-.05)"><tspan x="0" y="0">T</tspan></text><text class="cls-22" transform="translate(614.65 558.62) rotate(127.75) skewX(-.05)"><tspan x="0" y="0">R</tspan></text><text class="cls-22" transform="translate(607.91 567.35) rotate(130.23) skewX(-.05)"><tspan x="0" y="0">A</tspan></text><text class="cls-22" transform="translate(600.88 575.67) rotate(132.27) skewX(-.05)"><tspan x="0" y="0">T</tspan></text><text class="cls-22" transform="translate(594.08 583.15) rotate(134.39) skewX(-.05)"><tspan x="0" y="0">E</tspan></text><text class="cls-22" transform="translate(587.12 590.31) rotate(136.83) skewX(-.04)"><tspan x="0" y="0">G</tspan></text><text class="cls-22" transform="translate(577.46 599.29) rotate(138.72) skewX(-.04)"><tspan x="0" y="0">I</tspan></text><text class="cls-22" transform="translate(573.87 602.52) rotate(140.54) skewX(-.04)"><tspan x="0" y="0">A</tspan></text><text class="cls-22" transform="translate(565.47 609.45) rotate(142.58) skewX(-.04)"><tspan x="0" y="0">T</tspan></text><text class="cls-22" transform="translate(557.41 615.57) rotate(144.09) skewX(-.03)"><tspan x="0" y="0"> </tspan></text><text class="cls-22" transform="translate(553.91 618.1) rotate(144.99) skewX(-.03)"><tspan x="0" y="0"> </tspan></text><text class="cls-22" transform="translate(550.38 620.58) rotate(145.9) skewX(-.03)"><tspan x="0" y="0"> </tspan></text><text class="cls-22" transform="translate(546.82 622.99) rotate(146.8) skewX(-.03)"><tspan x="0" y="0"> </tspan></text><text class="cls-22" transform="translate(543.22 625.35) rotate(147.7) skewX(-.03)"><tspan x="0" y="0"> </tspan></text><text class="cls-22" transform="translate(539.56 627.66) rotate(148.6) skewX(-.03)"><tspan x="0" y="0"> </tspan></text><text class="cls-22" transform="translate(535.87 629.91) rotate(149.5) skewX(-.02)"><tspan x="0" y="0"> </tspan></text><text class="cls-22" transform="translate(532.17 632.09) rotate(150.4) skewX(-.02)"><tspan x="0" y="0"> </tspan></text><text class="cls-22" transform="translate(528.45 634.25) rotate(151.9) skewX(-.02)"><tspan x="0" y="0">S</tspan></text><text class="cls-22" transform="translate(519.67 638.98) rotate(154.31) skewX(-.02)"><tspan x="0" y="0">U</tspan></text><text class="cls-22" transform="translate(507.81 644.69) rotate(157.04) skewX(-.01)"><tspan x="0" y="0">U</tspan></text><text class="cls-22" transform="translate(495.7 649.83) rotate(159.8)"><tspan x="0" y="0">N</tspan></text><text class="cls-22" transform="translate(483.13 654.46) rotate(162.57)"><tspan x="0" y="0">N</tspan></text><text class="cls-22" transform="translate(470.29 658.41) rotate(164.46)"><tspan x="0" y="0">I</tspan></text><text class="cls-22" transform="translate(465.66 659.74) rotate(166.01)"><tspan x="0" y="0">T</tspan></text><text class="cls-22" transform="translate(455.86 662.18) rotate(168.1) skewX(.01)"><tspan x="0" y="0">E</tspan></text><text class="cls-22" transform="translate(446.07 664.24) rotate(170.13) skewX(.01)"><tspan x="0" y="0">L</tspan></text><text class="cls-22" transform="translate(436.65 665.97) rotate(172.83) skewX(.02)"><tspan x="0" y="0">M</tspan></text><text class="cls-22" transform="translate(420.61 667.94) rotate(175.79) skewX(.03)"><tspan x="0" y="0">A</tspan></text><text class="cls-22" transform="translate(409.74 668.75) rotate(177.81) skewX(.03)"><tspan x="0" y="0">T</tspan></text><text class="cls-22" transform="translate(399.62 669.1) rotate(179.32) skewX(.03)"><tspan x="0" y="0"> </tspan></text><text class="cls-22" transform="translate(395.3 669.15) rotate(-179.78) skewX(.03)"><tspan x="0" y="0"> </tspan></text><text class="cls-22" transform="translate(390.98 669.14) rotate(-178.88) skewX(.03)"><tspan x="0" y="0"> </tspan></text><text class="cls-22" transform="translate(386.73 669.1) rotate(-177.29) skewX(.04)"><tspan x="0" y="0">R</tspan></text><text class="cls-22" transform="translate(375.79 668.58) rotate(-175.09) skewX(.04)"><tspan x="0" y="0">E</tspan></text><text class="cls-22" transform="translate(365.82 667.73) rotate(-172.89) skewX(.04)"><tspan x="0" y="0">K</tspan></text><text class="cls-22" transform="translate(354.89 666.37) rotate(-170.58) skewX(.05)"><tspan x="0" y="0">R</tspan></text><text class="cls-22" transform="translate(344.3 664.62) rotate(-168.32) skewX(.05)"><tspan x="0" y="0">Y</tspan></text><text class="cls-22" transform="translate(332.88 662.24) rotate(-165.97) skewX(.05)"><tspan x="0" y="0">T</tspan></text><text class="cls-22" transform="translate(323.58 659.98) rotate(-163.56) skewX(.05)"><tspan x="0" y="0">O</tspan></text><text class="cls-22" transform="translate(310.13 655.93) rotate(-161.59) skewX(.05)"><tspan x="0" y="0">I</tspan></text><text class="cls-22" transform="translate(305.53 654.47) rotate(-159.69) skewX(.05)"><tspan x="0" y="0">N</tspan></text><text class="cls-22" transform="translate(292.96 649.79) rotate(-157.25) skewX(.06)"><tspan x="0" y="0">T</tspan></text><text class="cls-22" transform="translate(283.65 645.84) rotate(-155.71) skewX(.06)"><tspan x="0" y="0">I</tspan></text><text class="cls-22" transform="translate(279.21 643.84) rotate(-154.77) skewX(.06)"><tspan x="0" y="0"> </tspan></text><text class="cls-22" transform="translate(275.31 642) rotate(-153.88) skewX(.06)"><tspan x="0" y="0"> </tspan></text><text class="cls-22" transform="translate(271.41 640.07) rotate(-153.43) skewX(.06)"><tspan x="0" y="0"> </tspan></text><text class="cls-22" transform="translate(267.6 638.17) rotate(-151.57) skewX(.06)"><tspan x="0" y="0"> </tspan></text><text class="cls-22" transform="translate(263.76 636.12) rotate(-151.24) skewX(.06)"><tspan x="0" y="0"> </tspan></text><text class="cls-22" transform="translate(259.98 634.04) rotate(-150.36) skewX(.06)"><tspan x="0" y="0"> </tspan></text><text class="cls-22" transform="translate(256.25 631.92) rotate(-149.48) skewX(.06)"><tspan x="0" y="0"> </tspan></text><text class="cls-22" transform="translate(252.53 629.77) rotate(-147.99) skewX(.06)"><tspan x="0" y="0">S</tspan></text><text class="cls-22" transform="translate(244.02 624.51) rotate(-145.51) skewX(.05)"><tspan x="0" y="0">O</tspan></text><text class="cls-22" transform="translate(232.49 616.54) rotate(-142.92) skewX(.05)"><tspan x="0" y="0">P</tspan></text><text class="cls-22" transform="translate(223.84 609.96) rotate(-141.29) skewX(.05)"><tspan x="0" y="0">I</tspan></text><text class="cls-22" transform="translate(220.03 607.05) rotate(-139.07) skewX(.05)"><tspan x="0" y="0">M</tspan></text><text class="cls-22" transform="translate(207.67 596.28) rotate(-135.97) skewX(.05)"><tspan x="0" y="0">U</tspan></text><text class="cls-22" transform="translate(198.21 587.11) rotate(-133.44) skewX(.04)"><tspan x="0" y="0">K</tspan></text><text class="cls-22" transform="translate(190.64 579.1) rotate(-131.24) skewX(.04)"><tspan x="0" y="0">S</tspan></text><text class="cls-22" transform="translate(184.01 571.55) rotate(-129.14) skewX(.04)"><tspan x="0" y="0">E</tspan></text><text class="cls-22" transform="translate(177.5 563.54) rotate(-126.97) skewX(.04)"><tspan x="0" y="0">T</tspan></text><text class="cls-22" transform="translate(171.42 555.4) rotate(-125.46) skewX(.03)"><tspan x="0" y="0"> </tspan></text><text class="cls-22" transform="translate(168.92 551.89) rotate(-124.56) skewX(.03)"><tspan x="0" y="0"> </tspan></text><text class="cls-22" transform="translate(166.47 548.33) rotate(-123.66) skewX(.03)"><tspan x="0" y="0"> </tspan></text><text class="cls-22" transform="translate(164.08 544.74) rotate(-122.77) skewX(.03)"><tspan x="0" y="0"> </tspan></text><text class="cls-22" transform="translate(161.74 541.12) rotate(-121.87) skewX(.03)"><tspan x="0" y="0"> </tspan></text><text class="cls-22" transform="translate(159.47 537.46) rotate(-120.97) skewX(.03)"><tspan x="0" y="0"> </tspan></text><text class="cls-22" transform="translate(157.24 533.75) rotate(-120.07) skewX(.02)"><tspan x="0" y="0"> </tspan></text><text class="cls-22" transform="translate(155.48 530.8) rotate(-118.75) skewX(.02)"><tspan x="0" y="0">T</tspan></text><text class="cls-22" transform="translate(150.34 521.43) rotate(-116.44) skewX(.02)"><tspan x="0" y="0">Y</tspan></text><text class="cls-22" transform="translate(145.73 512.27) rotate(-114) skewX(.01)"><tspan x="0" y="0">Ö</tspan></text><text class="cls-22" transform="translate(140.26 499.95) rotate(-111.53)"><tspan x="0" y="0">Y</tspan></text><text class="cls-22" transform="translate(136.24 489.95) rotate(-108.74)"><tspan x="0" y="0">M</tspan></text><text class="cls-22" transform="translate(131.03 474.41) rotate(-105.93)"><tspan x="0" y="0">P</tspan></text><text class="cls-22" transform="translate(128.49 465.67) rotate(-103.87)"><tspan x="0" y="0">Ä</tspan></text><text class="cls-22" transform="translate(125.51 453.55) rotate(-101.45) skewX(-.01)"><tspan x="0" y="0">R</tspan></text><text class="cls-22" transform="translate(123.37 442.78) rotate(-99.81) skewX(-.02)"><tspan x="0" y="0">I</tspan></text><text class="cls-22" transform="translate(122.51 438.04) rotate(-98.27) skewX(-.02)"><tspan x="0" y="0">S</tspan></text><text class="cls-22" transform="translate(121.07 428.1) rotate(-96.17) skewX(-.02)"><tspan x="0" y="0">T</tspan></text><text class="cls-22" transform="translate(119.98 418.61) rotate(-93.78) skewX(-.03)"><tspan x="0" y="0">Ö</tspan></text><text class="cls-22" transform="translate(119.14 404.57) rotate(-91.87) skewX(-.03)"><tspan x="0" y="0"> </tspan></text><text class="cls-22" transform="translate(119 400.26) rotate(-90.97) skewX(-.03)"><tspan x="0" y="0"> </tspan></text><text class="cls-22" transform="translate(118.92 395.95) rotate(-90.07) skewX(-.03)"><tspan x="0" y="0"> </tspan></text><text class="cls-22" transform="translate(118.92 391.63) rotate(-89.16) skewX(-.03)"><tspan x="0" y="0"> </tspan></text><text class="cls-22" transform="translate(118.98 387.3) rotate(-88.26) skewX(-.04)"><tspan x="0" y="0"> </tspan></text><text class="cls-22" transform="translate(119.11 382.98) rotate(-87.35) skewX(-.04)"><tspan x="0" y="0"> </tspan></text><text class="cls-22" transform="translate(119.19 378.75) rotate(-85.19) skewX(-.04)"><tspan x="0" y="0">M</tspan></text><text class="cls-22" transform="translate(120.59 362.64) rotate(-82.21) skewX(-.04)"><tspan x="0" y="0">A</tspan></text><text class="cls-22" transform="translate(122.06 351.84) rotate(-80.16) skewX(-.05)"><tspan x="0" y="0">T</tspan></text><text class="cls-22" transform="translate(123.79 341.86) rotate(-78.05) skewX(-.05)"><tspan x="0" y="0">E</tspan></text><text class="cls-22" transform="translate(125.84 332.07) rotate(-75.85) skewX(-.05)"><tspan x="0" y="0">R</tspan></text><text class="cls-22" transform="translate(128.57 321.44) rotate(-74.19) skewX(-.05)"><tspan x="0" y="0">I</tspan></text><text class="cls-22" transform="translate(129.82 316.78) rotate(-72.37) skewX(-.05)"><tspan x="0" y="0">A</tspan></text><text class="cls-22" transform="translate(133.59 304.93) rotate(-69.77) skewX(-.05)"><tspan x="0" y="0">A</tspan></text><text class="cls-22" transform="translate(137.93 293.23) rotate(-67.48) skewX(-.06)"><tspan x="0" y="0">L</tspan></text><text class="cls-22" transform="translate(141.64 284.35) rotate(-65.98) skewX(-.06)"><tspan x="0" y="0">I</tspan></text><text class="cls-22" transform="translate(143.58 279.91) rotate(-64.43) skewX(-.06)"><tspan x="0" y="0">T</tspan></text><text class="cls-22" transform="translate(148.01 270.77) rotate(-63.48) skewX(-.06)"><tspan x="0" y="0"> </tspan></text><text class="cls-22" transform="translate(149.92 266.95) rotate(-61.62) skewX(-.06)"><tspan x="0" y="0"> </tspan></text><text class="cls-22" transform="translate(151.96 263.14) rotate(-61.19) skewX(-.06)"><tspan x="0" y="0"> </tspan></text><text class="cls-22" transform="translate(154.05 259.35) rotate(-60.3) skewX(-.06)"><tspan x="0" y="0"> </tspan></text><text class="cls-22" transform="translate(156.19 255.6) rotate(-59.41) skewX(-.06)"><tspan x="0" y="0"> </tspan></text><text class="cls-22" transform="translate(158.38 251.89) rotate(-58.52) skewX(-.06)"><tspan x="0" y="0"> </tspan></text><text class="cls-22" transform="translate(160.63 248.21) rotate(-57.62) skewX(-.06)"><tspan x="0" y="0"> </tspan></text><text class="cls-22" transform="translate(162.93 244.57) rotate(-56.73) skewX(-.05)"><tspan x="0" y="0"> </tspan></text><text class="cls-22" transform="translate(165.3 240.96) rotate(-55.83) skewX(-.05)"><tspan x="0" y="0"> </tspan></text><text class="cls-22" transform="translate(167.72 237.4) rotate(-54.93) skewX(-.05)"><tspan x="0" y="0"> </tspan></text><text class="cls-22" transform="translate(170.2 233.86) rotate(-54.03) skewX(-.05)"><tspan x="0" y="0"> </tspan></text><text class="cls-22" transform="translate(172.67 230.38) rotate(-52.44) skewX(-.05)"><tspan x="0" y="0">P</tspan></text><text class="cls-22" transform="translate(178.19 223.13) rotate(-50.36) skewX(-.05)"><tspan x="0" y="0">A</tspan></text><text class="cls-22" transform="translate(186.16 213.55) rotate(-48.04) skewX(-.05)"><tspan x="0" y="0">L</tspan></text><text class="cls-22" transform="translate(191.74 207.29) rotate(-46.09) skewX(-.05)"><tspan x="0" y="0">V</tspan></text><text class="cls-22" transform="translate(199.63 199.11) rotate(-43.84) skewX(-.04)"><tspan x="0" y="0">E</tspan></text><text class="cls-22" transform="translate(206.83 192.2) rotate(-41.78) skewX(-.04)"><tspan x="0" y="0">L</tspan></text><text class="cls-22" transform="translate(213.4 186.26) rotate(-39.54) skewX(-.04)"><tspan x="0" y="0">U</tspan></text><text class="cls-22" transform="translate(223.58 177.89) rotate(-37.1) skewX(-.04)"><tspan x="0" y="0">T</tspan></text><text class="cls-22" transform="translate(231.69 171.8) rotate(-35.58) skewX(-.03)"><tspan x="0" y="0"> </tspan></text><text class="cls-22" transform="translate(235.2 169.29) rotate(-34.68) skewX(-.03)"><tspan x="0" y="0"> </tspan></text><text class="cls-22" transform="translate(238.74 166.84) rotate(-33.78) skewX(-.03)"><tspan x="0" y="0"> </tspan></text><text class="cls-22" transform="translate(242.32 164.44) rotate(-32.88) skewX(-.03)"><tspan x="0" y="0"> </tspan></text><text class="cls-22" transform="translate(245.94 162.11) rotate(-31.98) skewX(-.03)"><tspan x="0" y="0"> </tspan></text><text class="cls-22" transform="translate(249.58 159.83) rotate(-31.08) skewX(-.03)"><tspan x="0" y="0"> </tspan></text><text class="cls-22" transform="translate(253.28 157.6) rotate(-30.18) skewX(-.02)"><tspan x="0" y="0"> </tspan></text><text class="cls-22" transform="translate(257.02 155.43) rotate(-29.28) skewX(-.02)"><tspan x="0" y="0"> </tspan></text><text class="cls-22" transform="translate(260.76 153.33) rotate(-28.38) skewX(-.02)"><tspan x="0" y="0"> </tspan></text><text class="cls-22" transform="translate(264.56 151.28) rotate(-27.48) skewX(-.02)"><tspan x="0" y="0"> </tspan></text><text class="cls-22" transform="translate(268.38 149.29) rotate(-26.58) skewX(-.02)"><tspan x="0" y="0"> </tspan></text><text class="cls-22" transform="translate(272.24 147.36) rotate(-25.69) skewX(-.02)"><tspan x="0" y="0"> </tspan></text><text class="cls-22" transform="translate(276.12 145.49) rotate(-24.79) skewX(-.01)"><tspan x="0" y="0"> </tspan></text><text class="cls-22" transform="translate(279.32 143.95) rotate(-23.31) skewX(-.01)"><tspan x="0" y="0">V</tspan></text><text class="cls-22" transform="translate(289.75 139.47) rotate(-21.1)"><tspan x="0" y="0">E</tspan></text><text class="cls-22" transform="translate(299.06 135.86) rotate(-18.93)"><tspan x="0" y="0">R</tspan></text><text class="cls-22" transform="translate(309.4 132.31) rotate(-16.65)"><tspan x="0" y="0">K</tspan></text><text class="cls-22" transform="translate(319.62 129.21) rotate(-14.12)"><tspan x="0" y="0">O</tspan></text><text class="cls-22" transform="translate(333.23 125.83) rotate(-11.63) skewX(.01)"><tspan x="0" y="0">S</tspan></text><text class="cls-22" transform="translate(343.07 123.8) rotate(-9.54) skewX(.02)"><tspan x="0" y="0">T</tspan></text><text class="cls-22" transform="translate(352.45 122.17) rotate(-7.15) skewX(.02)"><tspan x="0" y="0">O</tspan></text><text class="cls-22" transform="translate(365.88 120.51) rotate(-4.74) skewX(.02)"><tspan x="0" y="0">T</tspan></text><g id="id4-2"><path class="cls-3" d="M397.16,392.92l-63.05-106.22c19.55-11.6,38.83-17.02,61.57-17.29l1.48,123.51Z"/></g><g id="id5-2"><path class="cls-12" d="M397.16,392.92l63.05,106.22c-19.55,11.6-38.83,17.02-61.57,17.29l-1.48-123.51Z"/></g><g id="id6-2"><path class="cls-13" d="M397.16,392.92l-1.48-123.51c22.73-.28,42.12,4.68,61.95,15.81h0l-60.46,107.7Z"/></g><g id="id7-2"><path class="cls-6" d="M397.16,392.92l1.48,123.51c-22.73,.28-42.12-4.68-61.95-15.81l60.46-107.7Z"/></g><g id="id8-2"><path class="cls-13" d="M397.16,392.92l60.46-107.7c19.83,11.13,34.15,25.1,45.76,44.65l-106.22,63.05Z"/></g><g id="id9-2"><path class="cls-6" d="M400.52,391.98l-63.99,113.99h0c-20.99-11.78-36.15-26.56-48.43-47.26l112.42-66.73Z"/></g><g id="id10-2"><path class="cls-13" d="M397.16,392.92l106.22-63.05c11.6,19.55,17.02,38.83,17.29,61.57l-123.51,1.48Z"/></g><g id="id11-2"><path class="cls-6" d="M398.49,393.22l-105.34,64.51c-11.87-19.39-17.55-38.6-18.14-61.32l123.48-3.18Z"/></g><g id="id12-2"><path class="cls-12" d="M397.16,392.92l123.51-1.48c.28,22.73-4.68,42.12-15.81,61.95l-107.7-60.46Z"/></g><g id="id13-2"><path class="cls-3" d="M397.16,392.92l-123.51,1.48c-.28-22.73,4.68-42.12,15.81-61.95l107.7,60.46Z"/></g><g id="id14-2"><path class="cls-12" d="M397.16,392.92l107.7,60.46h0c-11.13,19.83-25.1,34.15-44.65,45.76l-63.05-106.22Z"/></g><g id="id15-2"><path class="cls-3" d="M397.16,392.92l-107.7-60.46c11.13-19.83,25.1-34.15,44.65-45.76l63.05,106.22Z"/></g><circle class="cls-20" cx="397.29" cy="391.87" r="124.75"/><line class="cls-20" x1="395.68" y1="176.06" x2="397.78" y2="611.06"/><line class="cls-20" x1="615.23" y1="393.76" x2="180.23" y2="393.76"/><line class="cls-20" x1="458.92" y1="281.13" x2="502.41" y2="204.04"/><line class="cls-20" x1="290.1" y1="583.31" x2="335.48" y2="502.24"/><line class="cls-20" x1="210.99" y1="505.59" x2="292.88" y2="458.31"/><line class="cls-20" x1="503.75" y1="326.93" x2="583.77" y2="280.73"/><line class="cls-20" x1="458.44" y1="498.06" x2="506.16" y2="580.09"/><line class="cls-20" x1="286.95" y1="207.78" x2="331.51" y2="284.95"/><line class="cls-20" x1="208.19" y1="287.57" x2="289.54" y2="332.5"/><line class="cls-20" x1="507.09" y1="454.97" x2="586.37" y2="500.74"/><circle class="cls-21" cx="397.68" cy="393.15" r="215"/><circle class="cls-18" cx="396.65" cy="394.1" r="115"/><text class="cls-23" transform="translate(424.43 286.12) rotate(14.92)"><tspan x="0" y="0"> </tspan></text><text class="cls-23" transform="translate(427.75 287) rotate(16.72)"><tspan x="0" y="0"> </tspan></text><text class="cls-23" transform="translate(431.01 287.98) rotate(18.51)"><tspan x="0" y="0"> </tspan></text><text class="cls-23" transform="translate(433.66 288.77) rotate(21.45)"><tspan x="0" y="0">V</tspan></text><text class="cls-23" transform="translate(441.17 291.65) rotate(25.9)"><tspan x="0" y="0">A</tspan></text><text class="cls-23" transform="translate(450.06 296.01) rotate(30.46)"><tspan x="0" y="0">L</tspan></text><text class="cls-23" transform="translate(456.61 299.7) rotate(35.79)"><tspan x="0" y="0">M</tspan></text><text class="cls-23" transform="translate(467.11 307.48) rotate(40.15)"><tspan x="0" y="0">I</tspan></text><text class="cls-23" transform="translate(470.07 309.83) rotate(43.85)"><tspan x="0" y="0">U</tspan></text><text class="cls-23" transform="translate(477.59 317.03) rotate(49.31)"><tspan x="0" y="0">D</tspan></text><text class="cls-23" transform="translate(484.56 325.21) rotate(54.14)"><tspan x="0" y="0">E</tspan></text><text class="cls-23" transform="translate(489.35 331.84) rotate(58.41)"><tspan x="0" y="0">T</tspan></text><text class="cls-23" transform="translate(493.51 338.72) rotate(61.38)"><tspan x="0" y="0"> </tspan></text><text class="cls-23" transform="translate(495.15 341.71) rotate(63.16)"><tspan x="0" y="0"> </tspan></text><text class="cls-23" transform="translate(496.69 344.76) rotate(64.95)"><tspan x="0" y="0"> </tspan></text><text class="cls-23" transform="translate(498.14 347.87) rotate(66.75)"><tspan x="0" y="0"> </tspan></text><text class="cls-23" transform="translate(499.49 350.98) rotate(68.52)"><tspan x="0" y="0"> </tspan></text><text class="cls-23" transform="translate(500.73 354.15) rotate(70.31)"><tspan x="0" y="0"> </tspan></text><text class="cls-23" transform="translate(501.88 357.36) rotate(72.1)"><tspan x="0" y="0"> </tspan></text><text class="cls-23" transform="translate(502.94 360.62) rotate(73.9)"><tspan x="0" y="0"> </tspan></text><text class="cls-23" transform="translate(503.88 363.89) rotate(75.68)"><tspan x="0" y="0"> </tspan></text><text class="cls-23" transform="translate(504.73 367.19) rotate(77.47)"><tspan x="0" y="0"> </tspan></text><text class="cls-23" transform="translate(505.47 370.54) rotate(79.27)"><tspan x="0" y="0"> </tspan></text><text class="cls-23" transform="translate(506.11 373.88) rotate(81.04)"><tspan x="0" y="0"> </tspan></text><text class="cls-23" transform="translate(506.64 377.25) rotate(82.82)"><tspan x="0" y="0"> </tspan></text><text class="cls-23" transform="translate(507.06 380.62) rotate(84.59)"><tspan x="0" y="0"> </tspan></text><text class="cls-23" transform="translate(507.39 384.01) rotate(86.35)"><tspan x="0" y="0"> </tspan></text><text class="cls-23" transform="translate(507.61 387.44) rotate(88.12)"><tspan x="0" y="0"> </tspan></text><text class="cls-23" transform="translate(507.7 390.81) rotate(89.07)"><tspan x="0" y="0"> </tspan></text><text class="cls-23" transform="translate(507.73 394.27) rotate(91.61)"><tspan x="0" y="0"> </tspan></text><text class="cls-23" transform="translate(507.64 397.66) rotate(93.36)"><tspan x="0" y="0"> </tspan></text><text class="cls-23" transform="translate(507.44 401.07) rotate(95.12)"><tspan x="0" y="0"> </tspan></text><text class="cls-23" transform="translate(507.13 404.47) rotate(96.89)"><tspan x="0" y="0"> </tspan></text><text class="cls-23" transform="translate(506.73 407.85) rotate(98.67)"><tspan x="0" y="0"> </tspan></text><text class="cls-23" transform="translate(506.21 411.23) rotate(100.45)"><tspan x="0" y="0"> </tspan></text><text class="cls-23" transform="translate(505.6 414.58) rotate(102.24)"><tspan x="0" y="0"> </tspan></text><text class="cls-23" transform="translate(504.87 417.92) rotate(104.03)"><tspan x="0" y="0"> </tspan></text><text class="cls-23" transform="translate(504.05 421.22) rotate(105.81)"><tspan x="0" y="0"> </tspan></text><text class="cls-23" transform="translate(503.12 424.51) rotate(107.61)"><tspan x="0" y="0"> </tspan></text><text class="cls-23" transform="translate(502.09 427.77) rotate(109.4)"><tspan x="0" y="0"> </tspan></text><text class="cls-23" transform="translate(500.96 430.98) rotate(111.19)"><tspan x="0" y="0"> </tspan></text><text class="cls-23" transform="translate(499.73 434.15) rotate(112.97)"><tspan x="0" y="0"> </tspan></text><text class="cls-23" transform="translate(498.74 436.67) rotate(115.62)"><tspan x="0" y="0">T</tspan></text><text class="cls-23" transform="translate(495.1 444.28) rotate(120.21)"><tspan x="0" y="0">Y</tspan></text><text class="cls-23" transform="translate(491.09 451.33) rotate(125.06)"><tspan x="0" y="0">Ö</tspan></text><text class="cls-23" transform="translate(484.71 460.42) rotate(130.69)"><tspan x="0" y="0">N</tspan></text><text class="cls-23" transform="translate(477.82 468.45) rotate(136.13)"><tspan x="0" y="0">H</tspan></text><text class="cls-23" transform="translate(470.23 475.74) rotate(141.41)"><tspan x="0" y="0">A</tspan></text><text class="cls-23" transform="translate(462.52 481.88) rotate(146.23)"><tspan x="0" y="0">K</tspan></text><text class="cls-23" transform="translate(455.31 486.76) rotate(151.21)"><tspan x="0" y="0">U</tspan></text><text class="cls-23" transform="translate(446.06 491.72) rotate(154.82)"><tspan x="0" y="0"> </tspan></text><text class="cls-23" transform="translate(442.96 493.18) rotate(156.61)"><tspan x="0" y="0"> </tspan></text><text class="cls-23" transform="translate(439.84 494.53) rotate(158.39)"><tspan x="0" y="0"> </tspan></text><text class="cls-23" transform="translate(436.68 495.79) rotate(160.18)"><tspan x="0" y="0"> </tspan></text><text class="cls-23" transform="translate(433.47 496.94) rotate(161.97)"><tspan x="0" y="0"> </tspan></text><text class="cls-23" transform="translate(430.21 498) rotate(163.77)"><tspan x="0" y="0"> </tspan></text><text class="cls-23" transform="translate(426.95 498.96) rotate(165.55)"><tspan x="0" y="0"> </tspan></text><text class="cls-23" transform="translate(423.65 499.81) rotate(167.34)"><tspan x="0" y="0"> </tspan></text><text class="cls-23" transform="translate(420.31 500.56) rotate(169.13)"><tspan x="0" y="0"> </tspan></text><text class="cls-23" transform="translate(416.97 501.2) rotate(170.91)"><tspan x="0" y="0"> </tspan></text><text class="cls-23" transform="translate(413.6 501.74) rotate(172.69)"><tspan x="0" y="0"> </tspan></text><text class="cls-23" transform="translate(410.19 502.18) rotate(174.47)"><tspan x="0" y="0"> </tspan></text><text class="cls-23" transform="translate(406.8 502.51) rotate(176.24)"><tspan x="0" y="0"> </tspan></text><text class="cls-23" transform="translate(403.42 502.74) rotate(177.98)"><tspan x="0" y="0"> </tspan></text><text class="cls-23" transform="translate(399.96 502.84) rotate(179.07)"><tspan x="0" y="0"> </tspan></text><text class="cls-23" transform="translate(396.59 502.87) rotate(-178.53)"><tspan x="0" y="0"> </tspan></text><text class="cls-23" transform="translate(393.18 502.79) rotate(-176.77)"><tspan x="0" y="0"> </tspan></text><text class="cls-23" transform="translate(389.76 502.6) rotate(-175)"><tspan x="0" y="0"> </tspan></text><text class="cls-23" transform="translate(386.36 502.3) rotate(-173.23)"><tspan x="0" y="0"> </tspan></text><text class="cls-23" transform="translate(382.98 501.9) rotate(-171.46)"><tspan x="0" y="0"> </tspan></text><text class="cls-23" transform="translate(379.59 501.39) rotate(-169.67)"><tspan x="0" y="0"> </tspan></text><text class="cls-23" transform="translate(376.26 500.79) rotate(-167.9)"><tspan x="0" y="0"> </tspan></text><text class="cls-23" transform="translate(372.92 500.07) rotate(-166.11)"><tspan x="0" y="0"> </tspan></text><text class="cls-23" transform="translate(369.6 499.25) rotate(-164.31)"><tspan x="0" y="0"> </tspan></text><text class="cls-23" transform="translate(366.32 498.33) rotate(-162.52)"><tspan x="0" y="0"> </tspan></text><text class="cls-23" transform="translate(363.06 497.31) rotate(-160.73)"><tspan x="0" y="0"> </tspan></text><text class="cls-23" transform="translate(359.84 496.18) rotate(-158.94)"><tspan x="0" y="0"> </tspan></text><text class="cls-23" transform="translate(356.67 494.97) rotate(-157.16)"><tspan x="0" y="0"> </tspan></text><text class="cls-23" transform="translate(354.15 493.98) rotate(-154.51)"><tspan x="0" y="0">T</tspan></text><text class="cls-23" transform="translate(346.53 490.35) rotate(-149.92)"><tspan x="0" y="0">Y</tspan></text><text class="cls-23" transform="translate(339.49 486.37) rotate(-145.08)"><tspan x="0" y="0">Ö</tspan></text><text class="cls-23" transform="translate(330.39 479.96) rotate(-139.98)"><tspan x="0" y="0">P</tspan></text><text class="cls-23" transform="translate(324.82 475.39) rotate(-135.91)"><tspan x="0" y="0">A</tspan></text><text class="cls-23" transform="translate(317.76 468.42) rotate(-132.36)"><tspan x="0" y="0">I</tspan></text><text class="cls-23" transform="translate(315.14 465.67) rotate(-129.1)"><tspan x="0" y="0">K</tspan></text><text class="cls-23" transform="translate(309.63 458.9) rotate(-124.58)"><tspan x="0" y="0">K</tspan></text><text class="cls-23" transform="translate(304.57 451.61) rotate(-119.66)"><tspan x="0" y="0">A</tspan></text><text class="cls-23" transform="translate(299.75 442.95) rotate(-116.21)"><tspan x="0" y="0"> </tspan></text><text class="cls-23" transform="translate(298.23 439.88) rotate(-114.42)"><tspan x="0" y="0"> </tspan></text><text class="cls-23" transform="translate(296.82 436.78) rotate(-112.63)"><tspan x="0" y="0"> </tspan></text><text class="cls-23" transform="translate(295.51 433.62) rotate(-110.84)"><tspan x="0" y="0"> </tspan></text><text class="cls-23" transform="translate(294.29 430.44) rotate(-109.05)"><tspan x="0" y="0"> </tspan></text><text class="cls-23" transform="translate(293.18 427.21) rotate(-107.26)"><tspan x="0" y="0"> </tspan></text><text class="cls-23" transform="translate(292.17 423.97) rotate(-105.48)"><tspan x="0" y="0"> </tspan></text><text class="cls-23" transform="translate(291.26 420.67) rotate(-103.68)"><tspan x="0" y="0"> </tspan></text><text class="cls-23" transform="translate(290.45 417.38) rotate(-101.9)"><tspan x="0" y="0"> </tspan></text><text class="cls-23" transform="translate(289.74 414.02) rotate(-100.11)"><tspan x="0" y="0"> </tspan></text><text class="cls-23" transform="translate(289.14 410.67) rotate(-98.33)"><tspan x="0" y="0"> </tspan></text><text class="cls-23" transform="translate(288.65 407.28) rotate(-96.54)"><tspan x="0" y="0"> </tspan></text><text class="cls-23" transform="translate(288.26 403.9) rotate(-94.78)"><tspan x="0" y="0"> </tspan></text><text class="cls-23" transform="translate(287.97 400.49) rotate(-93.02)"><tspan x="0" y="0"> </tspan></text><text class="cls-23" transform="translate(287.79 397.1) rotate(-91.27)"><tspan x="0" y="0"> </tspan></text><text class="cls-23" transform="translate(287.7 393.7) rotate(-89.07)"><tspan x="0" y="0"> </tspan></text><text class="cls-23" transform="translate(287.74 390.27) rotate(-87.78)"><tspan x="0" y="0"> </tspan></text><text class="cls-23" transform="translate(287.87 386.85) rotate(-86.01)"><tspan x="0" y="0"> </tspan></text><text class="cls-23" transform="translate(288.11 383.45) rotate(-84.25)"><tspan x="0" y="0"> </tspan></text><text class="cls-23" transform="translate(288.45 380.07) rotate(-82.49)"><tspan x="0" y="0"> </tspan></text><text class="cls-23" transform="translate(288.89 376.69) rotate(-80.7)"><tspan x="0" y="0"> </tspan></text><text class="cls-23" transform="translate(289.44 373.32) rotate(-78.92)"><tspan x="0" y="0"> </tspan></text><text class="cls-23" transform="translate(290.1 369.98) rotate(-77.14)"><tspan x="0" y="0"> </tspan></text><text class="cls-23" transform="translate(290.86 366.64) rotate(-75.34)"><tspan x="0" y="0"> </tspan></text><text class="cls-23" transform="translate(291.72 363.33) rotate(-73.54)"><tspan x="0" y="0"> </tspan></text><text class="cls-23" transform="translate(292.68 360.07) rotate(-71.76)"><tspan x="0" y="0"> </tspan></text><text class="cls-23" transform="translate(293.75 356.83) rotate(-69.97)"><tspan x="0" y="0"> </tspan></text><text class="cls-23" transform="translate(294.91 353.63) rotate(-68.18)"><tspan x="0" y="0"> </tspan></text><text class="cls-23" transform="translate(296.18 350.46) rotate(-66.39)"><tspan x="0" y="0"> </tspan></text><text class="cls-23" transform="translate(297.46 347.34) rotate(-63.23)"><tspan x="0" y="0">R</tspan></text><text class="cls-23" transform="translate(301.36 339.62) rotate(-58.91)"><tspan x="0" y="0">E</tspan></text><text class="cls-23" transform="translate(305.45 332.83) rotate(-54.79)"><tspan x="0" y="0">S</tspan></text><text class="cls-23" transform="translate(309.96 326.34) rotate(-50.03)"><tspan x="0" y="0">U</tspan></text><text class="cls-23" transform="translate(316.68 318.36) rotate(-45.1)"><tspan x="0" y="0">R</tspan></text><text class="cls-23" transform="translate(322.82 312.21) rotate(-40.79)"><tspan x="0" y="0">S</tspan></text><text class="cls-23" transform="translate(328.81 307.03) rotate(-36.68)"><tspan x="0" y="0">S</tspan></text><text class="cls-23" transform="translate(335.24 302.31) rotate(-33.63)"><tspan x="0" y="0">I</tspan></text><text class="cls-23" transform="translate(338.36 300.15) rotate(-30.55)"><tspan x="0" y="0">T</tspan></text></svg>